<?xml version="1.0" standalone="no"?>
<!DOCTYPE svg PUBLIC "-//W3C//DTD SVG 1.1//EN" "http://www.w3.org/Graphics/SVG/1.1/DTD/svg11.dtd" >
<svg xmlns="http://www.w3.org/2000/svg">
<metadata>
Created by FontPrep 20130207 at Tue Dec  1 12:15:08 2015
 By Greg Greenhaw
(c) 2015 Apple Inc. All rights reserved.
</metadata>
<defs>
<font id="dafe8d7614497fe2d09b826aa3062825" horiz-adv-x='1024' >
  <font-face 
    font-family=".HelveticaNeueDeskInterface-BoldItalic"
    font-weight="700"
    font-style="italic"
    font-stretch="normal"
    units-per-em="2048"
    panose-1="0 0 4 0 0 0 0 0 0 0"
    ascent="1638"
    descent="-410"
    x-height="1103"
    cap-height="1443"
    bbox="-599 -570 3006 2229"
    underline-thickness="50"
    underline-position="-25"
    slope="-12"
    unicode-range="U+0020-FB02"
  />
<missing-glyph horiz-adv-x="1293" 
d="M762 1031q62 0 100.5 -30.5t38.5 -74.5t-27 -70t-98 -67q-116 -67 -155.5 -114.5t-49.5 -121.5l-6 -42h150l7 39q8 44 33 68t97 65q123 71 167 125t44 114q0 114 -81.5 178t-214.5 64q-132 0 -216 -69t-92 -187h152q9 57 49 90t102 33zM504 304q0 -46 31 -73.5t81 -27.5
t83 28.5t33 74.5t-31.5 74.5t-82.5 28.5t-82.5 -29.5t-31.5 -75.5zM335 1365h1053l-290 -1365h-1053z" />
    <glyph glyph-name=".notdef" horiz-adv-x="1293" 
d="M762 1031q62 0 100.5 -30.5t38.5 -74.5t-27 -70t-98 -67q-116 -67 -155.5 -114.5t-49.5 -121.5l-6 -42h150l7 39q8 44 33 68t97 65q123 71 167 125t44 114q0 114 -81.5 178t-214.5 64q-132 0 -216 -69t-92 -187h152q9 57 49 90t102 33zM504 304q0 -46 31 -73.5t81 -27.5
t83 28.5t33 74.5t-31.5 74.5t-82.5 28.5t-82.5 -29.5t-31.5 -75.5zM335 1365h1053l-290 -1365h-1053z" />
    <glyph glyph-name=".null" 
 />
    <glyph glyph-name="nonmarkingreturn" 
 />
    <glyph glyph-name="space" unicode=" " horiz-adv-x="528" 
 />
    <glyph glyph-name="exclam" unicode="!" horiz-adv-x="729" 
d="M298 -30q-62 0 -111.5 47.5t-49.5 101.5t12.5 86t36 55.5t57 37t95.5 13.5t111.5 -47.5t49.5 -118.5q0 -119 -69.5 -147t-131.5 -28zM760 1443l-233 -968h-267l180 968h320z" />
    <glyph glyph-name="quotedbl" unicode="&#x22;" horiz-adv-x="1016" 
d="M717 831l129 612h250l-129 -612h-250zM255 831l129 612h250l-129 -612h-250z" />
    <glyph glyph-name="numbersign" unicode="#" horiz-adv-x="1360" 
d="M567 585h257l124 291h-259zM1154 857l-108 -252h204l-86 -223h-206l-159 -382h-228l159 382h-230l-159 -382h-227l159 382h-202l88 223h202l108 252h-200l86 221h202l153 366h227l-152 -366h229l153 366h228l-152 -366h205l-87 -221h-207z" />
    <glyph glyph-name="dollar" unicode="$" horiz-adv-x="1415" 
d="M1280 458q0 -224 -154.5 -347t-409.5 -123h-15l-27 -126h-140l30 140q-181 34 -289.5 145t-114.5 270h284q8 -66 52.5 -112t117.5 -67l80 378l-60 20q-158 53 -242 152.5t-84 213.5q0 211 149 332t391 121h25l28 133h140l-32 -151q164 -41 261.5 -149.5t99.5 -256.5h-277
q-16 120 -135 168l-76 -357l48 -16q350 -118 350 -368zM606 1038q0 -92 146 -152l71 334q-152 -6 -184.5 -72t-32.5 -110zM984 415q0 47 -37 84.5t-122 71.5l-74 -348q166 6 199.5 75.5t33.5 116.5z" />
    <glyph glyph-name="percent" unicode="%" horiz-adv-x="1806" 
d="M1161.5 14q-118.5 48 -118.5 288q0 161 108.5 280t257.5 119q148 0 232 -88t84 -248t-108.5 -279.5t-262.5 -119.5q-74 0 -192.5 48zM1419 509q-66 0 -110 -64.5t-44 -139.5q0 -145 93 -145q60 0 103 65t43 140q0 76 -24 110t-61 34zM331 829q-83 87 -83 247t108 280
t257 120q150 0 233 -87t83 -248t-108.5 -280t-257.5 -119t-232 87zM176 0l731 761l579 682h314l-744 -770l-566 -673h-314zM623 1285q-66 0 -110 -64.5t-44 -139.5q0 -146 94 -146q59 0 102 64.5t43 141.5q0 76 -24 110t-61 34z" />
    <glyph glyph-name="ampersand" unicode="&#x26;" horiz-adv-x="1525" 
d="M98 367q0 283 357 422l72 29q-116 165 -116 305q0 139 122.5 240.5t300.5 101.5t292 -87.5t114 -216.5q0 -275 -379 -419l218 -311q101 133 113 298l3 33h244l-3 -38q-27 -282 -227 -492l155 -232h-304l-51 76q-177 -104 -397.5 -104t-367 112.5t-146.5 282.5zM371 392
q0 -89 73 -146t205 -57t245 68l-262 387l-47 -16q-214 -79 -214 -236zM990 1133q0 60 -41 95t-93 35q-89 0 -141 -51t-52 -108q0 -56 21 -100t70 -107q236 81 236 236z" />
    <glyph glyph-name="quotesingle" unicode="'" horiz-adv-x="553" 
d="M255 831l129 612h250l-129 -612h-250z" />
    <glyph glyph-name="parenleft" unicode="(" horiz-adv-x="803" 
d="M181 340q0 118 65 444t406 658h308q-338 -332 -408.5 -663t-70.5 -505q0 -286 88 -551h-270q-118 231 -118 617z" />
    <glyph glyph-name="parenright" unicode=")" horiz-adv-x="802" 
d="M700 824q0 -118 -65.5 -444t-405.5 -657h-308q339 336 409 665.5t70 502.5q0 286 -88 551h270q118 -232 118 -618z" />
    <glyph glyph-name="asterisk" unicode="*" horiz-adv-x="1032" 
d="M699 911l-26 -296l-202 5l103 304l-281 -165l-64 195l307 88l-257 142l140 174l202 -215l26 303l202 -5l-105 -310l283 167l64 -194l-307 -87l256 -143l-139 -174z" />
    <glyph glyph-name="plus" unicode="+" horiz-adv-x="1415" 
d="M770 46h-261l87 409h-405l53 258h405l87 408h261l-87 -408h413l-53 -258h-413z" />
    <glyph glyph-name="comma" unicode="," horiz-adv-x="722" 
d="M32 -388l213 635h288l-267 -635h-234z" />
    <glyph glyph-name="hyphen" unicode="-" horiz-adv-x="992" 
d="M188 446l57 273h657l-57 -273h-657z" />
    <glyph glyph-name="period" unicode="." horiz-adv-x="712" 
d="M171.5 22.5q-49.5 49.5 -49.5 103.5t12.5 86.5t36 56.5t56 37.5t92 13.5t108.5 -49t49 -103t-12.5 -86.5t-49 -70.5t-115 -38t-128 49.5z" />
    <glyph glyph-name="slash" unicode="/" horiz-adv-x="772" 
d="M-95 -288l783 1731h275l-789 -1731h-269z" />
    <glyph glyph-name="zero" unicode="0" horiz-adv-x="1401" 
d="M487 485q0 -118 53.5 -196t141.5 -78q165 0 281 218.5t116 508.5q0 138 -54 215.5t-153 77.5t-212.5 -126.5t-143 -314t-29.5 -305.5zM183 529q0 264 91.5 483t251 343.5t354.5 124.5q232 0 367.5 -151t135.5 -408q0 -413 -199.5 -685.5t-507.5 -272.5q-223 0 -358 151
t-135 415z" />
    <glyph glyph-name="one" unicode="1" horiz-adv-x="1051" 
d="M663 1134h-18l-406 -242l60 294l429 257h301l-307 -1443h-302z" />
    <glyph glyph-name="two" unicode="2" horiz-adv-x="1318" 
d="M1175 1368.5q138 -111.5 138 -281.5q0 -135 -89.5 -248t-352.5 -322l-316 -250l-4 -18h630l-51 -249h-1049l47 224l556 448q203 165 252.5 221.5t63.5 91.5t14 93.5t-60 108t-152 49.5q-147 0 -194.5 -81t-58.5 -134h-279q18 202 174 330.5t375 128.5q218 0 356 -111.5z
" />
    <glyph glyph-name="three" unicode="3" horiz-adv-x="1366" 
d="M140 381q0 15 5 60h284v-3q-10 -95 63 -159t193 -64t195 64.5t75 156.5t-67.5 142.5t-173.5 50.5h-159l46 226h192q181 0 221 81.5t40 124.5q0 82 -61.5 130t-162.5 48q-134 0 -184.5 -66.5t-62.5 -105.5h-279q38 188 188 300.5t364.5 112.5t352 -107t137.5 -258
t-95.5 -255.5t-243.5 -122.5l-3 -18q121 -28 186 -104.5t65 -185.5q0 -209 -162.5 -337.5t-406.5 -128.5t-395 117t-151 301z" />
    <glyph glyph-name="four" unicode="4" horiz-adv-x="1413" 
d="M416 494h444l154 714h-16q-268 -305 -380.5 -445.5t-198.5 -252.5zM804 252h-709l49 279q239 319 761 912h439l-201 -940h189l-52 -251h-188l-55 -252h-288z" />
    <glyph glyph-name="five" unicode="5" horiz-adv-x="1361" 
d="M868 958q175 0 295.5 -118.5t120.5 -299.5q0 -253 -163.5 -415t-427.5 -162q-225 0 -374 121t-149 305v3l2 35h279v-3q2 -95 74 -154t191 -59t200 84.5t81 200.5t-67 180t-156 64q-167 0 -256 -107h-277l242 810h899l-53 -251h-656l-111 -347l17 -1q114 114 289 114z" />
    <glyph glyph-name="six" unicode="6" horiz-adv-x="1406" 
d="M572.5 641q-85.5 -82 -85.5 -192t69 -175t185 -65t197.5 83t81.5 193q0 111 -67.5 174.5t-181.5 63.5q-113 0 -198.5 -82zM1116 1052q-26 179 -238 179q-58 0 -119.5 -32t-138.5 -124.5t-115 -305.5l18 -1q131 180 362 180q188 0 309 -119t121 -306q0 -236 -168 -398
t-419 -162t-394.5 155t-143.5 424q0 383 191 654q96 137 230.5 210.5t268.5 73.5q242 0 384 -121t146 -307h-294z" />
    <glyph glyph-name="seven" unicode="7" horiz-adv-x="1239" 
d="M988 1176l4 19h-703l52 248h1017l-52 -251l-858 -1192h-328z" />
    <glyph glyph-name="eight" unicode="8" horiz-adv-x="1416" 
d="M689 907.5q60 -50.5 158 -50.5q99 0 169.5 63t70.5 148t-60 135.5t-160 50.5t-169 -63t-69 -148t60 -135.5zM532.5 569.5q-81.5 -68.5 -81.5 -167.5t70 -154t190 -55t200 68.5t80 165.5t-71 154t-189 57q-117 0 -198.5 -68.5zM538 797q-197 79 -197 293q0 66 41 141.5
t153 162t338 86.5q225 0 369.5 -108t144.5 -256t-91.5 -247t-238.5 -123l-4 -18q245 -86 245 -339q0 -76 -45 -158t-171 -175t-380 -93q-255 0 -411.5 112.5t-156.5 280.5t110 283t290 141z" />
    <glyph glyph-name="nine" unicode="9" horiz-adv-x="1404" 
d="M248 918q0 243 168.5 402.5t418.5 159.5t393 -155t143 -428q0 -379 -191 -650q-96 -137 -229 -210.5t-265 -73.5q-239 0 -383 117.5t-152 298.5h295q12 -118 97 -143t145 -25t123.5 32.5t141 125.5t111.5 302l-17 1q-133 -180 -360 -180q-190 0 -314.5 120.5
t-124.5 305.5zM1074 1000q0 158 -95 194t-152 36q-118 0 -200.5 -82.5t-82.5 -192.5t67 -174t175 -64q118 0 203 81.5t85 201.5z" />
    <glyph glyph-name="colon" unicode=":" horiz-adv-x="712" 
d="M328 759.5q-50 48.5 -50 103.5q0 54 12.5 86.5t36 56.5t56 38t92 14t108.5 -49t49 -103t-12.5 -86.5t-49 -70.5t-114.5 -38t-128 48.5zM171.5 22.5q-49.5 49.5 -49.5 103.5t12.5 86.5t36 56.5t56 37.5t92 13.5t108.5 -49t49 -103t-12.5 -86.5t-49 -70.5t-115 -38
t-128 49.5z" />
    <glyph glyph-name="semicolon" unicode=";" horiz-adv-x="712" 
d="M456.5 711q-77.5 0 -127.5 48.5t-50 103.5q0 54 12.5 86.5t36 56.5t56 38t91 14t108.5 -48.5t50 -103.5q0 -54 -12.5 -86.5t-49.5 -70.5t-114.5 -38zM-14 -388l213 635h288l-267 -635h-234z" />
    <glyph glyph-name="less" unicode="&#x3c;" horiz-adv-x="1415" 
d="M1106 -39l-848 530l48 235l1059 461l-63 -306l-723 -278l-3 -19l589 -331z" />
    <glyph glyph-name="equal" unicode="=" horiz-adv-x="1416" 
d="M244 695l53 259h1073l-53 -259h-1073zM144 216l53 259h1073l-53 -259h-1073z" />
    <glyph glyph-name="greater" unicode="&#x3e;" horiz-adv-x="1415" 
d="M404 1187l848 -530l-48 -234l-1060 -462l63 307l723 278l4 18l-590 332z" />
    <glyph glyph-name="question" unicode="?" horiz-adv-x="1141" 
d="M381 -3.5q-72 25.5 -72 140.5q0 75 52 126t131 51q80 0 133 -45.5t53 -119.5t-51 -126t-112.5 -52t-133.5 25.5zM1071 1354.5q129 -101.5 129 -258.5q0 -195 -108 -281t-170 -113q-117 -52 -164 -94.5t-61 -114.5l-8 -42h-271l12 63q24 133 77.5 201t174.5 122
q173 80 195.5 140.5t22.5 92.5q0 63 -49 104.5t-134 41.5q-119 0 -160.5 -62.5t-51.5 -100.5h-273q25 180 159 291.5t343 111.5q208 0 337 -101.5z" />
    <glyph glyph-name="at" unicode="@" horiz-adv-x="1899" 
d="M1203 660q0 70 -40 117t-96 47q-100 0 -160.5 -84.5t-60.5 -182.5q0 -99 39.5 -144.5t95.5 -45.5t94 22t66.5 60t45 89.5t16.5 121.5zM1377 386q0 -81 90 -81t163.5 138.5t73.5 317.5q0 230 -162 375t-419 145q-310 0 -525 -219.5t-215 -537.5q0 -272 186 -434.5
t500 -162.5q104 0 153 15l-34 -163q-84 -16 -176 -16q-360 0 -585 207.5t-225 540.5q0 399 267 666t683 267q148 0 286 -50t293.5 -190.5t155.5 -422.5q0 -281 -136.5 -461t-337.5 -180q-105 0 -173 45.5t-68 117.5q0 7 0.5 13.5t0.5 11.5l-18 -3q-82 -142 -227 -142
t-227 93.5t-82 249.5q0 206 116 348.5t283 142.5q137 0 182 -62t53 -98l18 -1l25 125h207l-121 -557q-5 -23 -5 -38z" />
    <glyph glyph-name="A" unicode="A" horiz-adv-x="1501" 
d="M612 577h381l-58 565h-19zM1007 344h-509l-186 -344h-315l820 1443h349l187 -1443h-311z" />
    <glyph glyph-name="B" unicode="B" horiz-adv-x="1420" 
d="M739 237q127 0 211 66t84 160q0 184 -234 184h-259l-89 -410h287zM1105 1065q0 154 -216 154h-225l-80 -368h240q123 0 202 60t79 154zM996 1443q185 0 299 -85.5t114 -227.5q0 -141 -91.5 -244t-234.5 -123l-2 -19q119 -22 188.5 -99t69.5 -183q0 -206 -154.5 -334
t-393.5 -128h-691l307 1443h589z" />
    <glyph glyph-name="C" unicode="C" horiz-adv-x="1532" 
d="M938 1212q-82 0 -167 -47.5t-183.5 -179t-98.5 -396.5q0 -166 85 -262.5t230 -96.5q191 0 262.5 90.5t89.5 143.5h299q-48 -229 -232 -365t-451 -136t-429.5 165t-162.5 440q0 400 165 588.5t310 256t293 67.5q273 0 440 -145.5t167 -359.5v-16q0 -16 -2 -27h-294v14
q-6 120 -89 193t-232 73z" />
    <glyph glyph-name="D" unicode="D" horiz-adv-x="1535" 
d="M729 257q206 0 337.5 156.5t131.5 408.5q0 170 -92 267.5t-255 97.5h-191l-201 -930h270zM918 1443q276 0 433.5 -155.5t157.5 -431.5q0 -371 -174 -570t-322 -242.5t-257 -43.5h-655l306 1443h511z" />
    <glyph glyph-name="E" unicode="E" horiz-adv-x="1273" 
d="M1057 0h-957l307 1443h956l-53 -258h-652l-75 -337h616l-50 -239h-615l-78 -351h653z" />
    <glyph glyph-name="F" unicode="F" horiz-adv-x="1235" 
d="M100 0l307 1443h945l-53 -258h-641l-83 -376h585l-51 -247h-585l-120 -562h-304z" />
    <glyph glyph-name="G" unicode="G" horiz-adv-x="1566" 
d="M182 574q0 398 222.5 652t567.5 254q241 0 409 -136t174 -334q1 -7 0.5 -15.5t-0.5 -17.5h-294q-6 104 -91 169t-201 65q-214 0 -346 -175t-132 -441q0 -167 88 -265t239 -98q218 0 287 107t82 170l5 25h-307l47 226h602l-37 -184q-58 -298 -239.5 -455.5t-465.5 -157.5
q-279 0 -444.5 168t-165.5 443z" />
    <glyph glyph-name="H" unicode="H" horiz-adv-x="1605" 
d="M1051 0l129 603h-648l-129 -603h-303l307 1443h304l-125 -582h648l125 582h304l-307 -1443h-305z" />
    <glyph glyph-name="I" unicode="I" horiz-adv-x="653" 
d="M100 0l307 1443h304l-307 -1443h-304z" />
    <glyph glyph-name="J" unicode="J" horiz-adv-x="1229" 
d="M379 413v-9q1 -77 49 -122t131 -45q167 0 212 209l213 997h302l-222 -1042q-45 -213 -176 -325.5t-341 -112.5t-339 117t-123 302v12q0 11 1 19h293z" />
    <glyph glyph-name="K" unicode="K" horiz-adv-x="1454" 
d="M100 0l307 1443h301l-136 -635h18l659 635h358l-670 -653l382 -790h-340l-293 606l-192 -182l-92 -424h-302z" />
    <glyph glyph-name="L" unicode="L" horiz-adv-x="1219" 
d="M1044 0h-944l307 1443h303l-253 -1180h641z" />
    <glyph glyph-name="M" unicode="M" horiz-adv-x="1879" 
d="M100 0l307 1443h347l188 -970h18l608 970h368l-307 -1443h-281l207 965h-16l-558 -882h-201l-175 882h-16l-207 -965h-282z" />
    <glyph glyph-name="N" unicode="N" horiz-adv-x="1573" 
d="M100 0l307 1443h231l479 -929h18l202 929h293l-307 -1443h-229l-483 922h-18l-200 -922h-293z" />
    <glyph glyph-name="O" unicode="O" horiz-adv-x="1617" 
d="M1283 820q0 188 -89 288.5t-235 100.5q-197 0 -332.5 -177.5t-135.5 -433.5q0 -164 89 -264.5t237 -100.5q197 0 295.5 128.5t134.5 240.5t36 218zM307 183q-126 127 -126 389q0 263 102.5 469t283 322.5t404.5 116.5q283 0 452.5 -173t169.5 -440q0 -397 -225 -650.5
t-578 -253.5q-127 0 -242 46.5t-241 173.5z" />
    <glyph glyph-name="P" unicode="P" horiz-adv-x="1368" 
d="M779 693q145 0 233 82t88 217q0 100 -63 151.5t-175 51.5h-202l-110 -502h229zM934 1443q214 0 343.5 -116t129.5 -306q0 -262 -172 -417.5t-452 -155.5h-282l-97 -448h-303l306 1443h527z" />
    <glyph glyph-name="Q" unicode="Q" horiz-adv-x="1617" 
d="M1286 845q0 168 -90 268t-236 100q-198 0 -335 -179t-137 -437q0 -168 91 -268.5t237 -100.5q49 0 90 10l-113 243h274l48 -84q171 165 171 448zM181 576q0 199 60.5 365t166.5 286t250.5 186.5t300.5 66.5q295 0 464.5 -173t169.5 -440q0 -371 -133 -535t-214 -222
l116 -251h-288l-63 130q-93 -26 -220 -26t-242.5 46.5t-241.5 173.5t-126 393z" />
    <glyph glyph-name="R" unicode="R" horiz-adv-x="1418" 
d="M827 755q132 0 213.5 70t81.5 172t-56 152t-157 50h-248l-98 -444h264zM978 1443q200 0 326 -114.5t126 -284.5t-96.5 -301t-260.5 -185l198 -558h-325l-172 523h-258l-112 -523h-304l307 1443h571z" />
    <glyph glyph-name="S" unicode="S" horiz-adv-x="1362" 
d="M973 401q0 88 -79 125.5t-137 55.5l-150 47q-335 105 -335 409q0 84 43 168t162.5 179t359.5 95t393 -125t159 -322h-285q-14 91 -89 146.5t-185 55.5q-109 0 -180 -50t-71 -118t45.5 -113t148.5 -77l148 -46q274 -86 315 -202.5t41 -206.5t-43.5 -178t-165.5 -184.5
t-380 -96.5t-412.5 119.5t-168.5 329.5h292q16 -92 99 -148t202 -56q122 0 197.5 52.5t75.5 140.5z" />
    <glyph glyph-name="T" unicode="T" horiz-adv-x="1349" 
d="M448 0l254 1185h-432l53 258h1168l-53 -258h-432l-254 -1185h-304z" />
    <glyph glyph-name="U" unicode="U" horiz-adv-x="1564" 
d="M362 95q-152 132 -152 338q0 67 13 126l187 884h305l-186 -877q-40 -184 48 -258t217 -74q195 0 255 106t75 173l198 930h304l-211 -997q-48 -228 -215.5 -355.5t-426.5 -127.5t-411 132z" />
    <glyph glyph-name="V" unicode="V" horiz-adv-x="1477" 
d="M486 0l-182 1443h321l101 -1101h18l554 1101h340l-787 -1443h-365z" />
    <glyph glyph-name="W" unicode="W" horiz-adv-x="2067" 
d="M681 0h-285l-76 1443h302l16 -1017h16l482 1017h245l59 -1017h16l445 1017h311l-685 -1443h-291l-70 955h-16z" />
    <glyph glyph-name="X" unicode="X" horiz-adv-x="1494" 
d="M642 744l-309 699h340l211 -494h18l399 494h338l-635 -732l322 -711h-333l-221 485h-18l-409 -485h-331z" />
    <glyph glyph-name="Y" unicode="Y" horiz-adv-x="1451" 
d="M500 0l114 531l-310 912h316l196 -607h18l447 607h330l-697 -924l-110 -519h-304z" />
    <glyph glyph-name="Z" unicode="Z" horiz-adv-x="1384" 
d="M103 204l915 963l2 18h-689l53 258h1076l-42 -203l-913 -964l-2 -18h724l-53 -258h-1113z" />
    <glyph glyph-name="bracketleft" unicode="[" horiz-adv-x="848" 
d="M999 1444l-46 -223h-294l-267 -1239h307l-46 -222h-587l358 1684h575z" />
    <glyph glyph-name="backslash" unicode="\" horiz-adv-x="771" 
d="M284 1443h267l32 -1731h-266z" />
    <glyph glyph-name="bracketright" unicode="]" horiz-adv-x="848" 
d="M530 -240h-581l45 223h301l267 1239h-300l46 222h580z" />
    <glyph glyph-name="asciicircum" unicode="^" horiz-adv-x="988" 
d="M422 823h-266l438 602h256l181 -602h-250l-89 373h-18z" />
    <glyph glyph-name="underscore" unicode="_" horiz-adv-x="945" 
d="M-146 -334l46 227h949l-46 -227h-949z" />
    <glyph glyph-name="grave" unicode="`" horiz-adv-x="1071" 
d="M743 1281l-250 353h303l212 -353h-265z" />
    <glyph glyph-name="a" unicode="a" horiz-adv-x="1202" 
d="M723 136q-105 -153 -323 -153q-128 0 -222.5 85.5t-94.5 215.5q0 167 129.5 265.5t361.5 106.5l274 9l15 68q5 25 5 40q0 57 -48.5 90.5t-133.5 33.5q-147 0 -192 -98h-275q36 152 168 240t326 88q195 0 318.5 -89t123.5 -236q0 -53 -9 -89l-151 -713h-283l29 136h-18z
M425.5 430q-56.5 -39 -56.5 -99t46 -94.5t129 -34.5t155 52t90 132l21 95l-228 -8q-100 -4 -156.5 -43z" />
    <glyph glyph-name="b" unicode="b" horiz-adv-x="1340" 
d="M692 230q56 0 113 32t123 120t66 261t-80 205t-136 32t-113.5 -33t-125 -122.5t-67.5 -259.5q0 -169 82 -202t138 -33zM1296 717q0 -173 -42.5 -304t-116.5 -226.5t-174.5 -149.5t-216.5 -54t-207.5 60t-119.5 157h-18l-43 -200h-283l324 1524h291l-122 -575l19 1
q116 171 332 171q166 0 271.5 -115.5t105.5 -288.5z" />
    <glyph glyph-name="c" unicode="c" horiz-adv-x="1208" 
d="M710 888q-54 0 -108.5 -33t-116 -121.5t-61.5 -269.5t82 -214t145 -33t122 40t84 116h279q-29 -172 -170 -284.5t-355 -112.5q-215 0 -346.5 126t-131.5 339q0 297 170 491.5t439 194.5q192 0 316.5 -106.5t137.5 -254.5q2 -10 2 -21v-22h-276q-6 116 -82 140.5
t-130 24.5z" />
    <glyph glyph-name="d" unicode="d" horiz-adv-x="1342" 
d="M889 379q67 90 67 259q0 170 -83 203t-139 33t-112.5 -31t-123.5 -117.5t-67 -262.5q0 -110 59.5 -175t161.5 -65q56 0 113 33t124 123zM129 413q0 305 161 506.5t398 201.5q181 0 240.5 -81t72.5 -125h18l130 609h292l-323 -1524h-283l32 153h-18q-124 -170 -338 -170
q-168 0 -275 116.5t-107 313.5z" />
    <glyph glyph-name="e" unicode="e" horiz-adv-x="1251" 
d="M925 716q0 75 -54.5 131t-149.5 56q-153 0 -208.5 -91t-69.5 -143h479q3 15 3 47zM642 203q163 0 218 114h280q-39 -155 -176 -248t-348 -93q-210 0 -345 127t-135 347q0 303 166 490t431 187q201 0 333 -126.5t132 -335.5q0 -72 -17 -180h-770l-1 -31
q0 -122 66.5 -186.5t165.5 -64.5z" />
    <glyph glyph-name="f" unicode="f" horiz-adv-x="836" 
d="M845 1299q-131 0 -156 -118l-18 -89h230l-47 -229h-224l-184 -863h-293l184 863h-174l47 229h171l25 126q31 157 130 227t273 70q91 0 182 -22l-42 -205q-36 11 -104 11z" />
    <glyph glyph-name="g" unicode="g" horiz-adv-x="1327" 
d="M649 237q56 0 112 30.5t122 115.5t66 256q0 107 -58 171t-139 64q-148 0 -234 -112.5t-86 -284.5q0 -171 80.5 -205.5t136.5 -34.5zM133 438q0 289 116 433.5t215.5 197t214.5 52.5q178 0 243 -81.5t80 -128.5h17l42 192h284l-246 -1147q-36 -174 -186 -273.5t-376 -99.5
q-227 0 -365.5 94t-138.5 240h290q5 -54 64 -88.5t168 -34.5t173.5 50t84.5 138l44 194l-18 1q-109 -155 -325 -155q-166 0 -273.5 115t-107.5 301z" />
    <glyph glyph-name="h" unicode="h" horiz-adv-x="1321" 
d="M1269 807q0 -58 -14 -131l-142 -676h-291l132 628q10 44 10 84q0 78 -54 124.5t-121 46.5q-117 0 -189.5 -63t-92.5 -161l-140 -659h-292l323 1515h292l-125 -578h18q117 187 343 187q155 0 249 -90.5t94 -226.5z" />
    <glyph glyph-name="i" unicode="i" horiz-adv-x="599" 
d="M399.5 1297q-47.5 40 -47.5 104t47 107t145 43t125 -56t27 -87t-12.5 -58.5t-48 -60t-112 -32.5t-124 40zM313 1103h293l-235 -1103h-293z" />
    <glyph glyph-name="j" unicode="j" horiz-adv-x="599" 
d="M399.5 1297q-47.5 40 -47.5 104t47 107t145 43t125 -56t27 -87t-12.5 -58.5t-48 -60t-112 -32.5t-124 40zM-58 -142q105 0 132 120l240 1125h291l-247 -1158q-33 -156 -138.5 -237t-270.5 -82q-53 0 -131 12l48 226q26 -6 76 -6z" />
    <glyph glyph-name="k" unicode="k" horiz-adv-x="1210" 
d="M979 1103h340l-529 -482l328 -621h-321l-242 457l-110 -94l-78 -363h-292l324 1524h291l-177 -834h18z" />
    <glyph glyph-name="l" unicode="l" horiz-adv-x="593" 
d="M399 1524h293l-324 -1524h-293z" />
    <glyph glyph-name="m" unicode="m" horiz-adv-x="1893" 
d="M1844 821q0 -62 -15 -132l-145 -689h-291l136 645q10 46 10 82q0 71 -42.5 113.5t-96.5 42.5q-94 0 -157.5 -57t-83.5 -155l-142 -671h-282l136 645q10 44 10 81q0 72 -42.5 114.5t-96.5 42.5q-93 0 -156.5 -57t-83.5 -151l-143 -675h-292l236 1112h282l-39 -182h18
q77 139 171.5 168t148.5 29q107 0 181 -57t98 -141h18q124 198 355 198q136 0 222 -87.5t86 -218.5z" />
    <glyph glyph-name="n" unicode="n" horiz-adv-x="1305" 
d="M923 1127q142 0 236 -90.5t94 -229.5q0 -58 -14 -131l-142 -676h-291l132 628q10 46 10 103.5t-52.5 104.5t-118.5 47q-114 0 -186 -63.5t-92 -160.5l-140 -659h-292l236 1112h282l-37 -175h18q118 190 357 190z" />
    <glyph glyph-name="o" unicode="o" horiz-adv-x="1298" 
d="M642 -24q-237 0 -372 133t-135 349q0 283 174 476t449 193q221 0 355.5 -133t134.5 -350q0 -281 -126 -421.5t-240.5 -193.5t-239.5 -53zM493 283.5q55 -68.5 163 -68.5t197.5 120.5t89.5 292.5q0 124 -53 192.5t-134 68.5t-137 -33t-118.5 -122t-62.5 -236
q0 -146 55 -214.5z" />
    <glyph glyph-name="p" unicode="p" horiz-adv-x="1334" 
d="M912 1121q167 0 272.5 -116t105.5 -288q0 -173 -42.5 -304t-117 -226.5t-176 -149.5t-218.5 -54q-180 0 -240 84.5t-73 132.5h-18l-118 -545h-292l309 1448h283l-33 -153h18q125 171 340 171zM686 230q56 0 113 32t123 120t66 261t-80 205t-136 32t-113.5 -33
t-125 -122.5t-67.5 -259.5q0 -169 82 -202t138 -33z" />
    <glyph glyph-name="q" unicode="q" horiz-adv-x="1336" 
d="M506 -17q-167 0 -272 117.5t-105 290.5t43 303t118 225t176.5 148.5t220.5 53.5t207.5 -58.5t117.5 -147.5h18l40 188h283l-308 -1448h-291l106 498h-17q-125 -170 -337 -170zM647 223q56 0 113.5 33t125 123.5t67.5 259.5t-82.5 202t-138.5 33t-112.5 -31.5
t-122.5 -118.5t-66 -262q0 -174 80 -206.5t136 -32.5z" />
    <glyph glyph-name="r" unicode="r" horiz-adv-x="908" 
d="M842 1121q89 0 141 -24l-57 -268q-73 30 -168 30q-218 0 -272 -251l-131 -608h-292l235 1103h283l-31 -152h18q93 170 274 170z" />
    <glyph glyph-name="s" unicode="s" horiz-adv-x="1150" 
d="M569 189q84 0 135.5 31.5t51.5 75.5t-24.5 69.5t-88.5 46.5l-172 60q-260 89 -260 284q0 175 126.5 273t328.5 98t325 -90t133 -238h-267q-11 53 -62 84t-109 31q-95 0 -144.5 -32t-49.5 -75q0 -44 29.5 -69.5t92.5 -46.5l179 -63q134 -47 194.5 -115.5t60.5 -162.5
q0 -174 -133 -274t-347 -100t-347 94.5t-139 247.5h281q12 -57 67 -93t139 -36z" />
    <glyph glyph-name="t" unicode="t" horiz-adv-x="846" 
d="M568 -14q-177 0 -267.5 60t-90.5 175q0 43 11 96l116 537h-175l47 230h175l56 267h293l-57 -267h235l-48 -230h-234l-104 -479q-8 -37 -8 -77q0 -85 152 -85q31 0 52 3l-46 -222q-46 -8 -107 -8z" />
    <glyph glyph-name="u" unicode="u" horiz-adv-x="1305" 
d="M445 401q0 -173 184 -173q152 0 202.5 89.5t61.5 141.5l137 644h292l-233 -1103h-283l36 167h-18q-50 -88 -138 -139.5t-184 -51.5q-172 0 -267.5 88t-95.5 234q0 60 15 141l139 664h293l-131 -616q-10 -42 -10 -86z" />
    <glyph glyph-name="v" unicode="v" horiz-adv-x="1184" 
d="M505 1103l63 -807h18l394 807h312l-611 -1103h-331l-139 1103h294z" />
    <glyph glyph-name="w" unicode="w" horiz-adv-x="1735" 
d="M1306 0h-312l-35 758h-18l-355 -758h-306l-60 1103h284l5 -787h18l355 787h283l25 -791h18l334 791h291z" />
    <glyph glyph-name="x" unicode="x" horiz-adv-x="1191" 
d="M588 354l-277 -354h-319l463 552l-231 551h318l129 -358h18l270 358h325l-466 -554l235 -549h-307l-140 354h-18z" />
    <glyph glyph-name="y" unicode="y" horiz-adv-x="1208" 
d="M134 -169q144 0 203 122l22 44l-144 1106h297l64 -822h18l405 822h312l-630 -1143q-108 -201 -232 -282t-318 -81q-37 0 -82 2.5t-50 2.5l46 235q24 -6 89 -6z" />
    <glyph glyph-name="z" unicode="z" horiz-adv-x="1160" 
d="M81 172l689 681l2 18h-532l49 232h898l-41 -192l-652 -661l-1 -18h519l-48 -232h-918z" />
    <glyph glyph-name="braceleft" unicode="{" horiz-adv-x="926" 
d="M580 444q0 -56 -9 -99l-57 -260q-11 -55 -11 -85q0 -66 42.5 -94t138.5 -28h45l-45 -216h-98q-171 0 -272 69.5t-101 187.5q0 57 15 128l48 218q12 57 12 107q0 100 -137 100l57 277q95 0 142.5 46.5t70.5 161.5l43 194q60 291 232.5 329t283.5 38h99l-45 -220h-45
q-168 0 -207 -74t-51 -131l-52 -237q-24 -113 -86.5 -170t-171.5 -67l-4 -18q78 -11 120.5 -56t42.5 -101z" />
    <glyph glyph-name="bar" unicode="|" horiz-adv-x="749" 
d="M104 -289l369 1732h267l-369 -1732h-267z" />
    <glyph glyph-name="braceright" unicode="}" horiz-adv-x="926" 
d="M447 753q0 37 9 82l57 259q11 52 11 85q0 67 -42.5 94.5t-138.5 27.5h-45l45 217h98q172 0 272.5 -70.5t100.5 -158t-15 -156.5l-48 -219q-12 -56 -12 -106q0 -100 137 -100l-57 -277q-95 0 -142 -46.5t-71 -161.5l-43 -194q-60 -291 -232.5 -329t-283.5 -38h-100l46 219
h45q168 0 207 74t51 131l52 237q24 114 86.5 170.5t171.5 67.5l4 18q-163 23 -163 174z" />
    <glyph glyph-name="asciitilde" unicode="~" horiz-adv-x="1225" 
d="M391 714q-93 0 -126 -159h-229q47 305 167.5 360.5t179.5 55.5t99 -17.5t72 -43.5t59 -56.5t68 -74t86 -43.5q95 0 126 160h230q-32 -208 -122.5 -312.5t-220.5 -104.5t-213 96t-114.5 117.5t-61.5 21.5z" />
    <glyph glyph-name="nonbreakingspace" unicode="&#xa0;" horiz-adv-x="528" 
 />
    <glyph glyph-name="exclamdown" unicode="&#xa1;" horiz-adv-x="729" 
d="M519 1152q62 0 111.5 -47.5t49.5 -101.5t-12.5 -86t-36 -55.5t-57 -37t-95.5 -13.5t-111.5 47.5t-49.5 118.5q0 119 69.5 147t131.5 28zM57 -322l233 969h267l-180 -969h-320z" />
    <glyph glyph-name="cent" unicode="&#xa2;" horiz-adv-x="1415" 
d="M261 623q0 110 39 229t149.5 260.5t354.5 167.5l36 169h242l-41 -192q124 -41 204.5 -141t80.5 -237h-276q-6 116 -82 140.5t-130 24.5t-109 -33t-116 -122.5t-61 -270.5t82 -215t145 -34t121.5 40t84.5 116h278q-27 -159 -150 -267.5t-311 -126.5l-38 -183h-242l43 208
q-141 44 -222.5 160t-81.5 307z" />
    <glyph glyph-name="sterling" unicode="&#xa3;" horiz-adv-x="1415" 
d="M478 1030q0 209 145 329.5t410 120.5q179 0 285.5 -32t135.5 -45l-50 -239q-76 43 -176 54.5t-158 11.5q-131 0 -213.5 -61t-82.5 -184q0 -55 9 -134h385l-43 -213h-326l1 -26q-5 -134 -69 -216t-171 -115l-3 -18h702l-53 -257h-1124l53 256q141 9 252 101.5t124 235.5
q0 16 -3 39h-310l43 213h255q-18 141 -18 179z" />
    <glyph glyph-name="currency" unicode="&#xa4;" horiz-adv-x="1415" 
d="M1199 627q0 -119 -81 -239l99 -125l-199 -169l-102 131q-80 -33 -168 -33q-149 0 -270 91l-218 -181l-133 174l214 178q-43 91 -43 213t81 242l-100 125l198 169l103 -131q80 33 168 33q151 0 270 -92l218 181l132 -174l-212 -177q43 -97 43 -216zM913 484q70 68 70 164
t-70 164.5t-165.5 68.5t-164.5 -69t-69 -164t69.5 -163.5t164.5 -68.5t165 68z" />
    <glyph glyph-name="yen" unicode="&#xa5;" horiz-adv-x="1415" 
d="M830 206l-44 -206h-304l45 206h-272l36 169h271l29 133h-272l36 169h196l-265 766h316l196 -607h18l447 607h330l-581 -766h187l-36 -169h-269l-29 -133h270l-36 -169h-269z" />
    <glyph glyph-name="brokenbar" unicode="&#xa6;" horiz-adv-x="749" 
d="M104 -289l142 669h267l-142 -669h-267zM331 773l142 670h267l-142 -670h-267z" />
    <glyph glyph-name="section" unicode="&#xa7;" horiz-adv-x="1032" 
d="M141 -193.5q-122 94.5 -126 247.5h252q13 -89 78 -110t103 -21q75 0 124.5 36t49.5 82t-22.5 76.5t-79.5 53.5l-167 80q-230 106 -230 292q0 166 104 221.5t165 68.5l2 19q-81 56 -113.5 109t-32.5 129q0 152 121 248t306 96t298 -92.5t125 -248.5h-249q-7 60 -54 94.5
t-101 34.5q-90 0 -136 -35t-46 -87q0 -74 110 -121l152 -77q118 -56 178 -126t60 -172t-71.5 -183t-193.5 -107l-2 -16q113 -78 127.5 -139t14.5 -118t-33 -121t-125.5 -136t-278.5 -72q-187 0 -309 94.5zM753 550q0 94 -106 140l-104 52q-111 -23 -135.5 -73t-24.5 -83
q0 -75 114 -127l106 -53q67 17 108.5 58t41.5 86z" />
    <glyph glyph-name="dieresis" unicode="&#xa8;" horiz-adv-x="1071" 
d="M996 1267q-34 0 -62.5 11.5t-49.5 31.5t-32.5 48t-11.5 77.5t44 92t94 42.5q51 0 79.5 -11t49.5 -31.5t32.5 -48t11.5 -60.5t-11.5 -61t-32.5 -48t-49 -31.5t-62 -11.5zM528 1267q-34 0 -62.5 11.5t-49.5 31.5t-32.5 48t-11.5 77.5t44 92t112 42.5t111.5 -42.5t43.5 -92
t-11.5 -77.5t-32.5 -48t-49 -31.5t-62 -11.5z" />
    <glyph glyph-name="copyright" unicode="&#xa9;" horiz-adv-x="1743" 
d="M998 892q-99 0 -159.5 -84t-60.5 -189q0 -198 149 -198q109 0 151 95h193q-30 -119 -124 -188t-235 -69q-142 0 -233.5 93.5t-91.5 245.5q0 196 116.5 325.5t293.5 129.5q144 0 234 -82.5t86 -211.5h-187q-1 61 -39.5 97t-92.5 36zM897 26q110 0 195.5 24t198.5 90
t203.5 220t90.5 335q0 253 -169 418.5t-425 165.5q-180 0 -334.5 -89.5t-245.5 -243.5t-91 -335q0 -250 124.5 -373t233.5 -167.5t219 -44.5zM912 -135q-112 0 -209 25.5t-223 97t-225.5 240t-99.5 387.5t112 410t305.5 303t426.5 112q161 0 298.5 -56t238.5 -154.5
t158 -233t57 -272.5t-29.5 -245.5t-84 -200.5t-131.5 -169.5t-171 -130.5t-202.5 -83.5t-220.5 -29.5z" />
    <glyph glyph-name="ordfeminine" unicode="&#xaa;" horiz-adv-x="1030" 
d="M690 1259q-110 0 -143 -73h-252q35 135 139.5 206.5t272.5 71.5t275 -78.5t107 -207.5q0 -40 -7 -72l-126 -590h-257l21 104l-17 1q-40 -56 -104.5 -87t-132.5 -31q-129 0 -207.5 72t-78.5 200t104.5 209t291.5 85l233 5q1 4 3 15t9 36t5 37q1 45 -36 71t-100 26z
M443 801q0 -48 35.5 -75.5t81.5 -27.5q81 0 133.5 40t66.5 105l16 74l-167 -5q-78 -3 -122 -33t-44 -78z" />
    <glyph glyph-name="guillemotleft" unicode="&#xab;" horiz-adv-x="1447" 
d="M468 556l-2 -11l247 -394h-264l-261 411l2 8l417 411h298zM974 550l-2 -10l252 -389h-264l-261 411l2 8l427 411h288z" />
    <glyph glyph-name="logicalnot" unicode="&#xac;" horiz-adv-x="1415" 
d="M1169 59h-255l84 396h-790l53 258h1045z" />
    <glyph glyph-name="registered" unicode="&#xae;" horiz-adv-x="1261" 
d="M1031 1181.5q-112 110.5 -281 110.5t-285 -114.5t-116 -283.5t111.5 -280.5t280.5 -111.5t285.5 115.5t116.5 284.5t-112 279.5zM370.5 1269q154.5 153 379.5 153t375.5 -149t150.5 -372t-154.5 -376t-379.5 -153t-375.5 149t-150.5 372t154.5 376zM860 993q0 54 -66 54
h-99l-26 -122h103q88 0 88 68zM839 1151q67 0 112 -43t45 -104q0 -62 -38 -105t-99 -58l84 -177h-144l-75 165h-76l-35 -165h-125l103 487h248z" />
    <glyph glyph-name="macron" unicode="&#xaf;" horiz-adv-x="1071" 
d="M372 1316l38 180h735l-38 -180h-735z" />
    <glyph glyph-name="degree" unicode="&#xb0;" horiz-adv-x="806" 
d="M578 1046q28 0 52.5 10.5t43 28.5t29 42t10.5 65t-40 79.5t-81 38.5t-65.5 -10.5t-42.5 -28.5t-29 -42t-11 -51t11 -51t29 -42t42 -28.5t52 -10.5zM578 874q-63 0 -117.5 24t-95.5 65t-64.5 96.5t-23.5 118.5t23.5 118t64.5 96t95.5 65t117.5 24t118 -24t96 -65t64.5 -96
t23.5 -118t-23.5 -118.5t-64.5 -96.5t-96 -65t-118 -24z" />
    <glyph glyph-name="plusminus" unicode="&#xb1;" horiz-adv-x="1415" 
d="M846 416h-252l51 234h-373l46 224h373l52 234h251l-51 -234h374l-46 -224h-374zM149 71l46 225h997l-46 -225h-997z" />
    <glyph glyph-name="two.sups" unicode="&#xb2;" horiz-adv-x="917" 
d="M973.5 1774.5q94.5 -75.5 94.5 -194.5q0 -85 -55.5 -158.5t-194.5 -172.5q-9 -6 -81 -57.5t-111 -74.5l-2 -12h360l-43 -209h-720l40 192l322 233q131 94 177.5 142t46.5 90q0 43 -28.5 67t-76.5 24t-83.5 -31t-46.5 -85v-1h-241q8 140 120.5 231.5t270.5 91.5
q157 0 251.5 -75.5z" />
    <glyph glyph-name="three.sups" unicode="&#xb3;" horiz-adv-x="944" 
d="M716 1650q-95 0 -125 -84h-241q26 131 131.5 207.5t255.5 76.5t247 -71.5t97 -171.5t-64.5 -164.5t-159.5 -70.5l-1 -13q79 -18 121 -68.5t42 -120.5q0 -136 -108.5 -218t-282.5 -82t-281 95t-89 236h249q-4 -51 30 -83t92 -32t93.5 30t35.5 74t-33 70t-84 26h-99l37 178
h113q59 0 96 28t37 70t-30 65t-79 23z" />
    <glyph glyph-name="acute" unicode="&#xb4;" horiz-adv-x="1071" 
d="M776 1634h310l-361 -353h-272z" />
    <glyph glyph-name="paragraph" unicode="&#xb6;" horiz-adv-x="1538" 
d="M1348 1443h280l-361 -1702h-280zM288 898q0 104 43 205.5t165 216t394 122.5l290 1l-362 -1702h-280l155 719q-185 18 -295 134t-110 304z" />
    <glyph glyph-name="periodcentered" unicode="&#xb7;" horiz-adv-x="723" 
d="M423 555q-62 0 -112.5 49t-50.5 124q0 126 70.5 155t133 29t112 -49.5t49.5 -123.5q0 -126 -70 -155t-132 -29z" />
    <glyph glyph-name="cedilla" unicode="&#xb8;" horiz-adv-x="1071" 
d="M417 -292q0 60 -116 60h-57l17 116l96 146h184l-96 -147q159 -26 159 -164q0 -95 -72 -153.5t-186 -58.5t-191 36l28 133q59 -27 146 -27q88 -1 88 59z" />
    <glyph glyph-name="one.sups" unicode="&#xb9;" horiz-adv-x="759" 
d="M577 1576h-13l-251 -145l49 238l266 155h268l-197 -928h-268z" />
    <glyph glyph-name="ordmasculine" unicode="&#xba;" horiz-adv-x="1106" 
d="M643 486q-203 0 -315.5 114.5t-112.5 312.5q0 241 149 399t360 158t322 -115t111 -316q0 -241 -108.5 -355.5t-204.5 -156t-201 -41.5zM738 1250q-110 0 -178.5 -98.5t-68.5 -217.5q0 -227 156 -227q98 0 166 99.5t68 217.5q0 117 -41.5 171.5t-101.5 54.5z" />
    <glyph glyph-name="guillemotright" unicode="&#xbb;" horiz-adv-x="1448" 
d="M827 981h264l261 -411l-2 -8l-417 -411h-298l437 425l2 10zM314 981h264l262 -411l-2 -8l-427 -411h-288l441 430l2 11z" />
    <glyph glyph-name="onequarter" unicode="&#xbc;" horiz-adv-x="2292" 
d="M1088 756l455 687h276l-556 -749l-450 -694h-277zM595 1195h-13l-251 -145l49 238l266 155h268l-197 -928h-268zM1602 337h239l87 402h-13q-164 -190 -310 -390zM1792 136h-459l45 239q150 207 452 553h382l-124 -581h111l-44 -211h-111l-29 -136h-252z" />
    <glyph glyph-name="onehalf" unicode="&#xbd;" horiz-adv-x="2287" 
d="M1088 756l455 687h276l-556 -749l-450 -694h-277zM595 1195h-13l-251 -145l49 238l266 155h268l-197 -928h-268zM2156.5 878.5q94.5 -75.5 94.5 -194.5q0 -85 -55.5 -158.5t-194.5 -172.5q-9 -6 -81 -57.5t-111 -74.5l-2 -12h360l-43 -209h-720l40 192l322 233
q131 94 177.5 142t46.5 90q0 43 -28 67t-76 24t-84 -31t-47 -85v-1h-241q8 140 120.5 231.5t270.5 91.5q157 0 251.5 -75.5z" />
    <glyph glyph-name="threequarters" unicode="&#xbe;" horiz-adv-x="2426" 
d="M1221 756l455 687h276l-556 -749l-450 -694h-277zM1735 337h239l87 402h-13q-164 -190 -310 -390zM1925 136h-459l45 239q150 207 452 553h382l-124 -581h111l-44 -211h-111l-29 -136h-252zM690 1269q-95 0 -125 -84h-241q26 131 131.5 207.5t255.5 76.5t247 -71.5
t97 -171.5t-64.5 -164.5t-159.5 -70.5l-1 -13q79 -18 121 -68t42 -120q0 -136 -108.5 -218.5t-282.5 -82.5t-281 95t-89 236h249q-4 -51 30 -83t92 -32t93.5 30.5t35.5 74.5t-33 69.5t-84 25.5h-99l37 178h113q59 0 96 27.5t37 69.5t-30 65.5t-79 23.5z" />
    <glyph glyph-name="questiondown" unicode="&#xbf;" horiz-adv-x="1140" 
d="M159 -233q-129 101 -129 259q0 193 108 279.5t170 114.5q118 53 164 95.5t60 112.5l9 43h270l-12 -63q-22 -132 -78 -202.5t-173 -120.5q-175 -80 -197 -140.5t-22 -92.5q0 -64 48.5 -105t130.5 -41t139 43.5t78 119.5h273q-27 -182 -161 -292.5t-341 -110.5
q-208 0 -337 101zM736 1152q82 0 133.5 -45.5t51.5 -120.5t-52 -126t-132 -51q-81 0 -133 46t-52 119t51 125.5t133 52.5z" />
    <glyph glyph-name="Agrave" unicode="&#xc0;" horiz-adv-x="1501" 
d="M1159 1590h-266l-217 318h306zM612 577h381l-58 565h-19zM1007 344h-509l-186 -344h-315l820 1443h349l187 -1443h-311z" />
    <glyph glyph-name="Aacute" unicode="&#xc1;" horiz-adv-x="1501" 
d="M1218 1908h315l-381 -318h-277zM612 577h381l-58 565h-19zM1007 344h-509l-186 -344h-315l820 1443h349l187 -1443h-311z" />
    <glyph glyph-name="Acircumflex" unicode="&#xc2;" horiz-adv-x="1501" 
d="M1413 1590h-249l-92 191h-18l-172 -191h-275l328 335h291zM612 577h381l-58 565h-19zM1007 344h-509l-186 -344h-315l820 1443h349l187 -1443h-311z" />
    <glyph glyph-name="Atilde" unicode="&#xc3;" horiz-adv-x="1501" 
d="M1202 1751q83 0 98 104h181q-18 -128 -91 -202.5t-171 -74.5q-97 0 -159.5 49.5t-91 72t-61.5 22.5q-82 0 -97 -104h-181q27 197 122.5 237t151.5 40t99 -22.5t76.5 -49.5t62.5 -49.5t61 -22.5zM612 577h381l-58 565h-19zM1007 344h-509l-186 -344h-315l820 1443h349
l187 -1443h-311z" />
    <glyph glyph-name="Adieresis" unicode="&#xc4;" horiz-adv-x="1501" 
d="M1286 1579q-34 0 -62 11.5t-49 31.5t-32.5 48t-11.5 77.5t44 92t94 42.5q51 0 79.5 -11t49.5 -31.5t32.5 -48t11.5 -60.5t-11.5 -61t-32.5 -48t-49.5 -31.5t-62.5 -11.5zM818 1579q-34 0 -62 11.5t-49 31.5t-32.5 48t-11.5 77.5t43.5 92t111.5 42.5t112 -42.5t44 -92
t-11.5 -77.5t-32.5 -48t-49.5 -31.5t-62.5 -11.5zM612 577h381l-58 565h-19zM1007 344h-509l-186 -344h-315l820 1443h349l187 -1443h-311z" />
    <glyph glyph-name="Aring" unicode="&#xc5;" horiz-adv-x="1501" 
d="M1072 1714q46 0 75.5 29.5t29.5 74.5t-30 74t-76 29t-75.5 -28.5t-29.5 -74.5t30 -75t76 -29zM826 1819q0 104 71 171t175 67q105 0 175 -67t70 -171t-69.5 -172.5t-175.5 -68.5t-176 68.5t-70 172.5zM612 577h381l-58 565h-19zM1007 344h-509l-186 -344h-315l820 1443
h349l187 -1443h-311z" />
    <glyph glyph-name="AE" unicode="&#xc6;" horiz-adv-x="2059" 
d="M1002 364h-465l-234 -364h-307l903 1443h1259l-54 -258h-650l-75 -341h614l-50 -239h-613l-77 -347h650l-52 -258h-929zM1050 1202l-379 -604h379l130 604h-130z" />
    <glyph glyph-name="Ccedilla" unicode="&#xc7;" horiz-adv-x="1534" 
d="M782 -294q0 60 -116 59h-57l17 116l58 88q-232 28 -368 189t-136 410q0 400 165 588.5t310 256t293 67.5q273 0 440 -145.5t167 -359.5v-16q0 -16 -2 -27h-294v14q-6 120 -89 193t-199 73q-214 0 -348 -179t-134 -444q0 -166 85 -262.5t230 -96.5q191 0 262.5 90.5
t89.5 143.5h299q-44 -210 -201.5 -341.5t-386.5 -155.5l-57 -87q159 -26 159 -164q0 -95 -72 -153.5t-186 -58.5t-191 36l28 133q59 -27 146 -27q88 0 88 60z" />
    <glyph glyph-name="Egrave" unicode="&#xc8;" horiz-adv-x="1274" 
d="M1057 0h-957l307 1443h956l-53 -258h-652l-75 -337h616l-50 -239h-615l-78 -351h653zM1053 1590h-266l-217 318h306z" />
    <glyph glyph-name="Eacute" unicode="&#xc9;" horiz-adv-x="1274" 
d="M1057 0h-957l307 1443h956l-53 -258h-652l-75 -337h616l-50 -239h-615l-78 -351h653zM1112 1908h315l-381 -318h-277z" />
    <glyph glyph-name="Ecircumflex" unicode="&#xca;" horiz-adv-x="1274" 
d="M1057 0h-957l307 1443h956l-53 -258h-652l-75 -337h616l-50 -239h-615l-78 -351h653zM1307 1590h-249l-92 191h-18l-172 -191h-275l328 335h291z" />
    <glyph glyph-name="Edieresis" unicode="&#xcb;" horiz-adv-x="1274" 
d="M1057 0h-957l307 1443h956l-53 -258h-652l-75 -337h616l-50 -239h-615l-78 -351h653zM1180 1579q-34 0 -62 11.5t-49 31.5t-32.5 48t-11.5 77.5t44 92t94 42.5q51 0 79.5 -11t49.5 -31.5t32.5 -48t11.5 -60.5t-11.5 -61t-32.5 -48t-49.5 -31.5t-62.5 -11.5zM712 1579
q-34 0 -62 11.5t-49 31.5t-32.5 48t-11.5 77.5t43.5 92t111.5 42.5t112 -42.5t44 -92t-11.5 -77.5t-32.5 -48t-49.5 -31.5t-62.5 -11.5z" />
    <glyph glyph-name="Igrave" unicode="&#xcc;" horiz-adv-x="653" 
d="M727 1590h-266l-217 318h306zM100 0l307 1443h304l-307 -1443h-304z" />
    <glyph glyph-name="Iacute" unicode="&#xcd;" horiz-adv-x="653" 
d="M786 1908h315l-381 -318h-277zM100 0l307 1443h304l-307 -1443h-304z" />
    <glyph glyph-name="Icircumflex" unicode="&#xce;" horiz-adv-x="653" 
d="M981 1590h-249l-92 191h-18l-172 -191h-275l328 335h291zM100 0l307 1443h304l-307 -1443h-304z" />
    <glyph glyph-name="Idieresis" unicode="&#xcf;" horiz-adv-x="653" 
d="M854 1579q-34 0 -62 11.5t-49 31.5t-32.5 48t-11.5 77.5t44 92t94 42.5q51 0 79.5 -11t49.5 -31.5t32.5 -48t11.5 -60.5t-11.5 -61t-32.5 -48t-49.5 -31.5t-62.5 -11.5zM386 1579q-34 0 -62 11.5t-49 31.5t-32.5 48t-11.5 77.5t43.5 92t111.5 42.5t112 -42.5t44 -92
t-11.5 -77.5t-32.5 -48t-49.5 -31.5t-62.5 -11.5zM100 0l307 1443h304l-307 -1443h-304z" />
    <glyph glyph-name="Eth" unicode="&#xd0;" horiz-adv-x="1516" 
d="M918 1443q276 0 433.5 -155.5t157.5 -431.5q0 -371 -174 -570t-322 -242.5t-257 -43.5h-655l131 618h-174l47 227h175l127 598h511zM729 257q206 0 337.5 156.5t131.5 408.5q0 170 -92 267.5t-255 97.5h-191l-74 -342h174l-47 -227h-176l-78 -361h270z" />
    <glyph glyph-name="Ntilde" unicode="&#xd1;" horiz-adv-x="1573" 
d="M100 0l307 1443h231l479 -929h18l202 929h293l-307 -1443h-229l-483 922h-18l-200 -922h-293zM1211 1751q83 0 98 104h181q-18 -128 -91 -202.5t-171 -74.5q-97 0 -159.5 49.5t-91 72t-61.5 22.5q-82 0 -97 -104h-181q27 197 122.5 237t151.5 40t99 -22.5t76.5 -49.5
t62.5 -49.5t61 -22.5z" />
    <glyph glyph-name="Ograve" unicode="&#xd2;" horiz-adv-x="1617" 
d="M1283 820q0 188 -89 288.5t-235 100.5q-197 0 -332.5 -177.5t-135.5 -433.5q0 -164 89 -264.5t237 -100.5q197 0 295.5 128.5t134.5 240.5t36 218zM307 183q-126 127 -126 389q0 263 102.5 469t283 322.5t404.5 116.5q283 0 452.5 -173t169.5 -440q0 -397 -225 -650.5
t-578 -253.5q-127 0 -242 46.5t-241 173.5zM1140 1589h-266l-217 318h306z" />
    <glyph glyph-name="Oacute" unicode="&#xd3;" horiz-adv-x="1617" 
d="M1283 820q0 188 -89 288.5t-235 100.5q-197 0 -332.5 -177.5t-135.5 -433.5q0 -164 89 -264.5t237 -100.5q197 0 295.5 128.5t134.5 240.5t36 218zM307 183q-126 127 -126 389q0 263 102.5 469t283 322.5t404.5 116.5q283 0 452.5 -173t169.5 -440q0 -397 -225 -650.5
t-578 -253.5q-127 0 -242 46.5t-241 173.5zM1199 1907h315l-381 -318h-277z" />
    <glyph glyph-name="Ocircumflex" unicode="&#xd4;" horiz-adv-x="1617" 
d="M1283 820q0 188 -89 288.5t-235 100.5q-197 0 -332.5 -177.5t-135.5 -433.5q0 -164 89 -264.5t237 -100.5q197 0 295.5 128.5t134.5 240.5t36 218zM307 183q-126 127 -126 389q0 263 102.5 469t283 322.5t404.5 116.5q283 0 452.5 -173t169.5 -440q0 -397 -225 -650.5
t-578 -253.5q-127 0 -242 46.5t-241 173.5zM1394 1589h-249l-92 191h-18l-172 -191h-275l328 335h291z" />
    <glyph glyph-name="Otilde" unicode="&#xd5;" horiz-adv-x="1617" 
d="M1183 1750q83 0 98 104h181q-18 -128 -91 -202.5t-171 -74.5q-97 0 -159.5 49.5t-91 72t-61.5 22.5q-82 0 -97 -104h-181q27 197 122.5 237t151.5 40t99 -22.5t76.5 -49.5t62.5 -49.5t61 -22.5zM1283 820q0 188 -89 288.5t-235 100.5q-197 0 -332.5 -177.5t-135.5 -433.5
q0 -164 89 -264.5t237 -100.5q197 0 295.5 128.5t134.5 240.5t36 218zM307 183q-126 127 -126 389q0 263 102.5 469t283 322.5t404.5 116.5q283 0 452.5 -173t169.5 -440q0 -397 -225 -650.5t-578 -253.5q-127 0 -242 46.5t-241 173.5z" />
    <glyph glyph-name="Odieresis" unicode="&#xd6;" horiz-adv-x="1617" 
d="M1283 820q0 188 -89 288.5t-235 100.5q-197 0 -332.5 -177.5t-135.5 -433.5q0 -164 89 -264.5t237 -100.5q197 0 295.5 128.5t134.5 240.5t36 218zM307 183q-126 127 -126 389q0 263 102.5 469t283 322.5t404.5 116.5q283 0 452.5 -173t169.5 -440q0 -397 -225 -650.5
t-578 -253.5q-127 0 -242 46.5t-241 173.5zM1268 1578q-34 0 -62.5 11.5t-49.5 31.5t-32.5 48t-11.5 77.5t44 92t94 42.5q51 0 79.5 -11t49.5 -31.5t32.5 -48t11.5 -60.5t-11.5 -61t-32.5 -48t-49 -31.5t-62 -11.5zM800 1578q-34 0 -62.5 11.5t-49.5 31.5t-32.5 48
t-11.5 77.5t44 92t112 42.5t111.5 -42.5t43.5 -92t-11.5 -77.5t-32.5 -48t-49 -31.5t-62 -11.5z" />
    <glyph glyph-name="multiply" unicode="&#xd7;" horiz-adv-x="1415" 
d="M724 397l-359 -279l-144 205l359 280l-233 319l211 156l228 -309l361 279l144 -206l-360 -280l235 -324l-211 -156z" />
    <glyph glyph-name="Oslash" unicode="&#xd8;" horiz-adv-x="1592" 
d="M1593 867q0 -397 -225 -650.5t-588 -253.5q-137 0 -272 64l-63 -95l-102 66l62 93q-107 83 -165.5 208t-58.5 267t27.5 261t102.5 269.5t255.5 267t404.5 116.5q170 0 308 -69l64 96l108 -59l-69 -104q211 -172 211 -477zM954 1209q-94 0 -179 -47t-184.5 -177.5
t-99.5 -386.5q0 -155 81 -255l547 826q-71 40 -165 40zM825 233q90 0 175 46.5t184 175.5t99 389q0 145 -71 243l-545 -820q68 -34 158 -34z" />
    <glyph glyph-name="Ugrave" unicode="&#xd9;" horiz-adv-x="1564" 
d="M362 95q-152 132 -152 338q0 67 13 126l187 884h305l-186 -877q-40 -184 48 -258t217 -74q195 0 255 106t75 173l198 930h304l-211 -997q-48 -228 -215.5 -355.5t-426.5 -127.5t-411 132zM1182 1590h-266l-217 318h306z" />
    <glyph glyph-name="Uacute" unicode="&#xda;" horiz-adv-x="1564" 
d="M362 95q-152 132 -152 338q0 67 13 126l187 884h305l-186 -877q-40 -184 48 -258t217 -74q195 0 255 106t75 173l198 930h304l-211 -997q-48 -228 -215.5 -355.5t-426.5 -127.5t-411 132zM1241 1908h315l-381 -318h-277z" />
    <glyph glyph-name="Ucircumflex" unicode="&#xdb;" horiz-adv-x="1564" 
d="M362 95q-152 132 -152 338q0 67 13 126l187 884h305l-186 -877q-40 -184 48 -258t217 -74q195 0 255 106t75 173l198 930h304l-211 -997q-48 -228 -215.5 -355.5t-426.5 -127.5t-411 132zM1436 1590h-249l-92 191h-18l-172 -191h-275l328 335h291z" />
    <glyph glyph-name="Udieresis" unicode="&#xdc;" horiz-adv-x="1564" 
d="M362 95q-152 132 -152 338q0 67 13 126l187 884h305l-186 -877q-40 -184 48 -258t217 -74q195 0 255 106t75 173l198 930h304l-211 -997q-48 -228 -215.5 -355.5t-426.5 -127.5t-411 132zM1310 1579q-34 0 -62.5 11.5t-49.5 31.5t-32.5 48t-11.5 77.5t44 92t94 42.5
q51 0 79.5 -11t49.5 -31.5t32.5 -48t11.5 -60.5t-11.5 -61t-32.5 -48t-49 -31.5t-62 -11.5zM842 1579q-34 0 -62.5 11.5t-49.5 31.5t-32.5 48t-11.5 77.5t44 92t112 42.5t111.5 -42.5t43.5 -92t-11.5 -77.5t-32.5 -48t-49 -31.5t-62 -11.5z" />
    <glyph glyph-name="Yacute" unicode="&#xdd;" horiz-adv-x="1451" 
d="M1182 1908h315l-381 -318h-277zM500 0l114 531l-310 912h316l196 -607h18l447 607h330l-697 -924l-110 -519h-304z" />
    <glyph glyph-name="Thorn" unicode="&#xde;" horiz-adv-x="1382" 
d="M752 536q217 0 260.5 94t43.5 166t-55.5 119.5t-165.5 47.5h-228l-92 -427h237zM930 1211q189 0 309.5 -112.5t120.5 -284.5q0 -225 -162.5 -374.5t-418.5 -149.5h-314l-63 -290h-301l307 1443h302l-50 -232h270z" />
    <glyph glyph-name="germandbls" unicode="&#xdf;" horiz-adv-x="1405" 
d="M751 223q128 0 199.5 58.5t71.5 145.5q0 86 -67.5 130t-183.5 44h-75l50 245h75q91 0 155.5 53.5t64.5 131.5t-55 125.5t-145 47.5t-151.5 -56t-84.5 -162l-211 -986h-291l234 1088q36 167 174 264t345 97t341.5 -104t134.5 -267q0 -131 -85.5 -226t-216.5 -115l-4 -19
q135 -24 211 -102t76 -188q0 -208 -141 -326.5t-366 -118.5q-145 0 -252 40l50 234q73 -34 147 -34z" />
    <glyph glyph-name="agrave" unicode="&#xe0;" horiz-adv-x="1202" 
d="M640 1281l-250 353h303l212 -353h-265zM723 136q-105 -153 -323 -153q-128 0 -222.5 85.5t-94.5 215.5q0 167 129.5 265.5t361.5 106.5l274 9l15 68q5 25 5 40q0 57 -48.5 90.5t-133.5 33.5q-147 0 -192 -98h-275q36 152 168 240t326 88q195 0 318.5 -89t123.5 -236
q0 -53 -9 -89l-151 -713h-283l29 136h-18zM425.5 430q-56.5 -39 -56.5 -99t46 -94.5t129 -34.5t155 52t90 132l21 95l-228 -8q-100 -4 -156.5 -43z" />
    <glyph glyph-name="aacute" unicode="&#xe1;" horiz-adv-x="1202" 
d="M952 1634h310l-361 -353h-272zM723 136q-105 -153 -323 -153q-128 0 -222.5 85.5t-94.5 215.5q0 167 129.5 265.5t361.5 106.5l274 9l15 68q5 25 5 40q0 57 -48.5 90.5t-133.5 33.5q-147 0 -192 -98h-275q36 152 168 240t326 88q195 0 318.5 -89t123.5 -236q0 -53 -9 -89
l-151 -713h-283l29 136h-18zM425.5 430q-56.5 -39 -56.5 -99t46 -94.5t129 -34.5t155 52t90 132l21 95l-228 -8q-100 -4 -156.5 -43z" />
    <glyph glyph-name="acircumflex" unicode="&#xe2;" horiz-adv-x="1202" 
d="M1158 1251h-250l-104 209h-18l-193 -209h-276l350 354h291zM723 136q-105 -153 -323 -153q-128 0 -222.5 85.5t-94.5 215.5q0 167 129.5 265.5t361.5 106.5l274 9l15 68q5 25 5 40q0 57 -48.5 90.5t-133.5 33.5q-147 0 -192 -98h-275q36 152 168 240t326 88
q195 0 318.5 -89t123.5 -236q0 -53 -9 -89l-151 -713h-283l29 136h-18zM425.5 430q-56.5 -39 -56.5 -99t46 -94.5t129 -34.5t155 52t90 132l21 95l-228 -8q-100 -4 -156.5 -43z" />
    <glyph glyph-name="atilde" unicode="&#xe3;" horiz-adv-x="1202" 
d="M942 1420q76 0 95 124h184q-16 -136 -90.5 -216.5t-176.5 -80.5t-169.5 67.5t-91 82t-46.5 14.5q-75 0 -94 -124h-184q16 136 90.5 216.5t175.5 80.5q102 0 169.5 -67.5t91 -82t46.5 -14.5zM723 136q-105 -153 -323 -153q-128 0 -222.5 85.5t-94.5 215.5
q0 167 129.5 265.5t361.5 106.5l274 9l15 68q5 25 5 40q0 57 -48.5 90.5t-133.5 33.5q-147 0 -192 -98h-275q36 152 168 240t326 88q195 0 318.5 -89t123.5 -236q0 -53 -9 -89l-151 -713h-283l29 136h-18zM425.5 430q-56.5 -39 -56.5 -99t46 -94.5t129 -34.5t155 52t90 132
l21 95l-228 -8q-100 -4 -156.5 -43z" />
    <glyph glyph-name="adieresis" unicode="&#xe4;" horiz-adv-x="1202" 
d="M1016 1251q-34 0 -62.5 11.5t-49.5 31.5t-32.5 48t-11.5 77.5t44 92t94 42.5q51 0 79.5 -11t49.5 -31.5t32.5 -48t11.5 -60.5t-11.5 -61t-32.5 -48t-49 -31.5t-62 -11.5zM548 1251q-34 0 -62.5 11.5t-49.5 31.5t-32.5 48t-11.5 77.5t44 92t112 42.5t111.5 -42.5t43.5 -92
t-11.5 -77.5t-32.5 -48t-49 -31.5t-62 -11.5zM723 136q-105 -153 -323 -153q-128 0 -222.5 85.5t-94.5 215.5q0 167 129.5 265.5t361.5 106.5l274 9l15 68q5 25 5 40q0 57 -48.5 90.5t-133.5 33.5q-147 0 -192 -98h-275q36 152 168 240t326 88q195 0 318.5 -89t123.5 -236
q0 -53 -9 -89l-151 -713h-283l29 136h-18zM425.5 430q-56.5 -39 -56.5 -99t46 -94.5t129 -34.5t155 52t90 132l21 95l-228 -8q-100 -4 -156.5 -43z" />
    <glyph glyph-name="aring" unicode="&#xe5;" horiz-adv-x="1202" 
d="M836 1387q46 0 76 29.5t30 74.5t-30 74t-76 29t-75.5 -29t-29.5 -75t29.5 -74.5t75.5 -28.5zM836 1251q-106 0 -175.5 68.5t-69.5 172.5t70.5 171t174.5 67q105 0 175.5 -67t70.5 -171t-70 -172.5t-176 -68.5zM723 136q-105 -153 -323 -153q-128 0 -222.5 85.5
t-94.5 215.5q0 167 129.5 265.5t361.5 106.5l274 9l15 68q5 25 5 40q0 57 -48.5 90.5t-133.5 33.5q-147 0 -192 -98h-275q36 152 168 240t326 88q195 0 318.5 -89t123.5 -236q0 -53 -9 -89l-151 -713h-283l29 136h-18zM425.5 430q-56.5 -39 -56.5 -99t46 -94.5t129 -34.5
t155 52t90 132l21 95l-228 -8q-100 -4 -156.5 -43z" />
    <glyph glyph-name="ae" unicode="&#xe6;" horiz-adv-x="1925" 
d="M427 430q-57 -39 -57 -100t46.5 -98t106.5 -37q104 0 177 54.5t91 136.5l21 95l-228 -8q-100 -4 -157 -43zM1600 712q0 81 -55 136t-148 55q-154 0 -209.5 -91t-69.5 -143h479q3 7 3 43zM468 -24q-162 0 -272.5 89.5t-110.5 222.5q0 263 186.5 317t304.5 58l274 9l15 61
q2 13 3.5 21t1.5 19q0 57 -49 90.5t-134 33.5q-148 0 -191 -98h-275q36 155 164.5 241.5t310.5 86.5t252.5 -60t91.5 -96h18q141 156 347 156q205 0 336.5 -128t131.5 -334q0 -94 -18 -180h-768q-1 -6 -1 -9v-23q0 -122 66 -186t166 -64q161 0 216 114h281
q-39 -155 -177.5 -248t-336.5 -93t-283.5 78.5t-107.5 123.5h-18q-92 -137 -219 -169.5t-205 -32.5z" />
    <glyph glyph-name="ccedilla" unicode="&#xe7;" horiz-adv-x="1214" 
d="M580 -294q0 60 -116 59h-57l17 116l70 106q-168 32 -264.5 153.5t-96.5 284.5q0 313 170 507.5t439 194.5q192 0 316.5 -106.5t137.5 -254.5q2 -10 2 -21v-22h-276q-6 116 -82 140.5t-130 24.5t-108.5 -33t-116 -121.5t-61.5 -269.5t82 -214t145 -33t122 40t84 116h279
q-27 -159 -152 -269.5t-312 -125.5l-64 -98q159 -26 159 -164q0 -95 -72 -153.5t-186 -58.5t-191 36l28 133q58 -27 146 -27t88 60z" />
    <glyph glyph-name="egrave" unicode="&#xe8;" horiz-adv-x="1248" 
d="M925 716q0 75 -54.5 131t-149.5 56q-153 0 -208.5 -91t-69.5 -143h479q3 15 3 47zM642 203q163 0 218 114h280q-39 -155 -176 -248t-348 -93q-210 0 -345 127t-135 347q0 303 166 490t431 187q201 0 333 -126.5t132 -335.5q0 -72 -17 -180h-770l-1 -31
q0 -122 66.5 -186.5t165.5 -64.5zM614 1281l-250 353h303l212 -353h-265z" />
    <glyph glyph-name="eacute" unicode="&#xe9;" horiz-adv-x="1248" 
d="M925 716q0 75 -54.5 131t-149.5 56q-153 0 -208.5 -91t-69.5 -143h479q3 15 3 47zM642 203q163 0 218 114h280q-39 -155 -176 -248t-348 -93q-210 0 -345 127t-135 347q0 303 166 490t431 187q201 0 333 -126.5t132 -335.5q0 -72 -17 -180h-770l-1 -31
q0 -122 66.5 -186.5t165.5 -64.5zM926 1634h310l-361 -353h-272z" />
    <glyph glyph-name="ecircumflex" unicode="&#xea;" horiz-adv-x="1248" 
d="M925 716q0 75 -54.5 131t-149.5 56q-153 0 -208.5 -91t-69.5 -143h479q3 15 3 47zM642 203q163 0 218 114h280q-39 -155 -176 -248t-348 -93q-210 0 -345 127t-135 347q0 303 166 490t431 187q201 0 333 -126.5t132 -335.5q0 -72 -17 -180h-770l-1 -31
q0 -122 66.5 -186.5t165.5 -64.5zM1167 1251h-250l-104 209h-18l-193 -209h-276l350 354h291z" />
    <glyph glyph-name="edieresis" unicode="&#xeb;" horiz-adv-x="1248" 
d="M1024 1251q-34 0 -62 11.5t-49 31.5t-32.5 48t-11.5 77.5t44 92t94 42.5q51 0 79.5 -11t49.5 -31.5t32.5 -48t11.5 -60.5t-11.5 -61t-32.5 -48t-49.5 -31.5t-62.5 -11.5zM556 1251q-34 0 -62 11.5t-49 31.5t-32.5 48t-11.5 77.5t43.5 92t111.5 42.5t112 -42.5t44 -92
t-11.5 -77.5t-32.5 -48t-49.5 -31.5t-62.5 -11.5zM925 716q0 75 -54.5 131t-149.5 56q-153 0 -208.5 -91t-69.5 -143h479q3 15 3 47zM642 203q163 0 218 114h280q-39 -155 -176 -248t-348 -93q-210 0 -345 127t-135 347q0 303 166 490t431 187q201 0 333 -126.5t132 -335.5
q0 -72 -17 -180h-770l-1 -31q0 -122 66.5 -186.5t165.5 -64.5z" />
    <glyph glyph-name="igrave" unicode="&#xec;" horiz-adv-x="599" 
d="M313 1103h291l-234 -1103h-291zM345 1281l-250 353h303l212 -353h-265z" />
    <glyph glyph-name="iacute" unicode="&#xed;" horiz-adv-x="599" 
d="M313 1103h291l-234 -1103h-291zM657 1634h310l-361 -353h-272z" />
    <glyph glyph-name="icircumflex" unicode="&#xee;" horiz-adv-x="599" 
d="M313 1103h291l-234 -1103h-291zM898 1251h-250l-104 209h-18l-193 -209h-276l350 354h291z" />
    <glyph glyph-name="idieresis" unicode="&#xef;" horiz-adv-x="599" 
d="M756 1251q-34 0 -62.5 11.5t-49.5 31.5t-32.5 48t-11.5 77.5t44 92t94 42.5q51 0 79.5 -11t49.5 -31.5t32.5 -48t11.5 -60.5t-11.5 -61t-32.5 -48t-49 -31.5t-62 -11.5zM288 1251q-34 0 -62.5 11.5t-49.5 31.5t-32.5 48t-11.5 77.5t44 92t112 42.5t111.5 -42.5t43.5 -92
t-11.5 -77.5t-32.5 -48t-49 -31.5t-62 -11.5zM313 1103h291l-234 -1103h-291z" />
    <glyph glyph-name="eth" unicode="&#xf0;" horiz-adv-x="1301" 
d="M956 597q0 115 -63 181.5t-176 66.5t-199.5 -114t-86.5 -271q0 -108 60 -172t171 -64t177.5 85t91.5 154.5t25 133.5zM1126 1305q144 -249 144 -536t-125 -488t-266 -253t-249 -52q-218 0 -360 134t-142 338q0 263 149.5 442.5t374.5 179.5q164 0 232 -61.5t86 -95.5
l18 -1q-8 152 -102 314l-312 -94l-24 151l244 74q-54 65 -160 157h330q49 -49 72 -79l253 80l25 -152z" />
    <glyph glyph-name="ntilde" unicode="&#xf1;" horiz-adv-x="1304" 
d="M923 1127q142 0 236 -90.5t94 -229.5q0 -58 -14 -131l-142 -676h-291l132 628q10 46 10 103.5t-52.5 104.5t-118.5 47q-114 0 -186 -63.5t-92 -160.5l-140 -659h-292l236 1112h282l-37 -175h18q118 190 357 190zM969 1426q76 0 95 124h184q-16 -136 -90.5 -216.5
t-176.5 -80.5t-169.5 67.5t-91 82t-46.5 14.5q-75 0 -94 -124h-184q16 136 90.5 216.5t175.5 80.5q102 0 169.5 -67.5t91 -82t46.5 -14.5z" />
    <glyph glyph-name="ograve" unicode="&#xf2;" horiz-adv-x="1289" 
d="M642 -24q-237 0 -372 133t-135 349q0 283 174 476t449 193q221 0 355.5 -133t134.5 -350q0 -281 -126 -421.5t-240.5 -193.5t-239.5 -53zM493 283.5q55 -68.5 163 -68.5t197.5 120.5t89.5 292.5q0 124 -53 192.5t-134 68.5t-137 -33t-118.5 -122t-62.5 -236
q0 -146 55 -214.5zM635 1281l-250 353h303l212 -353h-265z" />
    <glyph glyph-name="oacute" unicode="&#xf3;" horiz-adv-x="1289" 
d="M642 -24q-237 0 -372 133t-135 349q0 283 174 476t449 193q221 0 355.5 -133t134.5 -350q0 -281 -126 -421.5t-240.5 -193.5t-239.5 -53zM493 283.5q55 -68.5 163 -68.5t197.5 120.5t89.5 292.5q0 124 -53 192.5t-134 68.5t-137 -33t-118.5 -122t-62.5 -236
q0 -146 55 -214.5zM947 1634h310l-361 -353h-272z" />
    <glyph glyph-name="ocircumflex" unicode="&#xf4;" horiz-adv-x="1289" 
d="M642 -24q-237 0 -372 133t-135 349q0 283 174 476t449 193q221 0 355.5 -133t134.5 -350q0 -281 -126 -421.5t-240.5 -193.5t-239.5 -53zM493 283.5q55 -68.5 163 -68.5t197.5 120.5t89.5 292.5q0 124 -53 192.5t-134 68.5t-137 -33t-118.5 -122t-62.5 -236
q0 -146 55 -214.5zM1188 1251h-250l-104 209h-18l-193 -209h-276l350 354h291z" />
    <glyph glyph-name="otilde" unicode="&#xf5;" horiz-adv-x="1289" 
d="M642 -24q-237 0 -372 133t-135 349q0 283 174 476t449 193q221 0 355.5 -133t134.5 -350q0 -281 -126 -421.5t-240.5 -193.5t-239.5 -53zM493 283.5q55 -68.5 163 -68.5t197.5 120.5t89.5 292.5q0 124 -53 192.5t-134 68.5t-137 -33t-118.5 -122t-62.5 -236
q0 -146 55 -214.5zM972 1420q76 0 95 124h184q-16 -136 -90.5 -216.5t-176.5 -80.5t-169.5 67.5t-91 82t-46.5 14.5q-75 0 -94 -124h-184q16 136 90.5 216.5t175.5 80.5q102 0 169.5 -67.5t91 -82t46.5 -14.5z" />
    <glyph glyph-name="odieresis" unicode="&#xf6;" horiz-adv-x="1289" 
d="M642 -24q-237 0 -372 133t-135 349q0 283 174 476t449 193q221 0 355.5 -133t134.5 -350q0 -281 -126 -421.5t-240.5 -193.5t-239.5 -53zM493 283.5q55 -68.5 163 -68.5t197.5 120.5t89.5 292.5q0 124 -53 192.5t-134 68.5t-137 -33t-118.5 -122t-62.5 -236
q0 -146 55 -214.5zM1046 1251q-34 0 -62.5 11.5t-49.5 31.5t-32.5 48t-11.5 77.5t44 92t94 42.5q51 0 79.5 -11t49.5 -31.5t32.5 -48t11.5 -60.5t-11.5 -61t-32.5 -48t-49 -31.5t-62 -11.5zM578 1251q-34 0 -62.5 11.5t-49.5 31.5t-32.5 48t-11.5 77.5t44 92t112 42.5
t111.5 -42.5t43.5 -92t-11.5 -77.5t-32.5 -48t-49 -31.5t-62 -11.5z" />
    <glyph glyph-name="divide" unicode="&#xf7;" horiz-adv-x="1416" 
d="M666 30q-75 0 -120.5 45.5t-45.5 96.5t11.5 81.5t33 53t52.5 35.5t87 13t101.5 -45.5t45.5 -97.5t-11.5 -82t-45 -65t-108.5 -35zM831 814q-75 0 -120.5 45.5t-45.5 96.5t11.5 81.5t33 53t52.5 35t87 12.5t101.5 -45.5t45.5 -96.5t-11.5 -81.5t-45 -65.5t-108.5 -35z
M194 472l47 225h1080l-47 -225h-1080z" />
    <glyph glyph-name="oslash" unicode="&#xf8;" horiz-adv-x="1298" 
d="M1248 644q0 -281 -173.5 -474.5t-446.5 -193.5q-168 0 -288 77l-105 -126l-90 63l111 133q-121 131 -121 335q0 283 174 476t449 193q161 0 277 -71l97 116l93 -58l-105 -126q128 -130 128 -344zM744 889q-135 0 -220.5 -122t-85.5 -300q0 -60 15 -108l409 490
q-49 40 -118 40zM636 215q129 0 218 120.5t89 292.5q0 73 -19 126l-410 -492q54 -47 122 -47z" />
    <glyph glyph-name="ugrave" unicode="&#xf9;" horiz-adv-x="1305" 
d="M445 401q0 -173 184 -173q152 0 202.5 89.5t61.5 141.5l137 644h292l-233 -1103h-283l36 167h-18q-50 -88 -138 -139.5t-184 -51.5q-172 0 -267.5 88t-95.5 234q0 60 15 141l139 664h293l-131 -616q-10 -42 -10 -86zM690 1281l-250 353h303l212 -353h-265z" />
    <glyph glyph-name="uacute" unicode="&#xfa;" horiz-adv-x="1305" 
d="M445 401q0 -173 184 -173q152 0 202.5 89.5t61.5 141.5l137 644h292l-233 -1103h-283l36 167h-18q-50 -88 -138 -139.5t-184 -51.5q-172 0 -267.5 88t-95.5 234q0 60 15 141l139 664h293l-131 -616q-10 -42 -10 -86zM1002 1634h310l-361 -353h-272z" />
    <glyph glyph-name="ucircumflex" unicode="&#xfb;" horiz-adv-x="1305" 
d="M445 401q0 -173 184 -173q152 0 202.5 89.5t61.5 141.5l137 644h292l-233 -1103h-283l36 167h-18q-50 -88 -138 -139.5t-184 -51.5q-172 0 -267.5 88t-95.5 234q0 60 15 141l139 664h293l-131 -616q-10 -42 -10 -86zM1243 1251h-250l-104 209h-18l-193 -209h-276l350 354
h291z" />
    <glyph glyph-name="udieresis" unicode="&#xfc;" horiz-adv-x="1305" 
d="M1100 1251q-34 0 -62 11.5t-49 31.5t-32.5 48t-11.5 77.5t44 92t94 42.5q51 0 79.5 -11t49.5 -31.5t32.5 -48t11.5 -60.5t-11.5 -61t-32.5 -48t-49.5 -31.5t-62.5 -11.5zM632 1251q-34 0 -62 11.5t-49 31.5t-32.5 48t-11.5 77.5t43.5 92t111.5 42.5t112 -42.5t44 -92
t-11.5 -77.5t-32.5 -48t-49.5 -31.5t-62.5 -11.5zM445 401q0 -173 184 -173q152 0 202.5 89.5t61.5 141.5l137 644h292l-233 -1103h-283l36 167h-18q-50 -88 -138 -139.5t-184 -51.5q-172 0 -267.5 88t-95.5 234q0 60 15 141l139 664h293l-131 -616q-10 -42 -10 -86z" />
    <glyph glyph-name="yacute" unicode="&#xfd;" horiz-adv-x="1208" 
d="M958 1634h310l-361 -353h-272zM134 -169q144 0 203 122l22 44l-144 1106h297l64 -822h18l405 822h312l-630 -1143q-108 -201 -232 -282t-318 -81q-37 0 -82 2.5t-50 2.5l46 235q24 -6 89 -6z" />
    <glyph glyph-name="thorn" unicode="&#xfe;" horiz-adv-x="1337" 
d="M916 1122q165 0 271 -116.5t106 -288.5q0 -173 -42.5 -304t-117 -226.5t-176 -149.5t-219.5 -54q-180 0 -240 84.5t-73 132.5h-18l-117 -545h-292l395 1852h291l-118 -557h18q121 172 332 172zM689 230q56 0 113 32t123 120t66 261t-80.5 205t-136.5 32t-113.5 -33
t-125 -122.5t-67.5 -259.5q0 -169 82.5 -202t138.5 -33z" />
    <glyph glyph-name="ydieresis" unicode="&#xff;" horiz-adv-x="1208" 
d="M1056 1251q-34 0 -62 11.5t-49 31.5t-32.5 48t-11.5 77.5t44 92t94 42.5q51 0 79.5 -11t49.5 -31.5t32.5 -48t11.5 -60.5t-11.5 -61t-32.5 -48t-49.5 -31.5t-62.5 -11.5zM588 1251q-34 0 -62 11.5t-49 31.5t-32.5 48t-11.5 77.5t43.5 92t111.5 42.5t112 -42.5t44 -92
t-11.5 -77.5t-32.5 -48t-49.5 -31.5t-62.5 -11.5zM134 -169q144 0 203 122l22 44l-144 1106h297l64 -822h18l405 822h312l-630 -1143q-108 -201 -232 -282t-318 -81q-37 0 -82 2.5t-50 2.5l46 235q24 -6 89 -6z" />
    <glyph glyph-name="Amacron" unicode="&#x100;" horiz-adv-x="1501" 
d="M659 1632l37 181h746l-38 -181h-745zM612 577h381l-58 565h-19zM1007 344h-509l-186 -344h-315l820 1443h349l187 -1443h-311z" />
    <glyph glyph-name="amacron" unicode="&#x101;" horiz-adv-x="1202" 
d="M396 1316l38 180h735l-38 -180h-735zM723 136q-105 -153 -323 -153q-128 0 -222.5 85.5t-94.5 215.5q0 167 129.5 265.5t361.5 106.5l274 9l15 68q5 25 5 40q0 57 -48.5 90.5t-133.5 33.5q-147 0 -192 -98h-275q36 152 168 240t326 88q195 0 318.5 -89t123.5 -236
q0 -53 -9 -89l-151 -713h-283l29 136h-18zM425.5 430q-56.5 -39 -56.5 -99t46 -94.5t129 -34.5t155 52t90 132l21 95l-228 -8q-100 -4 -156.5 -43z" />
    <glyph glyph-name="Abreve" unicode="&#x102;" horiz-adv-x="1501" 
d="M1045 1750q168 0 205 165h205q-22 -154 -134 -245t-280 -91t-276 86.5t-108 218.5q0 15 2 31h205v-21q0 -63 51 -103.5t130 -40.5zM612 577h381l-58 565h-19zM1007 344h-509l-186 -344h-315l820 1443h349l187 -1443h-311z" />
    <glyph glyph-name="abreve" unicode="&#x103;" horiz-adv-x="1202" 
d="M606 1564q0 -60 50 -101.5t132 -41.5q183 0 214 181h206q-16 -161 -130 -256t-292 -95t-282.5 87t-104.5 218q0 26 4 46h205q-2 -12 -2 -38zM723 136q-105 -153 -323 -153q-128 0 -222.5 85.5t-94.5 215.5q0 167 129.5 265.5t361.5 106.5l274 9l15 68q5 25 5 40
q0 57 -48.5 90.5t-133.5 33.5q-147 0 -192 -98h-275q36 152 168 240t326 88q195 0 318.5 -89t123.5 -236q0 -53 -9 -89l-151 -713h-283l29 136h-18zM425.5 430q-56.5 -39 -56.5 -99t46 -94.5t129 -34.5t155 52t90 132l21 95l-228 -8q-100 -4 -156.5 -43z" />
    <glyph glyph-name="Aogonek" unicode="&#x104;" horiz-adv-x="1501" 
d="M1128 -193q0 -92 120 -92q37 0 57 5l-34 -164q-54 -14 -110 -14q-115 0 -184 54.5t-69 138.5t45 147.5t139 119.5l2 11h-54l-33 331h-509l-186 -344h-315l820 1443h349l184 -1412q-222 -101 -222 -224zM612 577h381l-58 565h-19z" />
    <glyph glyph-name="aogonek" unicode="&#x105;" horiz-adv-x="1202" 
d="M520 202q107 0 179 51.5t90 132.5l21 95l-228 -8q-100 -4 -156.5 -43.5t-56.5 -99.5t45.5 -94t105.5 -34zM723 136q-102 -153 -323 -153q-128 0 -222.5 85.5t-94.5 215.5q0 167 129.5 265.5t361.5 106.5l274 9l15 68q5 27 5 40q0 57 -48.5 90.5t-133.5 33.5
q-147 0 -192 -98h-275q36 152 168 240t326 88q195 0 318.5 -89t123.5 -236q0 -53 -9 -89l-145 -682q-208 -93 -220 -212q-5 -48 26 -76t80 -28t69 5l-33 -164q-54 -14 -113 -14q-118 0 -188.5 62t-58.5 160q14 136 186 231l2 11h-36l26 130h-18z" />
    <glyph glyph-name="Cacute" unicode="&#x106;" horiz-adv-x="1534" 
d="M938 1212q-82 0 -167 -47.5t-183.5 -179t-98.5 -396.5q0 -166 85 -262.5t230 -96.5q191 0 262.5 90.5t89.5 143.5h299q-48 -229 -232 -365t-451 -136t-429.5 165t-162.5 440q0 400 165 588.5t310 256t293 67.5q273 0 440 -145.5t167 -359.5v-16q0 -16 -2 -27h-294v14
q-6 120 -89 193t-232 73zM1190 1909h315l-381 -318h-277z" />
    <glyph glyph-name="cacute" unicode="&#x107;" horiz-adv-x="1218" 
d="M952 1634h310l-361 -353h-272zM710 888q-54 0 -108.5 -33t-116 -121.5t-61.5 -269.5t82 -214t145 -33t122 40t84 116h279q-29 -172 -170 -284.5t-355 -112.5q-215 0 -346.5 126t-131.5 339q0 297 170 491.5t439 194.5q192 0 316.5 -106.5t137.5 -254.5q2 -10 2 -21v-22
h-276q-6 116 -82 140.5t-130 24.5z" />
    <glyph glyph-name="Ccircumflex" unicode="&#x108;" horiz-adv-x="1534" 
d="M1385 1591h-249l-92 191h-18l-172 -191h-275l328 335h291zM938 1212q-82 0 -167 -47.5t-183.5 -179t-98.5 -396.5q0 -166 85 -262.5t230 -96.5q191 0 262.5 90.5t89.5 143.5h299q-48 -229 -232 -365t-451 -136t-429.5 165t-162.5 440q0 400 165 588.5t310 256t293 67.5
q273 0 440 -145.5t167 -359.5v-16q0 -16 -2 -27h-294v14q-6 120 -89 193t-232 73z" />
    <glyph glyph-name="ccircumflex" unicode="&#x109;" horiz-adv-x="1218" 
d="M710 888q-54 0 -108.5 -33t-116 -121.5t-61.5 -269.5t82 -214t145 -33t122 40t84 116h279q-29 -172 -170 -284.5t-355 -112.5q-215 0 -346.5 126t-131.5 339q0 297 170 491.5t439 194.5q192 0 316.5 -106.5t137.5 -254.5q2 -10 2 -21v-22h-276q-6 116 -82 140.5
t-130 24.5zM1193 1251h-250l-104 209h-18l-193 -209h-276l350 354h291z" />
    <glyph glyph-name="Cdotaccent" unicode="&#x10a;" horiz-adv-x="1534" 
d="M938 1212q-82 0 -167 -47.5t-183.5 -179t-98.5 -396.5q0 -166 85 -262.5t230 -96.5q191 0 262.5 90.5t89.5 143.5h299q-48 -229 -232 -365t-451 -136t-429.5 165t-162.5 440q0 400 165 588.5t310 256t293 67.5q273 0 440 -145.5t167 -359.5v-16q0 -16 -2 -27h-294v14
q-6 120 -89 193t-232 73zM1028 1580q-34 0 -63.5 12t-50.5 33t-32.5 50t-11.5 80.5t45 96t113 44.5t112.5 -44.5t44.5 -132.5t-61.5 -113.5t-95.5 -25.5z" />
    <glyph glyph-name="cdotaccent" unicode="&#x10b;" horiz-adv-x="1218" 
d="M825 1274q-34 0 -63.5 12.5t-51 34.5t-34 52t-12.5 65t12.5 65t34 52t51 34.5t63.5 12.5t63.5 -12.5t51 -34.5t34 -52t12.5 -65t-12.5 -65t-34 -52t-51 -34.5t-63.5 -12.5zM710 888q-54 0 -108.5 -33t-116 -121.5t-61.5 -269.5t82 -214t145 -33t122 40t84 116h279
q-29 -172 -170 -284.5t-355 -112.5q-215 0 -346.5 126t-131.5 339q0 297 170 491.5t439 194.5q192 0 316.5 -106.5t137.5 -254.5q2 -10 2 -21v-22h-276q-6 116 -82 140.5t-130 24.5z" />
    <glyph glyph-name="Ccaron" unicode="&#x10c;" horiz-adv-x="1534" 
d="M674 1926h250l92 -191h18l172 191h275l-328 -335h-291zM938 1212q-82 0 -167 -47.5t-183.5 -179t-98.5 -396.5q0 -166 85 -262.5t230 -96.5q191 0 262.5 90.5t89.5 143.5h299q-48 -229 -232 -365t-451 -136t-429.5 165t-162.5 440q0 400 165 588.5t310 256t293 67.5
q273 0 440 -145.5t167 -359.5v-16q0 -16 -2 -27h-294v14q-6 120 -89 193t-232 73z" />
    <glyph glyph-name="ccaron" unicode="&#x10d;" horiz-adv-x="1218" 
d="M710 888q-54 0 -108.5 -33t-116 -121.5t-61.5 -269.5t82 -214t145 -33t122 40t84 116h279q-29 -172 -170 -284.5t-355 -112.5q-215 0 -346.5 126t-131.5 339q0 297 170 491.5t439 194.5q192 0 316.5 -106.5t137.5 -254.5q2 -10 2 -21v-22h-276q-6 116 -82 140.5
t-130 24.5zM655 1251l-200 354h249l103 -209h18l194 209h277l-350 -354h-291z" />
    <glyph glyph-name="Dcaron" unicode="&#x10e;" horiz-adv-x="1535" 
d="M729 257q206 0 337.5 156.5t131.5 408.5q0 170 -92 267.5t-255 97.5h-191l-201 -930h270zM918 1443q276 0 433.5 -155.5t157.5 -431.5q0 -371 -174 -570t-322 -242.5t-257 -43.5h-655l306 1443h511zM549 1925h250l92 -191h18l172 191h275l-328 -335h-291z" />
    <glyph glyph-name="dcaron" unicode="&#x10f;" horiz-adv-x="1559" 
d="M889 379q67 90 67 259q0 170 -83 203t-139 33t-112.5 -31t-123.5 -117.5t-67 -262.5q0 -110 59.5 -175t161.5 -65q56 0 113 33t124 123zM129 413q0 305 161 506.5t398 201.5q181 0 240.5 -81t72.5 -125h18l130 609h292l-323 -1524h-283l32 153h-18q-124 -170 -338 -170
q-168 0 -275 116.5t-107 313.5zM1823 1524l-157 -505h-201l107 505h251z" />
    <glyph glyph-name="Dcroat" unicode="&#x110;" horiz-adv-x="1518" 
d="M918 1443q276 0 433.5 -155.5t157.5 -431.5q0 -371 -174 -570t-322 -242.5t-257 -43.5h-655l131 618h-144l47 227h145l127 598h511zM729 257q206 0 337.5 156.5t131.5 408.5q0 170 -92 267.5t-255 97.5h-191l-74 -342h204l-48 -227h-205l-78 -361h270z" />
    <glyph glyph-name="dcroat" unicode="&#x111;" horiz-adv-x="1343" 
d="M129 413q0 305 161 506.5t398 201.5q181 0 240.5 -81t72.5 -125h18l74 345h-182l32 152h182l24 112h292l-24 -112h134l-32 -152h-134l-267 -1260h-283l32 153h-18q-124 -170 -338 -170q-168 0 -275 116.5t-107 313.5zM889 379q67 90 67 259q0 170 -83 203t-139 33
t-112.5 -31t-123.5 -117.5t-67 -262.5q0 -110 59.5 -175t161.5 -65q56 0 113 33t124 123z" />
    <glyph glyph-name="Emacron" unicode="&#x112;" horiz-adv-x="1274" 
d="M553 1632l37 181h746l-38 -181h-745zM1057 0h-957l307 1443h956l-53 -258h-652l-75 -337h616l-50 -239h-615l-78 -351h653z" />
    <glyph glyph-name="emacron" unicode="&#x113;" horiz-adv-x="1248" 
d="M405 1316l38 180h735l-38 -180h-735zM925 716q0 75 -54.5 131t-149.5 56q-153 0 -208.5 -91t-69.5 -143h479q3 15 3 47zM642 203q163 0 218 114h280q-39 -155 -176 -248t-348 -93q-210 0 -345 127t-135 347q0 303 166 490t431 187q201 0 333 -126.5t132 -335.5
q0 -72 -17 -180h-770l-1 -31q0 -122 66.5 -186.5t165.5 -64.5z" />
    <glyph glyph-name="Ebreve" unicode="&#x114;" horiz-adv-x="1274" 
d="M939 1750q168 0 205 165h205q-22 -154 -134 -245t-280 -91t-276 86.5t-108 218.5q0 15 2 31h205v-21q0 -63 51 -103.5t130 -40.5zM1057 0h-957l307 1443h956l-53 -258h-652l-75 -337h616l-50 -239h-615l-78 -351h653z" />
    <glyph glyph-name="ebreve" unicode="&#x115;" horiz-adv-x="1248" 
d="M615 1564q0 -60 50 -101.5t132 -41.5q183 0 214 181h206q-16 -161 -130 -256t-292 -95t-282.5 87t-104.5 218q0 26 4 46h205q-2 -12 -2 -38zM925 716q0 75 -54.5 131t-149.5 56q-153 0 -208.5 -91t-69.5 -143h479q3 15 3 47zM642 203q163 0 218 114h280
q-39 -155 -176 -248t-348 -93q-210 0 -345 127t-135 347q0 303 166 490t431 187q201 0 333 -126.5t132 -335.5q0 -72 -17 -180h-770l-1 -31q0 -122 66.5 -186.5t165.5 -64.5z" />
    <glyph glyph-name="Edotaccent" unicode="&#x116;" horiz-adv-x="1274" 
d="M1057 0h-957l307 1443h956l-53 -258h-652l-75 -337h616l-50 -239h-615l-78 -351h653zM950 1579q-34 0 -63.5 12t-50.5 33t-32.5 50t-11.5 80.5t45 96t113 44.5t112.5 -44.5t44.5 -132.5t-61.5 -113.5t-95.5 -25.5z" />
    <glyph glyph-name="edotaccent" unicode="&#x117;" horiz-adv-x="1248" 
d="M925 716q0 75 -54.5 131t-149.5 56q-153 0 -208.5 -91t-69.5 -143h479q3 15 3 47zM642 203q163 0 218 114h280q-39 -155 -176 -248t-348 -93q-210 0 -345 127t-135 347q0 303 166 490t431 187q201 0 333 -126.5t132 -335.5q0 -72 -17 -180h-770l-1 -31
q0 -122 66.5 -186.5t165.5 -64.5zM799 1274q-34 0 -63.5 12.5t-51 34.5t-34 52t-12.5 65t12.5 65t34 52t51 34.5t63.5 12.5t63.5 -12.5t51 -34.5t34 -52t12.5 -65t-12.5 -65t-34 -52t-51 -34.5t-63.5 -12.5z" />
    <glyph glyph-name="Eogonek" unicode="&#x118;" horiz-adv-x="1274" 
d="M599 -267q0 82 39.5 142t122.5 114l2 11h-663l307 1443h956l-53 -258h-652l-75 -337h616l-50 -239h-615l-78 -351h653l-45 -218q-118 -45 -181.5 -105t-63.5 -115q0 -105 120 -105q37 0 57 5l-34 -164q-54 -14 -110 -14q-115 0 -184 54.5t-69 136.5z" />
    <glyph glyph-name="eogonek" unicode="&#x119;" horiz-adv-x="1251" 
d="M925 718q0 77 -56.5 131t-150.5 54t-169 -62t-106 -172h479q3 15 3 49zM698 -195q0 -92 129 -92q32 0 44 2l-34 -161q-43 -12 -101 -12q-115 0 -186 55t-71 139q0 141 139 224l-1 17h-14q-214 6 -340.5 134.5t-126.5 338.5q0 301 165.5 489t431.5 188q204 0 334.5 -129
t130.5 -333q0 -72 -17 -180h-770l-1 -31q0 -114 62.5 -182.5t169.5 -68.5q164 0 218 114h280q-41 -163 -241 -289q-112 -71 -156.5 -121.5t-44.5 -101.5z" />
    <glyph glyph-name="Ecaron" unicode="&#x11a;" horiz-adv-x="1274" 
d="M1057 0h-957l307 1443h956l-53 -258h-652l-75 -337h616l-50 -239h-615l-78 -351h653zM596 1925h250l92 -191h18l172 191h275l-328 -335h-291z" />
    <glyph glyph-name="ecaron" unicode="&#x11b;" horiz-adv-x="1248" 
d="M925 716q0 75 -54.5 131t-149.5 56q-153 0 -208.5 -91t-69.5 -143h479q3 15 3 47zM642 203q163 0 218 114h280q-39 -155 -176 -248t-348 -93q-210 0 -345 127t-135 347q0 303 166 490t431 187q201 0 333 -126.5t132 -335.5q0 -72 -17 -180h-770l-1 -31
q0 -122 66.5 -186.5t165.5 -64.5zM629 1251l-200 354h249l103 -209h18l194 209h277l-350 -354h-291z" />
    <glyph glyph-name="Gcircumflex" unicode="&#x11c;" horiz-adv-x="1567" 
d="M182 574q0 398 222.5 652t567.5 254q241 0 409 -136t174 -334q1 -7 0.5 -15.5t-0.5 -17.5h-294q-6 104 -91 169t-201 65q-214 0 -346 -175t-132 -441q0 -167 88 -265t239 -98q218 0 287 107t82 170l5 25h-307l47 226h602l-37 -184q-58 -298 -239.5 -455.5t-465.5 -157.5
q-279 0 -444.5 168t-165.5 443zM1383 1591h-249l-92 191h-18l-172 -191h-275l328 335h291z" />
    <glyph glyph-name="gcircumflex" unicode="&#x11d;" horiz-adv-x="1327" 
d="M649 237q56 0 112 30.5t122 115.5t66 256q0 107 -58 171t-139 64q-148 0 -234 -112.5t-86 -284.5q0 -171 80.5 -205.5t136.5 -34.5zM133 438q0 289 116 433.5t215.5 197t214.5 52.5q178 0 243 -81.5t80 -128.5h17l42 192h284l-246 -1147q-36 -174 -186 -273.5t-376 -99.5
q-227 0 -365.5 94t-138.5 240h290q5 -54 64 -88.5t168 -34.5t173.5 50t84.5 138l44 194l-18 1q-109 -155 -325 -155q-166 0 -273.5 115t-107.5 301zM1183 1252h-250l-104 209h-18l-193 -209h-276l350 354h291z" />
    <glyph glyph-name="Gbreve" unicode="&#x11e;" horiz-adv-x="1567" 
d="M1015 1751q168 0 205 165h205q-22 -154 -134 -245t-280 -91t-276 86.5t-108 218.5q0 15 2 31h205v-21q0 -63 51 -103.5t130 -40.5zM182 574q0 398 222.5 652t567.5 254q241 0 409 -136t174 -334q1 -7 0.5 -15.5t-0.5 -17.5h-294q-6 104 -91 169t-201 65q-214 0 -346 -175
t-132 -441q0 -167 88 -265t239 -98q218 0 287 107t82 170l5 25h-307l47 226h602l-37 -184q-58 -298 -239.5 -455.5t-465.5 -157.5q-279 0 -444.5 168t-165.5 443z" />
    <glyph glyph-name="gbreve" unicode="&#x11f;" horiz-adv-x="1327" 
d="M649 237q56 0 112 30.5t122 115.5t66 256q0 107 -58 171t-139 64q-148 0 -234 -112.5t-86 -284.5q0 -171 80.5 -205.5t136.5 -34.5zM133 438q0 289 116 433.5t215.5 197t214.5 52.5q178 0 243 -81.5t80 -128.5h17l42 192h284l-246 -1147q-36 -174 -186 -273.5t-376 -99.5
q-227 0 -365.5 94t-138.5 240h290q5 -54 64 -88.5t168 -34.5t173.5 50t84.5 138l44 194l-18 1q-109 -155 -325 -155q-166 0 -273.5 115t-107.5 301zM631 1566q0 -60 50 -102t132 -42q183 0 214 181h206q-16 -161 -130 -256t-292 -95t-282.5 87t-104.5 218q0 26 4 46h205
q-2 -11 -2 -37z" />
    <glyph glyph-name="Gdotaccent" unicode="&#x120;" horiz-adv-x="1567" 
d="M182 574q0 398 222.5 652t567.5 254q241 0 409 -136t174 -334q1 -7 0.5 -15.5t-0.5 -17.5h-294q-6 104 -91 169t-201 65q-214 0 -346 -175t-132 -441q0 -167 88 -265t239 -98q218 0 287 107t82 170l5 25h-307l47 226h602l-37 -184q-58 -298 -239.5 -455.5t-465.5 -157.5
q-279 0 -444.5 168t-165.5 443zM1026 1580q-34 0 -63.5 12t-50.5 33t-32.5 50t-11.5 80.5t45 96t113 44.5t112.5 -44.5t44.5 -132.5t-61.5 -113.5t-95.5 -25.5z" />
    <glyph glyph-name="gdotaccent" unicode="&#x121;" horiz-adv-x="1327" 
d="M649 237q56 0 112 30.5t122 115.5t66 256q0 107 -58 171t-139 64q-148 0 -234 -112.5t-86 -284.5q0 -171 80.5 -205.5t136.5 -34.5zM133 438q0 289 116 433.5t215.5 197t214.5 52.5q178 0 243 -81.5t80 -128.5h17l42 192h284l-246 -1147q-36 -174 -186 -273.5t-376 -99.5
q-227 0 -365.5 94t-138.5 240h290q5 -54 64 -88.5t168 -34.5t173.5 50t84.5 138l44 194l-18 1q-109 -155 -325 -155q-166 0 -273.5 115t-107.5 301zM815 1275q-34 0 -63.5 12.5t-51 34.5t-34 52t-12.5 65t12.5 65t34 52t51 34.5t63.5 12.5t63.5 -12.5t51 -34.5t34 -52
t12.5 -65t-12.5 -65t-34 -52t-51 -34.5t-63.5 -12.5z" />
    <glyph glyph-name="Gcommaaccent" unicode="&#x122;" horiz-adv-x="1567" 
d="M182 574q0 398 222.5 652t567.5 254q241 0 409 -136t174 -334q1 -7 0.5 -15.5t-0.5 -17.5h-294q-6 104 -91 169t-201 65q-214 0 -346 -175t-132 -441q0 -167 88 -265t239 -98q218 0 287 107t82 170l5 25h-307l47 226h602l-37 -184q-58 -298 -239.5 -455.5t-465.5 -157.5
q-279 0 -444.5 168t-165.5 443zM473 -509l172 358h292l-206 -358h-258z" />
    <glyph glyph-name="gcommaaccent" unicode="&#x123;" horiz-adv-x="1328" 
d="M649 237q56 0 112 30.5t122 115.5t66 256q0 107 -58 171t-139 64q-148 0 -234 -112.5t-86 -284.5q0 -171 80.5 -205.5t136.5 -34.5zM133 438q0 289 116 433.5t215.5 197t214.5 52.5q178 0 243 -81.5t80 -128.5h17l42 192h284l-246 -1147q-36 -174 -186 -273.5t-376 -99.5
q-227 0 -365.5 94t-138.5 240h290q5 -54 64 -88.5t168 -34.5t173.5 50t84.5 138l44 194l-18 1q-109 -155 -325 -155q-166 0 -273.5 115t-107.5 301zM1352 1649l-172 -358h-292l206 358h258z" />
    <glyph glyph-name="Hcircumflex" unicode="&#x124;" horiz-adv-x="1606" 
d="M1457 1590h-249l-92 191h-18l-172 -191h-275l328 335h291zM1051 0l129 603h-648l-129 -603h-303l307 1443h304l-125 -582h648l125 582h304l-307 -1443h-305z" />
    <glyph glyph-name="hcircumflex" unicode="&#x125;" horiz-adv-x="1321" 
d="M963 1662h-249l-92 191h-18l-172 -191h-275l328 335h291zM1269 807q0 -58 -14 -131l-142 -676h-291l132 628q10 44 10 84q0 78 -54 124.5t-121 46.5q-117 0 -189.5 -63t-92.5 -161l-140 -659h-292l323 1515h292l-125 -578h18q117 187 343 187q155 0 249 -90.5t94 -226.5z
" />
    <glyph glyph-name="Hbar" unicode="&#x126;" horiz-adv-x="1557" 
d="M1684 1055h-128l-224 -1055h-305l129 603h-648l-129 -603h-303l224 1055h-127l43 206h128l39 182h304l-39 -182h648l39 182h304l-39 -182h126zM1252 1055h-648l-42 -194h648z" />
    <glyph glyph-name="hbar" unicode="&#x127;" horiz-adv-x="1339" 
d="M1269 807q0 -58 -14 -131l-142 -676h-291l132 628q10 44 10 84q0 78 -54 124.5t-121 46.5q-117 0 -189.5 -63t-92.5 -161l-140 -659h-292l269 1260h-172l33 158h172l21 97h292l-21 -97h217l-33 -158h-218l-70 -323h18q117 187 343 187q155 0 249 -90.5t94 -226.5z" />
    <glyph glyph-name="Itilde" unicode="&#x128;" horiz-adv-x="653" 
d="M770 1751q83 0 98 104h181q-18 -128 -91 -202.5t-171 -74.5q-97 0 -159.5 49.5t-91 72t-61.5 22.5q-82 0 -97 -104h-181q27 197 122.5 237t151.5 40t99 -22.5t76.5 -49.5t62.5 -49.5t61 -22.5zM100 0l307 1443h304l-307 -1443h-304z" />
    <glyph glyph-name="itilde" unicode="&#x129;" horiz-adv-x="599" 
d="M682 1420q76 0 95 124h184q-16 -136 -90.5 -216.5t-176.5 -80.5t-169.5 67.5t-91 82t-46.5 14.5q-75 0 -94 -124h-184q16 136 90.5 216.5t175.5 80.5q102 0 169.5 -67.5t91 -82t46.5 -14.5zM313 1103h291l-234 -1103h-291z" />
    <glyph glyph-name="Imacron" unicode="&#x12a;" horiz-adv-x="653" 
d="M227 1632l37 181h746l-38 -181h-745zM100 0l307 1443h304l-307 -1443h-304z" />
    <glyph glyph-name="imacron" unicode="&#x12b;" horiz-adv-x="599" 
d="M136 1316l38 180h735l-38 -180h-735zM313 1103h291l-234 -1103h-291z" />
    <glyph glyph-name="Ibreve" unicode="&#x12c;" horiz-adv-x="653" 
d="M613 1750q168 0 205 165h205q-22 -154 -134 -245t-280 -91t-276 86.5t-108 218.5q0 15 2 31h205v-21q0 -63 51 -103.5t130 -40.5zM100 0l307 1443h304l-307 -1443h-304z" />
    <glyph glyph-name="ibreve" unicode="&#x12d;" horiz-adv-x="599" 
d="M346 1564q0 -60 50 -101.5t132 -41.5q183 0 214 181h206q-16 -161 -130 -256t-292 -95t-282.5 87t-104.5 218q0 26 4 46h205q-2 -12 -2 -38zM313 1103h291l-234 -1103h-291z" />
    <glyph glyph-name="Iogonek" unicode="&#x12e;" horiz-adv-x="653" 
d="M183 -189q0 -45 32.5 -70.5t78.5 -25.5t66 5l-34 -164q-54 -14 -109 -14q-114 0 -184 56.5t-70 142.5t45 149t145 125l2 11h-49l301 1417h304l-299 -1403q-229 -100 -229 -229z" />
    <glyph glyph-name="iogonek" unicode="&#x12f;" horiz-adv-x="599" 
d="M190 -458q-113 0 -182.5 56.5t-69.5 142.5t46.5 149t146.5 125l2 11h-49l229 1077h294l-227 -1063q-222 -96 -222 -229q0 -45 32 -70.5t78 -25.5t67 5l-34 -164q-57 -14 -111 -14zM399.5 1297q-47.5 40 -47.5 103q0 104 67 127.5t124 23.5t105 -40t48 -103
q0 -64 -47.5 -107.5t-124.5 -43.5t-124.5 40z" />
    <glyph glyph-name="Idotaccent" unicode="&#x130;" horiz-adv-x="654" 
d="M624 1579q-34 0 -63.5 12t-50.5 33t-32.5 50t-11.5 80.5t45 96t113 44.5t112.5 -44.5t44.5 -132.5t-61.5 -113.5t-95.5 -25.5zM100 0l307 1443h304l-307 -1443h-304z" />
    <glyph glyph-name="dotlessi" unicode="&#x131;" horiz-adv-x="599" 
d="M313 1103h291l-234 -1103h-291z" />
    <glyph glyph-name="u0132" unicode="&#x132;" horiz-adv-x="1881" 
d="M1032 413v-9q1 -77 49 -122t131 -45q167 0 212 209l213 997h302l-222 -1042q-45 -213 -176 -325.5t-341 -112.5t-339 117t-123 302v12q0 11 1 19h293zM100 0l307 1443h304l-307 -1443h-304z" />
    <glyph glyph-name="u0133" unicode="&#x133;" horiz-adv-x="1199" 
d="M999.5 1297q-47.5 40 -47.5 104t47 107t145 43t125 -56t27 -87t-12.5 -58.5t-48 -60t-112 -32.5t-124 40zM542 -142q105 0 132 120l240 1125h291l-247 -1158q-33 -156 -138.5 -237t-270.5 -82q-53 0 -131 12l48 226q26 -6 76 -6zM399.5 1297q-47.5 40 -47.5 104t47 107
t145 43t125 -56t27 -87t-12.5 -58.5t-48 -60t-112 -32.5t-124 40zM313 1103h293l-235 -1103h-293z" />
    <glyph glyph-name="Jcircumflex" unicode="&#x134;" horiz-adv-x="1229" 
d="M1556 1590h-249l-92 191h-18l-172 -191h-275l328 335h291zM379 413v-9q1 -77 49 -122t131 -45q167 0 212 209l213 997h302l-222 -1042q-45 -213 -176 -325.5t-341 -112.5t-339 117t-123 302v12q0 11 1 19h293z" />
    <glyph glyph-name="jcircumflex" unicode="&#x135;" horiz-adv-x="599" 
d="M898 1251h-250l-104 209h-18l-193 -209h-276l350 354h291zM-58 -142q105 0 132 120l240 1125h291l-247 -1158q-33 -156 -138.5 -237t-270.5 -82q-53 0 -131 12l48 226q26 -6 76 -6z" />
    <glyph glyph-name="Kcommaaccent" unicode="&#x136;" horiz-adv-x="1454" 
d="M347 -509l172 358h292l-206 -358h-258zM100 0l307 1443h301l-136 -635h18l659 635h358l-670 -653l382 -790h-340l-293 606l-192 -182l-92 -424h-302z" />
    <glyph glyph-name="kcommaaccent" unicode="&#x137;" horiz-adv-x="1223" 
d="M244 -509l172 358h292l-206 -358h-258zM979 1103h340l-529 -482l328 -621h-321l-242 457l-110 -94l-78 -363h-292l324 1524h291l-177 -834h18z" />
    <glyph glyph-name="Lacute" unicode="&#x139;" horiz-adv-x="1219" 
d="M1044 0h-944l307 1443h303l-253 -1180h641zM785 1908h315l-381 -318h-277z" />
    <glyph glyph-name="lacute" unicode="&#x13a;" horiz-adv-x="594" 
d="M399 1524h293l-324 -1524h-293zM772 1988h315l-381 -318h-277z" />
    <glyph glyph-name="Lcommaaccent" unicode="&#x13b;" horiz-adv-x="1219" 
d="M1044 0h-944l307 1443h303l-253 -1180h641zM240 -509l172 358h292l-206 -358h-258z" />
    <glyph glyph-name="lcommaaccent" unicode="&#x13c;" horiz-adv-x="594" 
d="M399 1524h293l-324 -1524h-293zM-110 -509l172 358h292l-206 -358h-258z" />
    <glyph glyph-name="Lcaron" unicode="&#x13d;" horiz-adv-x="1219" 
d="M1044 0h-944l307 1443h303l-253 -1180h641zM1181 1443l-157 -504h-196l107 504h246z" />
    <glyph glyph-name="lcaron" unicode="&#x13e;" horiz-adv-x="814" 
d="M399 1524h293l-324 -1524h-293zM1074 1524l-157 -505h-201l107 505h251z" />
    <glyph glyph-name="Lslash" unicode="&#x141;" horiz-adv-x="1223" 
d="M1127 263l-54 -263h-944l142 667l-181 -84l42 205l183 84l121 571h303l-89 -416l248 115l-42 -205l-250 -116l-120 -558h641z" />
    <glyph glyph-name="lslash" unicode="&#x142;" horiz-adv-x="593" 
d="M675 885l-132 -64l-175 -821h-293l141 664l-129 -62l42 205l131 63l139 654h293l-106 -497l131 63z" />
    <glyph glyph-name="Nacute" unicode="&#x143;" horiz-adv-x="1573" 
d="M100 0l307 1443h231l479 -929h18l202 929h293l-307 -1443h-229l-483 922h-18l-200 -922h-293zM1227 1908h315l-381 -318h-277z" />
    <glyph glyph-name="nacute" unicode="&#x144;" horiz-adv-x="1304" 
d="M923 1127q142 0 236 -90.5t94 -229.5q0 -58 -14 -131l-142 -676h-291l132 628q10 46 10 103.5t-52.5 104.5t-118.5 47q-114 0 -186 -63.5t-92 -160.5l-140 -659h-292l236 1112h282l-37 -175h18q118 190 357 190zM944 1640h310l-361 -353h-272z" />
    <glyph glyph-name="Ncommaaccent" unicode="&#x145;" horiz-adv-x="1573" 
d="M100 0l307 1443h231l479 -929h18l202 929h293l-307 -1443h-229l-483 922h-18l-200 -922h-293zM403 -509l172 358h292l-206 -358h-258z" />
    <glyph glyph-name="ncommaaccent" unicode="&#x146;" horiz-adv-x="1304" 
d="M923 1127q142 0 236 -90.5t94 -229.5q0 -58 -14 -131l-142 -676h-291l132 628q10 46 10 103.5t-52.5 104.5t-118.5 47q-114 0 -186 -63.5t-92 -160.5l-140 -659h-292l236 1112h282l-37 -175h18q118 190 357 190zM249 -509l172 358h292l-206 -358h-258z" />
    <glyph glyph-name="Ncaron" unicode="&#x147;" horiz-adv-x="1573" 
d="M100 0l307 1443h231l479 -929h18l202 929h293l-307 -1443h-229l-483 922h-18l-200 -922h-293zM711 1925h250l92 -191h18l172 191h275l-328 -335h-291z" />
    <glyph glyph-name="ncaron" unicode="&#x148;" horiz-adv-x="1304" 
d="M923 1127q142 0 236 -90.5t94 -229.5q0 -58 -14 -131l-142 -676h-291l132 628q10 46 10 103.5t-52.5 104.5t-118.5 47q-114 0 -186 -63.5t-92 -160.5l-140 -659h-292l236 1112h282l-37 -175h18q118 190 357 190zM647 1257l-200 354h249l103 -209h18l194 209h277
l-350 -354h-291z" />
    <glyph glyph-name="Omacron" unicode="&#x14c;" horiz-adv-x="1617" 
d="M640 1631l37 181h746l-38 -181h-745zM1283 820q0 188 -89 288.5t-235 100.5q-197 0 -332.5 -177.5t-135.5 -433.5q0 -164 89 -264.5t237 -100.5q197 0 295.5 128.5t134.5 240.5t36 218zM307 183q-126 127 -126 389q0 263 102.5 469t283 322.5t404.5 116.5
q283 0 452.5 -173t169.5 -440q0 -397 -225 -650.5t-578 -253.5q-127 0 -242 46.5t-241 173.5z" />
    <glyph glyph-name="omacron" unicode="&#x14d;" horiz-adv-x="1289" 
d="M642 -24q-237 0 -372 133t-135 349q0 283 174 476t449 193q221 0 355.5 -133t134.5 -350q0 -281 -126 -421.5t-240.5 -193.5t-239.5 -53zM493 283.5q55 -68.5 163 -68.5t197.5 120.5t89.5 292.5q0 124 -53 192.5t-134 68.5t-137 -33t-118.5 -122t-62.5 -236
q0 -146 55 -214.5zM426 1316l38 180h735l-38 -180h-735z" />
    <glyph glyph-name="Obreve" unicode="&#x14e;" horiz-adv-x="1617" 
d="M1026 1749q168 0 205 165h205q-22 -154 -134 -245t-280 -91t-276 86.5t-108 218.5q0 15 2 31h205v-21q0 -63 51 -103.5t130 -40.5zM1283 820q0 188 -89 288.5t-235 100.5q-197 0 -332.5 -177.5t-135.5 -433.5q0 -164 89 -264.5t237 -100.5q197 0 295.5 128.5t134.5 240.5
t36 218zM307 183q-126 127 -126 389q0 263 102.5 469t283 322.5t404.5 116.5q283 0 452.5 -173t169.5 -440q0 -397 -225 -650.5t-578 -253.5q-127 0 -242 46.5t-241 173.5z" />
    <glyph glyph-name="obreve" unicode="&#x14f;" horiz-adv-x="1289" 
d="M642 -24q-237 0 -372 133t-135 349q0 283 174 476t449 193q221 0 355.5 -133t134.5 -350q0 -281 -126 -421.5t-240.5 -193.5t-239.5 -53zM493 283.5q55 -68.5 163 -68.5t197.5 120.5t89.5 292.5q0 124 -53 192.5t-134 68.5t-137 -33t-118.5 -122t-62.5 -236
q0 -146 55 -214.5zM636 1564q0 -60 50 -101.5t132 -41.5q183 0 214 181h206q-16 -161 -130 -256t-292 -95t-282.5 87t-104.5 218q0 26 4 46h205q-2 -12 -2 -38z" />
    <glyph glyph-name="Ohungarumlaut" unicode="&#x150;" horiz-adv-x="1617" 
d="M1283 820q0 188 -89 288.5t-235 100.5q-197 0 -332.5 -177.5t-135.5 -433.5q0 -164 89 -264.5t237 -100.5q197 0 295.5 128.5t134.5 240.5t36 218zM307 183q-126 127 -126 389q0 263 102.5 469t283 322.5t404.5 116.5q283 0 452.5 -173t169.5 -440q0 -397 -225 -650.5
t-578 -253.5q-127 0 -242 46.5t-241 173.5zM923 1907h270l-345 -318h-244zM1360 1907h270l-345 -318h-244z" />
    <glyph glyph-name="ohungarumlaut" unicode="&#x151;" horiz-adv-x="1289" 
d="M642 -24q-237 0 -372 133t-135 349q0 283 174 476t449 193q221 0 355.5 -133t134.5 -350q0 -281 -126 -421.5t-240.5 -193.5t-239.5 -53zM493 283.5q55 -68.5 163 -68.5t197.5 120.5t89.5 292.5q0 124 -53 192.5t-134 68.5t-137 -33t-118.5 -122t-62.5 -236
q0 -146 55 -214.5zM736 1634h261l-317 -353h-231zM1172 1634h261l-317 -353h-231z" />
    <glyph glyph-name="OE" unicode="&#x152;" horiz-adv-x="2312" 
d="M810 -37q-275 0 -449.5 171t-174.5 442q0 390 183.5 601t338 257t250.5 46q169 0 290.5 -62.5t187.5 -172.5h18l43 198h901l-53 -258h-652l-75 -337h616l-50 -239h-615l-78 -351h653l-52 -258h-902l23 102h-15q-96 -96 -212 -117.5t-176 -21.5zM1291 822q0 190 -90 291.5
t-237 101.5q-198 0 -334.5 -179.5t-136.5 -438.5q0 -166 90 -267.5t238 -101.5q200 0 299 131t135 243.5t36 219.5z" />
    <glyph glyph-name="oe" unicode="&#x153;" horiz-adv-x="2048" 
d="M438 482q0 -132 56 -200t151 -68q123 0 210.5 122.5t87.5 268.5q0 147 -53 215.5t-133 68.5t-136 -32.5t-96.5 -89t-63.5 -134t-23 -151.5zM1722 714q0 81 -56 135t-150 54t-169.5 -62t-106.5 -172h479q3 8 3 45zM135 457q0 290 176.5 480t443.5 190q120 0 215 -49.5
t150 -140.5h19q148 190 391 190q205 0 335.5 -129t130.5 -333q0 -94 -18 -180h-769q-1 -9 -1 -11v-21q0 -114 62.5 -182t169.5 -68q163 0 217 114h281q-40 -156 -179 -248.5t-337 -92.5q-120 0 -217.5 48.5t-157.5 138.5h-18q-146 -187 -403 -187q-221 0 -356 131.5
t-135 349.5z" />
    <glyph glyph-name="Racute" unicode="&#x154;" horiz-adv-x="1418" 
d="M827 755q132 0 213.5 70t81.5 172t-56 152t-157 50h-248l-98 -444h264zM978 1443q200 0 326 -114.5t126 -284.5t-96.5 -301t-260.5 -185l198 -558h-325l-172 523h-258l-112 -523h-304l307 1443h571zM1058 1908h315l-381 -318h-277z" />
    <glyph glyph-name="racute" unicode="&#x155;" horiz-adv-x="875" 
d="M842 1121q89 0 141 -24l-57 -268q-73 30 -168 30q-218 0 -272 -251l-131 -608h-292l235 1103h283l-31 -152h18q93 170 274 170zM801 1634h310l-361 -353h-272z" />
    <glyph glyph-name="Rcommaaccent" unicode="&#x156;" horiz-adv-x="1418" 
d="M333 -509l172 358h292l-206 -358h-258zM827 755q132 0 213.5 70t81.5 172t-56 152t-157 50h-248l-98 -444h264zM978 1443q200 0 326 -114.5t126 -284.5t-96.5 -301t-260.5 -185l198 -558h-325l-172 523h-258l-112 -523h-304l307 1443h571z" />
    <glyph glyph-name="rcommaaccent" unicode="&#x157;" horiz-adv-x="875" 
d="M-118 -509l172 358h292l-206 -358h-258zM842 1121q89 0 141 -24l-57 -268q-73 30 -168 30q-218 0 -272 -251l-131 -608h-292l235 1103h283l-31 -152h18q93 170 274 170z" />
    <glyph glyph-name="Rcaron" unicode="&#x158;" horiz-adv-x="1418" 
d="M542 1925h250l92 -191h18l172 191h275l-328 -335h-291zM827 755q132 0 213.5 70t81.5 172t-56 152t-157 50h-248l-98 -444h264zM978 1443q200 0 326 -114.5t126 -284.5t-96.5 -301t-260.5 -185l198 -558h-325l-172 523h-258l-112 -523h-304l307 1443h571z" />
    <glyph glyph-name="rcaron" unicode="&#x159;" horiz-adv-x="875" 
d="M842 1121q89 0 141 -24l-57 -268q-73 30 -168 30q-218 0 -272 -251l-131 -608h-292l235 1103h283l-31 -152h18q93 170 274 170zM504 1251l-200 354h249l103 -209h18l194 209h277l-350 -354h-291z" />
    <glyph glyph-name="Sacute" unicode="&#x15a;" horiz-adv-x="1362" 
d="M973 401q0 88 -79 125.5t-137 55.5l-150 47q-335 105 -335 409q0 84 43 168t162.5 179t359.5 95t393 -125t159 -322h-285q-14 91 -89 146.5t-185 55.5q-109 0 -180 -50t-71 -118t45.5 -113t148.5 -77l148 -46q274 -86 315 -202.5t41 -206.5t-43.5 -178t-165.5 -184.5
t-380 -96.5t-412.5 119.5t-168.5 329.5h292q16 -92 99 -148t202 -56q122 0 197.5 52.5t75.5 140.5zM1083 1908h315l-381 -318h-277z" />
    <glyph glyph-name="sacute" unicode="&#x15b;" horiz-adv-x="1150" 
d="M866 1634h310l-361 -353h-272zM569 189q84 0 135.5 31.5t51.5 75.5t-24.5 69.5t-88.5 46.5l-172 60q-260 89 -260 284q0 175 126.5 273t328.5 98t325 -90t133 -238h-267q-11 53 -62 84t-109 31q-95 0 -144.5 -32t-49.5 -75q0 -44 29.5 -69.5t92.5 -46.5l179 -63
q134 -47 194.5 -115.5t60.5 -162.5q0 -174 -133 -274t-347 -100t-347 94.5t-139 247.5h281q12 -57 67 -93t139 -36z" />
    <glyph glyph-name="Scircumflex" unicode="&#x15c;" horiz-adv-x="1362" 
d="M1278 1590h-249l-92 191h-18l-172 -191h-275l328 335h291zM973 401q0 88 -79 125.5t-137 55.5l-150 47q-335 105 -335 409q0 84 43 168t162.5 179t359.5 95t393 -125t159 -322h-285q-14 91 -89 146.5t-185 55.5q-109 0 -180 -50t-71 -118t45.5 -113t148.5 -77l148 -46
q274 -86 315 -202.5t41 -206.5t-43.5 -178t-165.5 -184.5t-380 -96.5t-412.5 119.5t-168.5 329.5h292q16 -92 99 -148t202 -56q122 0 197.5 52.5t75.5 140.5z" />
    <glyph glyph-name="scircumflex" unicode="&#x15d;" horiz-adv-x="1150" 
d="M569 189q84 0 135.5 31.5t51.5 75.5t-24.5 69.5t-88.5 46.5l-172 60q-260 89 -260 284q0 175 126.5 273t328.5 98t325 -90t133 -238h-267q-11 53 -62 84t-109 31q-95 0 -144.5 -32t-49.5 -75q0 -44 29.5 -69.5t92.5 -46.5l179 -63q134 -47 194.5 -115.5t60.5 -162.5
q0 -174 -133 -274t-347 -100t-347 94.5t-139 247.5h281q12 -57 67 -93t139 -36zM1107 1251h-250l-104 209h-18l-193 -209h-276l350 354h291z" />
    <glyph glyph-name="Scedilla" unicode="&#x15e;" horiz-adv-x="1362" 
d="M682 -294q0 60 -116 59h-57l17 116l57 87q-321 34 -395.5 191.5t-80.5 252.5h292q16 -92 99 -148t201 -56q190 0 232 74t42 110q0 67 -49 110t-167 80l-150 47q-335 105 -335 409q0 84 43 168t162.5 179t359.5 95t393 -125t159 -322h-285q-14 91 -89 146.5t-185 55.5
q-109 0 -180 -50t-71 -118t45.5 -113t148.5 -77l148 -46q274 -86 315 -202.5t41 -202.5t-36.5 -167.5t-139 -175.5t-334.5 -116l-57 -87q159 -26 159 -164q0 -95 -72 -153.5t-186 -58.5t-191 36l28 133q58 -27 146 -27t88 60z" />
    <glyph glyph-name="scedilla" unicode="&#x15f;" horiz-adv-x="1150" 
d="M545 -294q0 60 -116 59h-57l17 116l67 103q-258 37 -314.5 152.5t-59.5 181.5h281q12 -57 67 -93t139 -36t135.5 31.5t51.5 75.5t-24.5 69.5t-88.5 46.5l-172 60q-260 89 -260 284q0 175 126.5 273t328.5 98t325 -90t133 -238h-267q-11 53 -62 84t-109 31
q-95 0 -144.5 -32t-49.5 -75q0 -44 29.5 -69.5t92.5 -46.5l179 -63q255 -89 255 -274q0 -164 -112.5 -261.5t-297.5 -113.5l-65 -99q159 -26 159 -164q0 -95 -72 -153.5t-186 -58.5t-191 36l28 133q58 -27 146 -27t88 60z" />
    <glyph glyph-name="Scaron" unicode="&#x160;" horiz-adv-x="1362" 
d="M567 1925h250l92 -191h18l172 191h275l-328 -335h-291zM973 401q0 88 -79 125.5t-137 55.5l-150 47q-335 105 -335 409q0 84 43 168t162.5 179t359.5 95t393 -125t159 -322h-285q-14 91 -89 146.5t-185 55.5q-109 0 -180 -50t-71 -118t45.5 -113t148.5 -77l148 -46
q274 -86 315 -202.5t41 -206.5t-43.5 -178t-165.5 -184.5t-380 -96.5t-412.5 119.5t-168.5 329.5h292q16 -92 99 -148t202 -56q122 0 197.5 52.5t75.5 140.5z" />
    <glyph glyph-name="scaron" unicode="&#x161;" horiz-adv-x="1150" 
d="M569 189q84 0 135.5 31.5t51.5 75.5t-24.5 69.5t-88.5 46.5l-172 60q-260 89 -260 284q0 175 126.5 273t328.5 98t325 -90t133 -238h-267q-11 53 -62 84t-109 31q-95 0 -144.5 -32t-49.5 -75q0 -44 29.5 -69.5t92.5 -46.5l179 -63q134 -47 194.5 -115.5t60.5 -162.5
q0 -174 -133 -274t-347 -100t-347 94.5t-139 247.5h281q12 -57 67 -93t139 -36zM569 1251l-200 354h249l103 -209h18l194 209h277l-350 -354h-291z" />
    <glyph glyph-name="Tcedilla" unicode="&#x162;" horiz-adv-x="1352" 
d="M588 -294q0 60 -116 59h-57l17 116l78 119h-62l254 1185h-432l53 258h1168l-53 -258h-432l-254 -1185h-58l-78 -120q159 -26 159 -164q0 -95 -72 -153.5t-186 -58.5t-191 36l28 133q58 -27 146 -27t88 60z" />
    <glyph glyph-name="tcedilla" unicode="&#x163;" horiz-adv-x="846" 
d="M414 -294q0 60 -116 59h-57l17 116l92 140q-140 56 -140 200q0 43 11 96l116 537h-175l47 230h175l56 267h293l-57 -267h235l-48 -230h-234l-104 -479q-8 -37 -8 -77q0 -85 152 -85q31 0 52 3l-46 -222q-47 -8 -91 -8t-72 2l-70 -108q159 -26 159 -164q0 -95 -72 -153.5
t-186 -58.5t-191 36l28 133q59 -27 146 -27q88 0 88 60z" />
    <glyph glyph-name="Tcaron" unicode="&#x164;" horiz-adv-x="1352" 
d="M448 0l254 1185h-432l53 258h1168l-53 -258h-432l-254 -1185h-304zM621 1925h250l92 -191h18l172 191h275l-328 -335h-291z" />
    <glyph glyph-name="tcaron" unicode="&#x165;" horiz-adv-x="846" 
d="M568 -14q-177 0 -267.5 60t-90.5 175q0 43 11 96l116 537h-175l47 230h175l56 267h293l-57 -267h235l-48 -230h-234l-104 -479q-8 -37 -8 -77q0 -85 152 -85q31 0 52 3l-46 -222q-46 -8 -107 -8zM842 1231l107 504h251l-157 -504h-201z" />
    <glyph glyph-name="Tbar" unicode="&#x166;" horiz-adv-x="1352" 
d="M1006 1185l-82 -384h283l-45 -218h-285l-125 -583h-304l125 583h-280l45 218h282l82 384h-432l53 258h1168l-53 -258h-432z" />
    <glyph glyph-name="tbar" unicode="&#x167;" horiz-adv-x="843" 
d="M517 298q0 -85 152 -85q31 0 52 3l-46 -222q-46 -8 -107 -8q-177 0 -267.5 60t-90.5 175q0 43 11 96l38 175h-175l34 162h176l43 200h-175l47 230h175l56 267h293l-57 -267h235l-48 -230h-234l-43 -200h233l-34 -162h-235l-25 -117q-8 -37 -8 -77z" />
    <glyph glyph-name="Utilde" unicode="&#x168;" horiz-adv-x="1564" 
d="M1225 1751q83 0 98 104h181q-18 -128 -91 -202.5t-171 -74.5q-97 0 -159.5 49.5t-91 72t-61.5 22.5q-82 0 -97 -104h-181q27 197 122.5 237t151.5 40t99 -22.5t76.5 -49.5t62.5 -49.5t61 -22.5zM362 95q-152 132 -152 338q0 67 13 126l187 884h305l-186 -877
q-40 -184 48 -258t217 -74q195 0 255 106t75 173l198 930h304l-211 -997q-48 -228 -215.5 -355.5t-426.5 -127.5t-411 132z" />
    <glyph glyph-name="utilde" unicode="&#x169;" horiz-adv-x="1305" 
d="M1027 1420q76 0 95 124h184q-16 -136 -90.5 -216.5t-176.5 -80.5t-169.5 67.5t-91 82t-46.5 14.5q-75 0 -94 -124h-184q16 136 90.5 216.5t175.5 80.5q102 0 169.5 -67.5t91 -82t46.5 -14.5zM445 401q0 -173 184 -173q152 0 202.5 89.5t61.5 141.5l137 644h292
l-233 -1103h-283l36 167h-18q-50 -88 -138 -139.5t-184 -51.5q-172 0 -267.5 88t-95.5 234q0 60 15 141l139 664h293l-131 -616q-10 -42 -10 -86z" />
    <glyph glyph-name="Umacron" unicode="&#x16a;" horiz-adv-x="1564" 
d="M682 1632l37 181h746l-38 -181h-745zM362 95q-152 132 -152 338q0 67 13 126l187 884h305l-186 -877q-40 -184 48 -258t217 -74q195 0 255 106t75 173l198 930h304l-211 -997q-48 -228 -215.5 -355.5t-426.5 -127.5t-411 132z" />
    <glyph glyph-name="umacron" unicode="&#x16b;" horiz-adv-x="1305" 
d="M481 1316l38 180h735l-38 -180h-735zM445 401q0 -173 184 -173q152 0 202.5 89.5t61.5 141.5l137 644h292l-233 -1103h-283l36 167h-18q-50 -88 -138 -139.5t-184 -51.5q-172 0 -267.5 88t-95.5 234q0 60 15 141l139 664h293l-131 -616q-10 -42 -10 -86z" />
    <glyph glyph-name="Ubreve" unicode="&#x16c;" horiz-adv-x="1564" 
d="M1478 1915q-22 -154 -134 -245t-280 -91t-276 86.5t-108 218.5q0 15 2 31h205v-21q0 -63 51 -103.5t130 -40.5q168 0 205 165h205zM362 95q-152 132 -152 338q0 67 13 126l187 884h305l-186 -877q-40 -184 48 -258t217 -74q195 0 255 106t75 173l198 930h304l-211 -997
q-48 -228 -215.5 -355.5t-426.5 -127.5t-411 132z" />
    <glyph glyph-name="ubreve" unicode="&#x16d;" horiz-adv-x="1305" 
d="M691 1564q0 -60 50 -101.5t132 -41.5q183 0 214 181h206q-16 -161 -130 -256t-292 -95t-282.5 87t-104.5 218q0 26 4 46h205q-2 -12 -2 -38zM445 401q0 -173 184 -173q152 0 202.5 89.5t61.5 141.5l137 644h292l-233 -1103h-283l36 167h-18q-50 -88 -138 -139.5
t-184 -51.5q-172 0 -267.5 88t-95.5 234q0 60 15 141l139 664h293l-131 -616q-10 -42 -10 -86z" />
    <glyph glyph-name="Uring" unicode="&#x16e;" horiz-adv-x="1564" 
d="M362 95q-152 132 -152 338q0 67 13 126l187 884h305l-186 -877q-40 -184 48 -258t217 -74q195 0 255 106t75 173l198 930h304l-211 -997q-48 -228 -215.5 -355.5t-426.5 -127.5t-411 132zM1094 1714q46 0 76 29.5t30 74.5t-30 74t-76 29t-75.5 -28.5t-29.5 -74.5
t29.5 -75t75.5 -29zM849 1819q0 104 70.5 171t174.5 67q105 0 175.5 -67t70.5 -171t-70 -172.5t-176 -68.5t-175.5 68.5t-69.5 172.5z" />
    <glyph glyph-name="uring" unicode="&#x16f;" horiz-adv-x="1305" 
d="M886 1387q46 0 76 29.5t30 74.5t-30 74t-76 29t-75.5 -29t-29.5 -75t29.5 -74.5t75.5 -28.5zM886 1251q-106 0 -175.5 68.5t-69.5 172.5t70.5 171t174.5 67q105 0 175.5 -67t70.5 -171t-70 -172.5t-176 -68.5zM445 401q0 -173 184 -173q152 0 202.5 89.5t61.5 141.5
l137 644h292l-233 -1103h-283l36 167h-18q-50 -88 -138 -139.5t-184 -51.5q-172 0 -267.5 88t-95.5 234q0 60 15 141l139 664h293l-131 -616q-10 -42 -10 -86z" />
    <glyph glyph-name="Uhungarumlaut" unicode="&#x170;" horiz-adv-x="1564" 
d="M965 1908h270l-345 -318h-244zM1402 1908h270l-345 -318h-244zM362 95q-152 132 -152 338q0 67 13 126l187 884h305l-186 -877q-40 -184 48 -258t217 -74q195 0 255 106t75 173l198 930h304l-211 -997q-48 -228 -215.5 -355.5t-426.5 -127.5t-411 132z" />
    <glyph glyph-name="uhungarumlaut" unicode="&#x171;" horiz-adv-x="1305" 
d="M445 401q0 -173 184 -173q152 0 202.5 89.5t61.5 141.5l137 644h292l-233 -1103h-283l36 167h-18q-50 -88 -138 -139.5t-184 -51.5q-172 0 -267.5 88t-95.5 234q0 60 15 141l139 664h293l-131 -616q-10 -42 -10 -86zM791 1634h261l-317 -353h-231zM1227 1634h261
l-317 -353h-231z" />
    <glyph glyph-name="Uogonek" unicode="&#x172;" horiz-adv-x="1564" 
d="M913 -194q0 -93 129 -93q32 0 44 2l-34 -161q-50 -12 -105 -12q-114 0 -183.5 56t-69.5 153q0 56 34.5 110.5t91.5 91.5l6 18q-12 -3 -98 -3t-189 33.5t-216 128t-113 303.5q0 65 13 126l187 884h305l-186 -877q-11 -48 -11 -103q0 -107 74.5 -168t201.5 -61
q195 0 255.5 106.5t74.5 172.5l198 930h304l-211 -997q-58 -271 -280 -397q-108 -67 -165 -126t-57 -117z" />
    <glyph glyph-name="uogonek" unicode="&#x173;" horiz-adv-x="1305" 
d="M445 401q0 -173 184 -173q153 0 202.5 89t61.5 142l137 644h292l-227 -1072q-222 -99 -222 -225q0 -43 31.5 -67t78.5 -24t67 5l-34 -164q-56 -14 -112 -14q-114 0 -182.5 55t-68.5 144q0 152 189 253l2 11h-36l34 162h-18q-52 -91 -142 -141t-184 -50
q-170 0 -264.5 88.5t-94.5 233.5q0 60 15 141l139 664h293l-131 -616q-10 -48 -10 -86z" />
    <glyph glyph-name="Wcircumflex" unicode="&#x174;" horiz-adv-x="2067" 
d="M681 0h-285l-76 1443h302l16 -1017h16l482 1017h245l59 -1017h16l445 1017h311l-685 -1443h-291l-70 955h-16zM1687 1590h-249l-92 191h-18l-172 -191h-275l328 335h291z" />
    <glyph glyph-name="wcircumflex" unicode="&#x175;" horiz-adv-x="1735" 
d="M1306 0h-312l-35 758h-18l-355 -758h-306l-60 1103h284l5 -787h18l355 787h283l25 -791h18l334 791h291zM1462 1251h-250l-104 209h-18l-193 -209h-276l350 354h291z" />
    <glyph glyph-name="Ycircumflex" unicode="&#x176;" horiz-adv-x="1451" 
d="M1377 1590h-249l-92 191h-18l-172 -191h-275l328 335h291zM500 0l114 531l-310 912h316l196 -607h18l447 607h330l-697 -924l-110 -519h-304z" />
    <glyph glyph-name="ycircumflex" unicode="&#x177;" horiz-adv-x="1208" 
d="M1199 1251h-250l-104 209h-18l-193 -209h-276l350 354h291zM134 -169q144 0 203 122l22 44l-144 1106h297l64 -822h18l405 822h312l-630 -1143q-108 -201 -232 -282t-318 -81q-37 0 -82 2.5t-50 2.5l46 235q24 -6 89 -6z" />
    <glyph glyph-name="Ydieresis" unicode="&#x178;" horiz-adv-x="1451" 
d="M1250 1579q-34 0 -62 11.5t-49 31.5t-32.5 48t-11.5 77.5t44 92t94 42.5q51 0 79.5 -11t49.5 -31.5t32.5 -48t11.5 -60.5t-11.5 -61t-32.5 -48t-49.5 -31.5t-62.5 -11.5zM782 1579q-34 0 -62 11.5t-49 31.5t-32.5 48t-11.5 77.5t43.5 92t111.5 42.5t112 -42.5t44 -92
t-11.5 -77.5t-32.5 -48t-49.5 -31.5t-62.5 -11.5zM500 0l114 531l-310 912h316l196 -607h18l447 607h330l-697 -924l-110 -519h-304z" />
    <glyph glyph-name="Zacute" unicode="&#x179;" horiz-adv-x="1384" 
d="M103 204l915 963l2 18h-689l53 258h1076l-42 -203l-913 -964l-2 -18h724l-53 -258h-1113zM1143 1908h315l-381 -318h-277z" />
    <glyph glyph-name="zacute" unicode="&#x17a;" horiz-adv-x="1160" 
d="M81 172l689 681l2 18h-532l49 232h898l-41 -192l-652 -661l-1 -18h519l-48 -232h-918zM936 1634h310l-361 -353h-272z" />
    <glyph glyph-name="Zdotaccent" unicode="&#x17b;" horiz-adv-x="1384" 
d="M103 204l915 963l2 18h-689l53 258h1076l-42 -203l-913 -964l-2 -18h724l-53 -258h-1113zM980 1579q-34 0 -63 12t-50 33t-32.5 50t-11.5 80.5t44.5 96t112.5 44.5t113 -44.5t45 -132.5t-62 -113.5t-96 -25.5z" />
    <glyph glyph-name="zdotaccent" unicode="&#x17c;" horiz-adv-x="1160" 
d="M81 172l689 681l2 18h-532l49 232h898l-41 -192l-652 -661l-1 -18h519l-48 -232h-918zM809 1274q-34 0 -63.5 12.5t-51 34.5t-34 52t-12.5 65t12.5 65t34 52t51 34.5t63.5 12.5t63.5 -12.5t51 -34.5t34 -52t12.5 -65t-12.5 -65t-34 -52t-51 -34.5t-63.5 -12.5z" />
    <glyph glyph-name="Zcaron" unicode="&#x17d;" horiz-adv-x="1384" 
d="M627 1925h250l92 -191h18l172 191h275l-328 -335h-291zM103 204l915 963l2 18h-689l53 258h1076l-42 -203l-913 -964l-2 -18h724l-53 -258h-1113z" />
    <glyph glyph-name="zcaron" unicode="&#x17e;" horiz-adv-x="1160" 
d="M81 172l689 681l2 18h-532l49 232h898l-41 -192l-652 -661l-1 -18h519l-48 -232h-918zM639 1251l-200 354h249l103 -209h18l194 209h277l-350 -354h-291z" />
    <glyph glyph-name="florin" unicode="&#x192;" horiz-adv-x="1415" 
d="M1149 1173.5q-61 -45.5 -98 -143.5l-59 -156h339l-45 -217h-372l-103 -271q-150 -408 -534 -408q-120 0 -237 38l51 239q87 -34 180 -34q92 0 150 44t92 137l98 255h-326l45 217h359l70 188q144 399 569 399q116 0 203 -30l-51 -237q-65 25 -168 25q-102 0 -163 -45.5z
" />
    <glyph glyph-name="Ohorn" unicode="&#x1a0;" horiz-adv-x="1698" 
d="M1290 816q0 189 -87.5 291.5t-233.5 102.5q-197 0 -334 -176t-137 -427q0 -169 87.5 -271.5t234.5 -102.5q199 0 298.5 128t135.5 238.5t36 216.5zM1597 863q0 -139 -27 -254.5t-102.5 -264.5t-257.5 -265t-407 -116q-276 0 -445.5 175t-169.5 439t103 467.5t285.5 320.5
t391.5 117q210 0 298.5 -57t134.5 -90.5t70 -33.5q57 0 89.5 27t46.5 88l36 169h230l-51 -241q-23 -109 -84.5 -164.5t-143.5 -55.5q-26 0 -58 14l-5 -15q66 -121 66 -260z" />
    <glyph glyph-name="ohorn" unicode="&#x1a1;" horiz-adv-x="1441" 
d="M1243 618q0 -111 -44.5 -232.5t-173.5 -265.5t-402 -144q-223 0 -358 133t-135 349q0 284 174.5 476.5t448.5 192.5q108 0 176.5 -29.5t132.5 -72.5t105 -43q90 0 116 116l36 169h230l-52 -246q-46 -215 -227 -215q-27 0 -53 13l-5 -13q31 -77 31 -188zM488 283.5
q55 -68.5 163 -68.5t197.5 120.5t89.5 292.5q0 124 -53 192.5t-134 68.5t-137 -33t-118.5 -122t-62.5 -236q0 -146 55 -214.5z" />
    <glyph glyph-name="Uhorn" unicode="&#x1af;" horiz-adv-x="1812" 
d="M1694 1077q-99 0 -141 23l-138 -654q-48 -228 -215.5 -355.5t-426.5 -127.5t-411 132t-152 338q0 67 13 126l187 884h305l-186 -877q-40 -184 48 -258t217 -74q195 0 255 106t75 173l198 930h304l-29 -136q22 -15 63 -15q40 0 66 24.5t40 89.5l36 169h230l-48 -224
q-29 -138 -110 -206t-180 -68z" />
    <glyph glyph-name="uhorn" unicode="&#x1b0;" horiz-adv-x="1571" 
d="M445 401q0 -173 184 -173q152 0 202.5 89.5t61.5 141.5l137 644h292l-11 -53q22 -8 56 -8q75 0 100 114l36 169h230l-48 -224q-29 -138 -110 -206t-196 -68q-65 0 -112 17l-178 -844h-283l36 167h-18q-50 -88 -138 -139.5t-184 -51.5q-172 0 -267.5 88t-95.5 234
q0 60 15 141l139 664h293l-131 -616q-10 -42 -10 -86z" />
    <glyph glyph-name="u01C4" unicode="&#x1c4;" horiz-adv-x="2930" 
d="M2173 1925h250l92 -191h18l172 191h275l-328 -335h-291zM1649 204l915 963l2 18h-689l53 258h1076l-42 -203l-913 -964l-2 -18h724l-53 -258h-1113zM729 257q206 0 337.5 156.5t131.5 408.5q0 170 -92 267.5t-255 97.5h-191l-201 -930h270zM918 1443q276 0 433.5 -155.5
t157.5 -431.5q0 -371 -174 -570t-322 -242.5t-257 -43.5h-655l306 1443h511z" />
    <glyph glyph-name="u01C5" unicode="&#x1c5;" horiz-adv-x="2706" 
d="M1627 172l689 681l2 18h-532l49 232h898l-41 -192l-652 -661l-1 -18h519l-48 -232h-918zM2185 1251l-200 354h249l103 -209h18l194 209h277l-350 -354h-291zM729 257q206 0 337.5 156.5t131.5 408.5q0 170 -92 267.5t-255 97.5h-191l-201 -930h270zM918 1443
q276 0 433.5 -155.5t157.5 -431.5q0 -371 -174 -570t-322 -242.5t-257 -43.5h-655l306 1443h511z" />
    <glyph glyph-name="u01C6" unicode="&#x1c6;" horiz-adv-x="2497" 
d="M1418 172l689 681l2 18h-532l49 232h898l-41 -192l-652 -661l-1 -18h519l-48 -232h-918zM1976 1251l-200 354h249l103 -209h18l194 209h277l-350 -354h-291zM889 379q67 90 67 259q0 170 -83 203t-139 33t-112.5 -31t-123.5 -117.5t-67 -262.5q0 -110 59.5 -175
t161.5 -65q56 0 113 33t124 123zM129 413q0 305 161 506.5t398 201.5q181 0 240.5 -81t72.5 -125h18l130 609h292l-323 -1524h-283l32 153h-18q-124 -170 -338 -170q-168 0 -275 116.5t-107 313.5z" />
    <glyph glyph-name="u01C7" unicode="&#x1c7;" horiz-adv-x="2447" 
d="M1044 0h-944l307 1443h303l-253 -1180h641zM1598 413v-9q1 -77 49 -122t131 -45q167 0 212 209l213 997h302l-222 -1042q-45 -213 -176 -325.5t-341 -112.5t-339 117t-123 302v12q0 11 1 19h293z" />
    <glyph glyph-name="u01C8" unicode="&#x1c8;" horiz-adv-x="1818" 
d="M1044 0h-944l307 1443h303l-253 -1180h641zM1618.5 1297q-47.5 40 -47.5 104t47 107t145 43t125 -56t27 -87t-12.5 -58.5t-48 -60t-112 -32.5t-124 40zM1085 -136q26 -6 76 -6q105 0 132 120l240 1125h291l-247 -1158q-33 -156 -138.5 -237t-270.5 -82q-53 0 -131 12z
" />
    <glyph glyph-name="u01C9" unicode="&#x1c9;" horiz-adv-x="1192" 
d="M399 1524h293l-324 -1524h-293zM992.5 1297q-47.5 40 -47.5 104t47 107t145 43t125 -56t27 -87t-12.5 -58.5t-48 -60t-112 -32.5t-124 40zM535 -142q105 0 132 120l240 1125h291l-247 -1158q-33 -156 -138.5 -237t-270.5 -82q-53 0 -131 12l48 226q26 -6 76 -6z" />
    <glyph glyph-name="u01CA" unicode="&#x1ca;" horiz-adv-x="2802" 
d="M100 0l307 1443h231l479 -929h18l202 929h293l-307 -1443h-229l-483 922h-18l-200 -922h-293zM1953 413v-9q1 -77 49 -122t131 -45q167 0 212 209l213 997h302l-222 -1042q-45 -213 -176 -325.5t-341 -112.5t-339 117t-123 302v12q0 11 1 19h293z" />
    <glyph glyph-name="u01CB" unicode="&#x1cb;" horiz-adv-x="2173" 
d="M100 0l307 1443h231l479 -929h18l202 929h293l-307 -1443h-229l-483 922h-18l-200 -922h-293zM1973.5 1297q-47.5 40 -47.5 104t47 107t145 43t125 -56t27 -87t-12.5 -58.5t-48 -60t-112 -32.5t-124 40zM1516 -142q105 0 132 120l240 1125h291l-247 -1158
q-33 -156 -138.5 -237t-270.5 -82q-53 0 -131 12l48 226q26 -6 76 -6z" />
    <glyph glyph-name="u01CC" unicode="&#x1cc;" horiz-adv-x="1906" 
d="M923 1127q142 0 236 -90.5t94 -229.5q0 -58 -14 -131l-142 -676h-291l132 628q10 46 10 103.5t-52.5 104.5t-118.5 47q-114 0 -186 -63.5t-92 -160.5l-140 -659h-292l236 1112h282l-37 -175h18q118 190 357 190zM1706.5 1297q-47.5 40 -47.5 104t47 107t145 43t125 -56
t27 -87t-12.5 -58.5t-48 -60t-112 -32.5t-124 40zM1173 -136q26 -6 76 -6q105 0 132 120l240 1125h291l-247 -1158q-33 -156 -138.5 -237t-270.5 -82q-53 0 -131 12z" />
    <glyph glyph-name="Acaron" unicode="&#x1cd;" horiz-adv-x="1501" 
d="M702 1925h250l92 -191h18l172 191h275l-328 -335h-291zM612 577h381l-58 565h-19zM1007 344h-509l-186 -344h-315l820 1443h349l187 -1443h-311z" />
    <glyph glyph-name="acaron" unicode="&#x1ce;" horiz-adv-x="1202" 
d="M620 1251l-200 354h249l103 -209h18l194 209h277l-350 -354h-291zM723 136q-105 -153 -323 -153q-128 0 -222.5 85.5t-94.5 215.5q0 167 129.5 265.5t361.5 106.5l274 9l15 68q5 25 5 40q0 57 -48.5 90.5t-133.5 33.5q-147 0 -192 -98h-275q36 152 168 240t326 88
q195 0 318.5 -89t123.5 -236q0 -53 -9 -89l-151 -713h-283l29 136h-18zM425.5 430q-56.5 -39 -56.5 -99t46 -94.5t129 -34.5t155 52t90 132l21 95l-228 -8q-100 -4 -156.5 -43z" />
    <glyph glyph-name="Icaron" unicode="&#x1cf;" horiz-adv-x="653" 
d="M270 1925h250l92 -191h18l172 191h275l-328 -335h-291zM100 0l307 1443h304l-307 -1443h-304z" />
    <glyph glyph-name="icaron" unicode="&#x1d0;" horiz-adv-x="599" 
d="M313 1103h291l-234 -1103h-291zM360 1251l-200 354h249l103 -209h18l194 209h277l-350 -354h-291z" />
    <glyph glyph-name="Ocaron" unicode="&#x1d1;" horiz-adv-x="1617" 
d="M1283 820q0 188 -89 288.5t-235 100.5q-197 0 -332.5 -177.5t-135.5 -433.5q0 -164 89 -264.5t237 -100.5q197 0 295.5 128.5t134.5 240.5t36 218zM307 183q-126 127 -126 389q0 263 102.5 469t283 322.5t404.5 116.5q283 0 452.5 -173t169.5 -440q0 -397 -225 -650.5
t-578 -253.5q-127 0 -242 46.5t-241 173.5zM683 1924h250l92 -191h18l172 191h275l-328 -335h-291z" />
    <glyph glyph-name="ocaron" unicode="&#x1d2;" horiz-adv-x="1289" 
d="M642 -24q-237 0 -372 133t-135 349q0 283 174 476t449 193q221 0 355.5 -133t134.5 -350q0 -281 -126 -421.5t-240.5 -193.5t-239.5 -53zM493 283.5q55 -68.5 163 -68.5t197.5 120.5t89.5 292.5q0 124 -53 192.5t-134 68.5t-137 -33t-118.5 -122t-62.5 -236
q0 -146 55 -214.5zM650 1251l-200 354h249l103 -209h18l194 209h277l-350 -354h-291z" />
    <glyph glyph-name="Ucaron" unicode="&#x1d3;" horiz-adv-x="1564" 
d="M362 95q-152 132 -152 338q0 67 13 126l187 884h305l-186 -877q-40 -184 48 -258t217 -74q195 0 255 106t75 173l198 930h304l-211 -997q-48 -228 -215.5 -355.5t-426.5 -127.5t-411 132zM725 1925h250l92 -191h18l172 191h275l-328 -335h-291z" />
    <glyph glyph-name="ucaron" unicode="&#x1d4;" horiz-adv-x="1305" 
d="M445 401q0 -173 184 -173q152 0 202.5 89.5t61.5 141.5l137 644h292l-233 -1103h-283l36 167h-18q-50 -88 -138 -139.5t-184 -51.5q-172 0 -267.5 88t-95.5 234q0 60 15 141l139 664h293l-131 -616q-10 -42 -10 -86zM705 1251l-200 354h249l103 -209h18l194 209h277
l-350 -354h-291z" />
    <glyph glyph-name="Udieresismacron" unicode="&#x1d5;" horiz-adv-x="1564" 
d="M1310 1579q-33 0 -61 11t-48.5 31t-32 47.5t-11.5 60.5t11.5 60.5t32 47.5t48.5 31t61 11t61.5 -11t49 -31t32 -47.5t11.5 -60.5t-11.5 -60.5t-32 -47.5t-49 -31t-61.5 -11zM842 1579q-33 0 -61.5 11t-49 31t-32 47.5t-11.5 60.5t11.5 60.5t32 47.5t49 31t61.5 11
t61.5 -11t48.5 -31t31.5 -47.5t11.5 -60.5t-11.5 -60.5t-31.5 -47.5t-48.5 -31t-61.5 -11zM794 2164h745l-36 -168h-745zM362 95q-152 132 -152 338q0 67 13 126l187 884h305l-186 -877q-40 -184 48 -258t217 -74q195 0 255 106t75 173l198 930h304l-211 -997
q-48 -228 -215.5 -355.5t-426.5 -127.5t-411 132z" />
    <glyph glyph-name="udieresismacron" unicode="&#x1d6;" horiz-adv-x="1305" 
d="M558 1678l38 180h735l-38 -180h-735zM981.5 1292.5q-41.5 41.5 -41.5 87.5t10.5 73t30 46.5t46.5 30.5t74.5 11t89 -41.5t41.5 -87.5t-11 -72.5t-42 -57.5t-93.5 -31t-104 41.5zM539 1293q-42 42 -42 88t11 72.5t30.5 46t46 30.5t74.5 11t89 -41.5t41 -87.5t-10.5 -72.5
t-41.5 -57.5t-93.5 -31t-104.5 42zM445 401q0 -173 184 -173q152 0 202.5 89.5t61.5 141.5l137 644h292l-233 -1103h-283l36 167h-18q-50 -88 -138 -139.5t-184 -51.5q-172 0 -267.5 88t-95.5 234q0 60 15 141l139 664h293l-131 -616q-10 -42 -10 -86z" />
    <glyph glyph-name="Udieresisacute" unicode="&#x1d7;" horiz-adv-x="1564" 
d="M362 95q-152 132 -152 338q0 67 13 126l187 884h305l-186 -877q-40 -184 48 -258t217 -74q195 0 255 106t75 173l198 930h304l-211 -997q-48 -228 -215.5 -355.5t-426.5 -127.5t-411 132zM1310 1579q-34 0 -62.5 11.5t-49.5 31.5t-32.5 48t-11.5 77.5t44 92t94 42.5
q51 0 79.5 -11t49.5 -31.5t32.5 -48t11.5 -60.5t-11.5 -61t-32.5 -48t-49 -31.5t-62 -11.5zM842 1579q-34 0 -62.5 11.5t-49.5 31.5t-32.5 48t-11.5 77.5t44 92t112 42.5t111.5 -42.5t43.5 -92t-11.5 -77.5t-32.5 -48t-49 -31.5t-62 -11.5zM1178 2179h292l-269 -242h-240z
" />
    <glyph glyph-name="udieresisacute" unicode="&#x1d8;" horiz-adv-x="1305" 
d="M445 401q0 -173 184 -173q152 0 202.5 89.5t61.5 141.5l137 644h292l-233 -1103h-283l36 167h-18q-50 -88 -138 -139.5t-184 -51.5q-172 0 -267.5 88t-95.5 234q0 60 15 141l139 664h293l-131 -616q-10 -42 -10 -86zM1100 1258q-34 0 -62 11.5t-49 31.5t-32.5 48
t-11.5 77.5t44 92t94 42.5q51 0 79.5 -11t49.5 -31.5t32.5 -48t11.5 -60.5t-11.5 -61t-32.5 -48t-49.5 -31.5t-62.5 -11.5zM632 1258q-34 0 -62 11.5t-49 31.5t-32.5 48t-11.5 77.5t43.5 92t111.5 42.5t112 -42.5t44 -92t-11.5 -77.5t-32.5 -48t-49.5 -31.5t-62.5 -11.5z
M1021 1959h281l-314 -302h-240z" />
    <glyph glyph-name="Udieresiscaron" unicode="&#x1d9;" horiz-adv-x="1564" 
d="M362 95q-152 132 -152 338q0 67 13 126l187 884h305l-186 -877q-40 -184 48 -258t217 -74q195 0 255 106t75 173l198 930h304l-211 -997q-48 -228 -215.5 -355.5t-426.5 -127.5t-411 132zM761 2210h263l107 -168h18l176 168h288l-344 -300h-291zM1305 1564q-33 0 -61 11
t-48.5 30.5t-31.5 46t-11 57.5t11 57t31.5 45.5t48.5 30.5t61 11t60.5 -11t48 -30.5t31.5 -45.5t11 -57t-11 -57.5t-31.5 -46t-48 -30.5t-60.5 -11zM837 1564q-33 0 -61 11t-48.5 30.5t-31.5 46t-11 57.5t11 57t31.5 45.5t48.5 30.5t61 11t60.5 -11t48 -30.5t31.5 -45.5
t11 -57t-11 -57.5t-31.5 -46t-48 -30.5t-60.5 -11z" />
    <glyph glyph-name="udieresiscaron" unicode="&#x1da;" horiz-adv-x="1305" 
d="M445 401q0 -173 184 -173q152 0 202.5 89.5t61.5 141.5l137 644h292l-233 -1103h-283l36 167h-18q-50 -88 -138 -139.5t-184 -51.5q-172 0 -267.5 88t-95.5 234q0 60 15 141l139 664h293l-131 -616q-10 -42 -10 -86zM560 1967h249l98 -200h18l183 200h277l-340 -345h-291
zM982.5 1292.5q-41.5 41.5 -41.5 87.5t10.5 73t30 46.5t46.5 30.5t74.5 11t89 -41.5t41.5 -87.5t-11 -72.5t-42 -57.5t-93.5 -31t-104 41.5zM540 1293q-42 42 -42 88t11 72.5t30.5 46t46 30.5t74.5 11t89 -41.5t41 -87.5t-10.5 -72.5t-41.5 -57.5t-93.5 -31t-104.5 42z" />
    <glyph glyph-name="Udieresisgrave" unicode="&#x1db;" horiz-adv-x="1564" 
d="M362 95q-152 132 -152 338q0 67 13 126l187 884h305l-186 -877q-40 -184 48 -258t217 -74q195 0 255 106t75 173l198 930h304l-211 -997q-48 -228 -215.5 -355.5t-426.5 -127.5t-411 132zM1310 1579q-34 0 -62.5 11.5t-49.5 31.5t-32.5 48t-11.5 77.5t44 92t94 42.5
q51 0 79.5 -11t49.5 -31.5t32.5 -48t11.5 -60.5t-11.5 -61t-32.5 -48t-49 -31.5t-62 -11.5zM842 1579q-34 0 -62.5 11.5t-49.5 31.5t-32.5 48t-11.5 77.5t44 92t112 42.5t111.5 -42.5t43.5 -92t-11.5 -77.5t-32.5 -48t-49 -31.5t-62 -11.5zM965 1937l-167 242h292l115 -242
h-240z" />
    <glyph glyph-name="udieresisgrave" unicode="&#x1dc;" horiz-adv-x="1305" 
d="M445 401q0 -173 184 -173q152 0 202.5 89.5t61.5 141.5l137 644h292l-233 -1103h-283l36 167h-18q-50 -88 -138 -139.5t-184 -51.5q-172 0 -267.5 88t-95.5 234q0 60 15 141l139 664h293l-131 -616q-10 -42 -10 -86zM1100 1258q-34 0 -62 11.5t-49 31.5t-32.5 48
t-11.5 77.5t44 92t94 42.5q51 0 79.5 -11t49.5 -31.5t32.5 -48t11.5 -60.5t-11.5 -61t-32.5 -48t-49.5 -31.5t-62.5 -11.5zM632 1258q-34 0 -62 11.5t-49 31.5t-32.5 48t-11.5 77.5t43.5 92t111.5 42.5t112 -42.5t44 -92t-11.5 -77.5t-32.5 -48t-49.5 -31.5t-62.5 -11.5z
M768 1657l-181 302h281l140 -302h-240z" />
    <glyph glyph-name="Adieresismacron" unicode="&#x1de;" horiz-adv-x="1501" 
d="M1287 1579q-33 0 -61 11t-48.5 31t-32 47.5t-11.5 60.5t11.5 60.5t32 47.5t48.5 31t61 11t61.5 -11t49 -31t32 -47.5t11.5 -60.5t-11.5 -60.5t-32 -47.5t-49 -31t-61.5 -11zM819 1579q-33 0 -61.5 11t-49 31t-32 47.5t-11.5 60.5t11.5 60.5t32 47.5t49 31t61.5 11
t61.5 -11t48.5 -31t31.5 -47.5t11.5 -60.5t-11.5 -60.5t-31.5 -47.5t-48.5 -31t-61.5 -11zM771 2164h745l-36 -168h-745zM612 577h381l-58 565h-19zM1007 344h-509l-186 -344h-315l820 1443h349l187 -1443h-311z" />
    <glyph glyph-name="adieresismacron" unicode="&#x1df;" horiz-adv-x="1202" 
d="M473 1678l38 180h735l-38 -180h-735zM896.5 1292.5q-41.5 41.5 -41.5 87.5t10.5 73t30 46.5t46.5 30.5t74.5 11t89 -41.5t41.5 -87.5t-11 -72.5t-42 -57.5t-93.5 -31t-104 41.5zM454 1293q-42 42 -42 88t11 72.5t30.5 46t46 30.5t74.5 11t89 -41.5t41 -87.5t-10.5 -72.5
t-41.5 -57.5t-93.5 -31t-104.5 42zM723 136q-105 -153 -323 -153q-128 0 -222.5 85.5t-94.5 215.5q0 167 129.5 265.5t361.5 106.5l274 9l15 68q5 25 5 40q0 57 -48.5 90.5t-133.5 33.5q-147 0 -192 -98h-275q36 152 168 240t326 88q195 0 318.5 -89t123.5 -236
q0 -53 -9 -89l-151 -713h-283l29 136h-18zM425.5 430q-56.5 -39 -56.5 -99t46 -94.5t129 -34.5t155 52t90 132l21 95l-228 -8q-100 -4 -156.5 -43z" />
    <glyph glyph-name="Adotmacron" unicode="&#x1e0;" horiz-adv-x="1501" 
d="M1052 1575q-34 0 -62.5 11.5t-49.5 31.5t-32.5 47.5t-11.5 59.5t11.5 59t32.5 47t49.5 31t62.5 11t62.5 -11t49.5 -31t32.5 -47t11.5 -59t-11.5 -59.5t-32.5 -47.5t-49.5 -31.5t-62.5 -11.5zM735 1996l36 168h745l-35 -168h-746zM612 577h381l-58 565h-19zM1007 344h-509
l-186 -344h-315l820 1443h349l187 -1443h-311z" />
    <glyph glyph-name="adotmacron" unicode="&#x1e1;" horiz-adv-x="1202" 
d="M473 1678l38 180h735l-38 -180h-735zM781 1251q-33 0 -61 11.5t-48 31.5t-31 47t-11 59t11 59.5t31 48t48 32t61 11.5t60.5 -11.5t47.5 -32t31 -48t11 -59.5t-11 -59t-31 -47t-47.5 -31.5t-60.5 -11.5zM723 136q-105 -153 -323 -153q-128 0 -222.5 85.5t-94.5 215.5
q0 167 129.5 265.5t361.5 106.5l274 9l15 68q5 25 5 40q0 57 -48.5 90.5t-133.5 33.5q-147 0 -192 -98h-275q36 152 168 240t326 88q195 0 318.5 -89t123.5 -236q0 -53 -9 -89l-151 -713h-283l29 136h-18zM425.5 430q-56.5 -39 -56.5 -99t46 -94.5t129 -34.5t155 52t90 132
l21 95l-228 -8q-100 -4 -156.5 -43z" />
    <glyph glyph-name="AEmacron" unicode="&#x1e2;" horiz-adv-x="2059" 
d="M1268 1632l37 181h746l-38 -181h-745zM1002 364h-465l-234 -364h-307l903 1443h1259l-54 -258h-650l-75 -341h614l-50 -239h-613l-77 -347h650l-52 -258h-929zM1050 1202l-379 -604h379l130 604h-130z" />
    <glyph glyph-name="aemacron" unicode="&#x1e3;" horiz-adv-x="1927" 
d="M679 1316l38 180h735l-38 -180h-735zM427 430q-57 -39 -57 -100t46.5 -98t106.5 -37q104 0 177 54.5t91 136.5l21 95l-228 -8q-100 -4 -157 -43zM1600 712q0 81 -55 136t-148 55q-154 0 -209.5 -91t-69.5 -143h479q3 7 3 43zM468 -24q-162 0 -272.5 89.5t-110.5 222.5
q0 263 186.5 317t304.5 58l274 9l15 61q2 13 3.5 21t1.5 19q0 57 -49 90.5t-134 33.5q-148 0 -191 -98h-275q36 155 164.5 241.5t310.5 86.5t252.5 -60t91.5 -96h18q141 156 347 156q205 0 336.5 -128t131.5 -334q0 -94 -18 -180h-768q-1 -6 -1 -9v-23q0 -122 66 -186
t166 -64q161 0 216 114h281q-39 -155 -177.5 -248t-336.5 -93t-283.5 78.5t-107.5 123.5h-18q-92 -137 -219 -169.5t-205 -32.5z" />
    <glyph glyph-name="Gcaron" unicode="&#x1e6;" horiz-adv-x="1567" 
d="M182 574q0 398 222.5 652t567.5 254q241 0 409 -136t174 -334q1 -7 0.5 -15.5t-0.5 -17.5h-294q-6 104 -91 169t-201 65q-214 0 -346 -175t-132 -441q0 -167 88 -265t239 -98q218 0 287 107t82 170l5 25h-307l47 226h602l-37 -184q-58 -298 -239.5 -455.5t-465.5 -157.5
q-279 0 -444.5 168t-165.5 443zM672 1926h250l92 -191h18l172 191h275l-328 -335h-291z" />
    <glyph glyph-name="gcaron" unicode="&#x1e7;" horiz-adv-x="1327" 
d="M649 237q56 0 112 30.5t122 115.5t66 256q0 107 -58 171t-139 64q-148 0 -234 -112.5t-86 -284.5q0 -171 80.5 -205.5t136.5 -34.5zM133 438q0 289 116 433.5t215.5 197t214.5 52.5q178 0 243 -81.5t80 -128.5h17l42 192h284l-246 -1147q-36 -174 -186 -273.5t-376 -99.5
q-227 0 -365.5 94t-138.5 240h290q5 -54 64 -88.5t168 -34.5t173.5 50t84.5 138l44 194l-18 1q-109 -155 -325 -155q-166 0 -273.5 115t-107.5 301zM645 1252l-200 354h249l103 -209h18l194 209h277l-350 -354h-291z" />
    <glyph glyph-name="Kcaron" unicode="&#x1e8;" horiz-adv-x="1454" 
d="M659 1925h250l92 -191h18l172 191h275l-328 -335h-291zM100 0l307 1443h301l-136 -635h18l659 635h358l-670 -653l382 -790h-340l-293 606l-192 -182l-92 -424h-302z" />
    <glyph glyph-name="kcaron" unicode="&#x1e9;" horiz-adv-x="1223" 
d="M228 2006h250l92 -191h18l172 191h275l-328 -335h-291zM979 1103h340l-529 -482l328 -621h-321l-242 457l-110 -94l-78 -363h-292l324 1524h291l-177 -834h18z" />
    <glyph glyph-name="Oogonek" unicode="&#x1ea;" horiz-adv-x="1627" 
d="M1288 822q0 189 -88.5 288.5t-235.5 99.5q-197 0 -332.5 -177t-135.5 -435q0 -166 89.5 -265.5t235.5 -99.5q199 0 297 129.5t134 241.5t36 218zM928 -194q0 -93 130 -93q33 0 43 2l-33 -161q-50 -12 -105 -12q-114 0 -183.5 56t-69.5 148t48.5 140.5t76.5 65.5l-3 17
q-16 -2 -47 -2q-264 6 -431.5 175.5t-167.5 429.5t101.5 467t282.5 325t406 118q277 0 449.5 -170.5t172.5 -443.5q0 -503 -375 -775q-73 -53 -124.5 -89.5t-111 -87.5t-59.5 -110z" />
    <glyph glyph-name="oogonek" unicode="&#x1eb;" horiz-adv-x="1289" 
d="M494 283q56 -68 151 -68q123 0 210.5 122t87.5 268q0 147 -53 215.5t-133 68.5t-136 -32t-119.5 -121.5t-63.5 -236.5q0 -148 56 -216zM697 -195q0 -92 129 -92q32 0 44 2l-34 -161q-50 -12 -105 -12q-114 0 -183.5 56t-69.5 150t56.5 144.5t83.5 67.5l-2 17h-12
q-213 8 -341 139.5t-128 341.5q0 289 177 479t446 190q220 0 355 -131.5t135 -339.5t-88.5 -367t-241.5 -242q-221 -132 -221 -242z" />
    <glyph glyph-name="Oogonekmacron" unicode="&#x1ec;" horiz-adv-x="1627" 
d="M640 1631l37 181h746l-38 -181h-745zM1288 822q0 189 -88.5 288.5t-235.5 99.5q-197 0 -332.5 -177t-135.5 -435q0 -166 89.5 -265.5t235.5 -99.5q199 0 297 129.5t134 241.5t36 218zM928 -194q0 -93 130 -93q33 0 43 2l-33 -161q-50 -12 -105 -12q-114 0 -183.5 56
t-69.5 148t48.5 140.5t76.5 65.5l-3 17q-16 -2 -47 -2q-264 6 -431.5 175.5t-167.5 429.5t101.5 467t282.5 325t406 118q277 0 449.5 -170.5t172.5 -443.5q0 -503 -375 -775q-73 -53 -124.5 -89.5t-111 -87.5t-59.5 -110z" />
    <glyph glyph-name="oogonekmacron" unicode="&#x1ed;" horiz-adv-x="1289" 
d="M494 283q56 -68 151 -68q123 0 210.5 122t87.5 268q0 147 -53 215.5t-133 68.5t-136 -32t-119.5 -121.5t-63.5 -236.5q0 -148 56 -216zM697 -195q0 -92 129 -92q32 0 44 2l-34 -161q-50 -12 -105 -12q-114 0 -183.5 56t-69.5 150t56.5 144.5t83.5 67.5l-2 17h-12
q-213 8 -341 139.5t-128 341.5q0 289 177 479t446 190q220 0 355 -131.5t135 -339.5t-88.5 -367t-241.5 -242q-221 -132 -221 -242zM426 1316l38 180h735l-38 -180h-735z" />
    <glyph glyph-name="u01F1" unicode="&#x1f1;" horiz-adv-x="2930" 
d="M729 257q206 0 337.5 156.5t131.5 408.5q0 170 -92 267.5t-255 97.5h-191l-201 -930h270zM918 1443q276 0 433.5 -155.5t157.5 -431.5q0 -371 -174 -570t-322 -242.5t-257 -43.5h-655l306 1443h511zM1649 204l915 963l2 18h-689l53 258h1076l-42 -203l-913 -964l-2 -18
h724l-53 -258h-1113z" />
    <glyph glyph-name="u01F2" unicode="&#x1f2;" horiz-adv-x="2706" 
d="M729 257q206 0 337.5 156.5t131.5 408.5q0 170 -92 267.5t-255 97.5h-191l-201 -930h270zM918 1443q276 0 433.5 -155.5t157.5 -431.5q0 -371 -174 -570t-322 -242.5t-257 -43.5h-655l306 1443h511zM1627 172l689 681l2 18h-532l49 232h898l-41 -192l-652 -661l-1 -18
h519l-48 -232h-918z" />
    <glyph glyph-name="u01F3" unicode="&#x1f3;" horiz-adv-x="2497" 
d="M889 379q67 90 67 259q0 170 -83 203t-139 33t-112.5 -31t-123.5 -117.5t-67 -262.5q0 -110 59.5 -175t161.5 -65q56 0 113 33t124 123zM129 413q0 305 161 506.5t398 201.5q181 0 240.5 -81t72.5 -125h18l130 609h292l-323 -1524h-283l32 153h-18q-124 -170 -338 -170
q-168 0 -275 116.5t-107 313.5zM1418 172l689 681l2 18h-532l49 232h898l-41 -192l-652 -661l-1 -18h519l-48 -232h-918z" />
    <glyph glyph-name="Gacute" unicode="&#x1f4;" horiz-adv-x="1567" 
d="M182 574q0 398 222.5 652t567.5 254q241 0 409 -136t174 -334q1 -7 0.5 -15.5t-0.5 -17.5h-294q-6 104 -91 169t-201 65q-214 0 -346 -175t-132 -441q0 -167 88 -265t239 -98q218 0 287 107t82 170l5 25h-307l47 226h602l-37 -184q-58 -298 -239.5 -455.5t-465.5 -157.5
q-279 0 -444.5 168t-165.5 443zM1188 1909h315l-381 -318h-277z" />
    <glyph glyph-name="gacute" unicode="&#x1f5;" horiz-adv-x="1327" 
d="M649 237q56 0 112 30.5t122 115.5t66 256q0 107 -58 171t-139 64q-148 0 -234 -112.5t-86 -284.5q0 -171 80.5 -205.5t136.5 -34.5zM133 438q0 289 116 433.5t215.5 197t214.5 52.5q178 0 243 -81.5t80 -128.5h17l42 192h284l-246 -1147q-36 -174 -186 -273.5t-376 -99.5
q-227 0 -365.5 94t-138.5 240h290q5 -54 64 -88.5t168 -34.5t173.5 50t84.5 138l44 194l-18 1q-109 -155 -325 -155q-166 0 -273.5 115t-107.5 301zM942 1635h310l-361 -353h-272z" />
    <glyph glyph-name="Ngrave" unicode="&#x1f8;" horiz-adv-x="1573" 
d="M100 0l307 1443h231l479 -929h18l202 929h293l-307 -1443h-229l-483 922h-18l-200 -922h-293zM1168 1590h-266l-217 318h306z" />
    <glyph glyph-name="ngrave" unicode="&#x1f9;" horiz-adv-x="1304" 
d="M923 1127q142 0 236 -90.5t94 -229.5q0 -58 -14 -131l-142 -676h-291l132 628q10 46 10 103.5t-52.5 104.5t-118.5 47q-114 0 -186 -63.5t-92 -160.5l-140 -659h-292l236 1112h282l-37 -175h18q118 190 357 190zM632 1287l-250 353h303l212 -353h-265z" />
    <glyph glyph-name="Aringacute" unicode="&#x1fa;" horiz-adv-x="1501" 
d="M1355 2214l-156 -191h-237l129 191h264zM901 1591q-62 60 -62 150t61.5 149.5t154 59.5t154 -59.5t61.5 -149.5t-62 -150t-153.5 -60t-153.5 60zM1004 1779q-16 -20 -12 -44t26 -41t46 -14.5t40 22.5t12 43.5t-26 40.5t-46 15t-40 -22zM612 577h381l-58 565h-19z
M1007 344h-509l-186 -344h-315l820 1443h349l187 -1443h-311z" />
    <glyph glyph-name="aringacute" unicode="&#x1fb;" horiz-adv-x="1202" 
d="M943 1975h251l-248 -236h-213zM733 1438q0 -40 26 -66t65 -26t65.5 26t26.5 66t-26.5 65t-65.5 25t-65 -25t-26 -65zM824 1215q-49 0 -90.5 17t-72 47t-47.5 70.5t-17 88.5t17 88.5t47.5 70t72 46.5t90.5 17t90.5 -17t72 -46.5t47.5 -70t17 -88.5t-17 -88.5t-47.5 -70.5
t-72 -47t-90.5 -17zM723 136q-105 -153 -323 -153q-128 0 -222.5 85.5t-94.5 215.5q0 167 129.5 265.5t361.5 106.5l274 9l15 68q5 25 5 40q0 57 -48.5 90.5t-133.5 33.5q-147 0 -192 -98h-275q36 152 168 240t326 88q195 0 318.5 -89t123.5 -236q0 -53 -9 -89l-151 -713
h-283l29 136h-18zM425.5 430q-56.5 -39 -56.5 -99t46 -94.5t129 -34.5t155 52t90 132l21 95l-228 -8q-100 -4 -156.5 -43z" />
    <glyph glyph-name="AEacute" unicode="&#x1fc;" horiz-adv-x="2059" 
d="M1002 364h-465l-234 -364h-307l903 1443h1259l-54 -258h-650l-75 -341h614l-50 -239h-613l-77 -347h650l-52 -258h-929zM1050 1202l-379 -604h379l130 604h-130zM1827 1908h315l-381 -318h-277z" />
    <glyph glyph-name="aeacute" unicode="&#x1fd;" horiz-adv-x="1927" 
d="M427 430q-57 -39 -57 -100t46.5 -98t106.5 -37q104 0 177 54.5t91 136.5l21 95l-228 -8q-100 -4 -157 -43zM1600 712q0 81 -55 136t-148 55q-154 0 -209.5 -91t-69.5 -143h479q3 7 3 43zM468 -24q-162 0 -272.5 89.5t-110.5 222.5q0 263 186.5 317t304.5 58l274 9l15 61
q2 13 3.5 21t1.5 19q0 57 -49 90.5t-134 33.5q-148 0 -191 -98h-275q36 155 164.5 241.5t310.5 86.5t252.5 -60t91.5 -96h18q141 156 347 156q205 0 336.5 -128t131.5 -334q0 -94 -18 -180h-768q-1 -6 -1 -9v-23q0 -122 66 -186t166 -64q161 0 216 114h281
q-39 -155 -177.5 -248t-336.5 -93t-283.5 78.5t-107.5 123.5h-18q-92 -137 -219 -169.5t-205 -32.5zM1200 1634h310l-361 -353h-272z" />
    <glyph glyph-name="Oslashacute" unicode="&#x1fe;" horiz-adv-x="1592" 
d="M1593 867q0 -397 -225 -650.5t-588 -253.5q-137 0 -272 64l-63 -95l-102 66l62 93q-107 83 -165.5 208t-58.5 267t27.5 261t102.5 269.5t255.5 267t404.5 116.5q170 0 308 -69l64 96l108 -59l-69 -104q211 -172 211 -477zM954 1209q-94 0 -179 -47t-184.5 -177.5
t-99.5 -386.5q0 -155 81 -255l547 826q-71 40 -165 40zM825 233q90 0 175 46.5t184 175.5t99 389q0 145 -71 243l-545 -820q68 -34 158 -34zM1036 1589h-277l343 318h315z" />
    <glyph glyph-name="oslashacute" unicode="&#x1ff;" horiz-adv-x="1270" 
d="M1248 644q0 -281 -173.5 -474.5t-446.5 -193.5q-168 0 -288 77l-105 -126l-90 63l111 133q-121 131 -121 335q0 283 174 476t449 193q161 0 277 -71l97 116l93 -58l-105 -126q128 -130 128 -344zM744 889q-135 0 -220.5 -122t-85.5 -300q0 -60 15 -108l409 490
q-49 40 -118 40zM636 215q129 0 218 120.5t89 292.5q0 73 -19 126l-410 -492q54 -47 122 -47zM797 1281h-272l323 353h310z" />
    <glyph glyph-name="Adblgrave" unicode="&#x200;" horiz-adv-x="1501" 
d="M1180 1590l-179 318h270l153 -318h-244zM742 1590l-179 318h271l153 -318h-245zM612 577h381l-58 565h-19zM1007 344h-509l-186 -344h-315l820 1443h349l187 -1443h-311z" />
    <glyph glyph-name="adblgrave" unicode="&#x201;" horiz-adv-x="1202" 
d="M849 1281l-167 353h254l137 -353h-224zM413 1281l-167 353h254l137 -353h-224zM723 136q-105 -153 -323 -153q-128 0 -222.5 85.5t-94.5 215.5q0 167 129.5 265.5t361.5 106.5l274 9l15 68q5 25 5 40q0 57 -48.5 90.5t-133.5 33.5q-147 0 -192 -98h-275q36 152 168 240
t326 88q195 0 318.5 -89t123.5 -236q0 -53 -9 -89l-151 -713h-283l29 136h-18zM425.5 430q-56.5 -39 -56.5 -99t46 -94.5t129 -34.5t155 52t90 132l21 95l-228 -8q-100 -4 -156.5 -43z" />
    <glyph glyph-name="Ainvertedbreve" unicode="&#x202;" horiz-adv-x="1501" 
d="M1444 1611v-12t-2 -20h-204v22q0 61 -51 102.5t-130 41.5q-80 0 -134 -43.5t-71 -122.5h-205q23 151 134.5 243.5t280.5 92.5q168 0 275 -86t107 -218zM612 577h381l-58 565h-19zM1007 344h-509l-186 -344h-315l820 1443h349l187 -1443h-311z" />
    <glyph glyph-name="ainvertedbreve" unicode="&#x203;" horiz-adv-x="1202" 
d="M987 1288q0 61 -50 102.5t-132 41.5q-183 0 -214 -181h-206q16 161 130 256t290 95t282.5 -86.5t106.5 -218.5q0 -26 -4 -46h-205q2 11 2 37zM723 136q-105 -153 -323 -153q-128 0 -222.5 85.5t-94.5 215.5q0 167 129.5 265.5t361.5 106.5l274 9l15 68q5 25 5 40
q0 57 -48.5 90.5t-133.5 33.5q-147 0 -192 -98h-275q36 152 168 240t326 88q195 0 318.5 -89t123.5 -236q0 -53 -9 -89l-151 -713h-283l29 136h-18zM425.5 430q-56.5 -39 -56.5 -99t46 -94.5t129 -34.5t155 52t90 132l21 95l-228 -8q-100 -4 -156.5 -43z" />
    <glyph glyph-name="Edblgrave" unicode="&#x204;" horiz-adv-x="1274" 
d="M1057 0h-957l307 1443h956l-53 -258h-652l-75 -337h616l-50 -239h-615l-78 -351h653zM1074 1590l-179 318h270l153 -318h-244zM636 1590l-179 318h271l153 -318h-245z" />
    <glyph glyph-name="edblgrave" unicode="&#x205;" horiz-adv-x="1248" 
d="M858 1281l-167 353h254l137 -353h-224zM422 1281l-167 353h254l137 -353h-224zM925 716q0 75 -54.5 131t-149.5 56q-153 0 -208.5 -91t-69.5 -143h479q3 15 3 47zM642 203q163 0 218 114h280q-39 -155 -176 -248t-348 -93q-210 0 -345 127t-135 347q0 303 166 490
t431 187q201 0 333 -126.5t132 -335.5q0 -72 -17 -180h-770l-1 -31q0 -122 66.5 -186.5t165.5 -64.5z" />
    <glyph glyph-name="Einvertedbreve" unicode="&#x206;" horiz-adv-x="1274" 
d="M1338 1611v-12t-2 -20h-204v22q0 61 -51 102.5t-130 41.5q-80 0 -134 -43.5t-71 -122.5h-205q23 151 134.5 243.5t280.5 92.5q168 0 275 -86t107 -218zM1057 0h-957l307 1443h956l-53 -258h-652l-75 -337h616l-50 -239h-615l-78 -351h653z" />
    <glyph glyph-name="einvertedbreve" unicode="&#x207;" horiz-adv-x="1248" 
d="M996 1288q0 61 -50 102.5t-132 41.5q-183 0 -214 -181h-206q16 161 130 256t290 95t282.5 -86.5t106.5 -218.5q0 -26 -4 -46h-205q2 11 2 37zM925 716q0 75 -54.5 131t-149.5 56q-153 0 -208.5 -91t-69.5 -143h479q3 15 3 47zM642 203q163 0 218 114h280
q-39 -155 -176 -248t-348 -93q-210 0 -345 127t-135 347q0 303 166 490t431 187q201 0 333 -126.5t132 -335.5q0 -72 -17 -180h-770l-1 -31q0 -122 66.5 -186.5t165.5 -64.5z" />
    <glyph glyph-name="Idblgrave" unicode="&#x208;" horiz-adv-x="653" 
d="M748 1590l-179 318h270l153 -318h-244zM310 1590l-179 318h271l153 -318h-245zM100 0l307 1443h304l-307 -1443h-304z" />
    <glyph glyph-name="idblgrave" unicode="&#x209;" horiz-adv-x="599" 
d="M589 1281l-167 353h254l137 -353h-224zM153 1281l-167 353h254l137 -353h-224zM313 1103h291l-234 -1103h-291z" />
    <glyph glyph-name="Iinvertedbreve" unicode="&#x20a;" horiz-adv-x="653" 
d="M1012 1611v-12t-2 -20h-204v22q0 61 -51 102.5t-130 41.5q-80 0 -134 -43.5t-71 -122.5h-205q23 151 134.5 243.5t280.5 92.5q168 0 275 -86t107 -218zM100 0l307 1443h304l-307 -1443h-304z" />
    <glyph glyph-name="iinvertedbreve" unicode="&#x20b;" horiz-adv-x="599" 
d="M727 1288q0 61 -50 102.5t-132 41.5q-183 0 -214 -181h-206q16 161 130 256t290 95t282.5 -86.5t106.5 -218.5q0 -26 -4 -46h-205q2 11 2 37zM313 1103h291l-234 -1103h-291z" />
    <glyph glyph-name="Odblgrave" unicode="&#x20c;" horiz-adv-x="1617" 
d="M1283 820q0 188 -89 288.5t-235 100.5q-197 0 -332.5 -177.5t-135.5 -433.5q0 -164 89 -264.5t237 -100.5q197 0 295.5 128.5t134.5 240.5t36 218zM307 183q-126 127 -126 389q0 263 102.5 469t283 322.5t404.5 116.5q283 0 452.5 -173t169.5 -440q0 -397 -225 -650.5
t-578 -253.5q-127 0 -242 46.5t-241 173.5zM1161 1589l-179 318h270l153 -318h-244zM723 1589l-179 318h271l153 -318h-245z" />
    <glyph glyph-name="odblgrave" unicode="&#x20d;" horiz-adv-x="1289" 
d="M879 1281l-167 353h254l137 -353h-224zM443 1281l-167 353h254l137 -353h-224zM642 -24q-237 0 -372 133t-135 349q0 283 174 476t449 193q221 0 355.5 -133t134.5 -350q0 -281 -126 -421.5t-240.5 -193.5t-239.5 -53zM493 283.5q55 -68.5 163 -68.5t197.5 120.5
t89.5 292.5q0 124 -53 192.5t-134 68.5t-137 -33t-118.5 -122t-62.5 -236q0 -146 55 -214.5z" />
    <glyph glyph-name="Oinvertedbreve" unicode="&#x20e;" horiz-adv-x="1617" 
d="M1283 820q0 188 -89 288.5t-235 100.5q-197 0 -332.5 -177.5t-135.5 -433.5q0 -164 89 -264.5t237 -100.5q197 0 295.5 128.5t134.5 240.5t36 218zM307 183q-126 127 -126 389q0 263 102.5 469t283 322.5t404.5 116.5q283 0 452.5 -173t169.5 -440q0 -397 -225 -650.5
t-578 -253.5q-127 0 -242 46.5t-241 173.5zM1425 1610v-12q0 -12 -2 -20h-204v22q0 61 -51 102.5t-130 41.5q-80 0 -134 -43.5t-71 -122.5h-205q23 151 134.5 243.5t280.5 92.5q168 0 275 -86t107 -218z" />
    <glyph glyph-name="oinvertedbreve" unicode="&#x20f;" horiz-adv-x="1289" 
d="M1017 1288q0 61 -50 102.5t-132 41.5q-183 0 -214 -181h-206q16 161 130 256t290 95t282.5 -86.5t106.5 -218.5q0 -26 -4 -46h-205q2 11 2 37zM642 -24q-237 0 -372 133t-135 349q0 283 174 476t449 193q221 0 355.5 -133t134.5 -350q0 -281 -126 -421.5t-240.5 -193.5
t-239.5 -53zM493 283.5q55 -68.5 163 -68.5t197.5 120.5t89.5 292.5q0 124 -53 192.5t-134 68.5t-137 -33t-118.5 -122t-62.5 -236q0 -146 55 -214.5z" />
    <glyph glyph-name="Rdblgrave" unicode="&#x210;" horiz-adv-x="1418" 
d="M827 755q132 0 213.5 70t81.5 172t-56 152t-157 50h-248l-98 -444h264zM978 1443q200 0 326 -114.5t126 -284.5t-96.5 -301t-260.5 -185l198 -558h-325l-172 523h-258l-112 -523h-304l307 1443h571zM1020 1590l-179 318h270l153 -318h-244zM582 1590l-179 318h271
l153 -318h-245z" />
    <glyph glyph-name="rdblgrave" unicode="&#x211;" horiz-adv-x="875" 
d="M733 1281l-167 353h254l137 -353h-224zM297 1281l-167 353h254l137 -353h-224zM842 1121q89 0 141 -24l-57 -268q-73 30 -168 30q-218 0 -272 -251l-131 -608h-292l235 1103h283l-31 -152h18q93 170 274 170z" />
    <glyph glyph-name="Rinvertedbreve" unicode="&#x212;" horiz-adv-x="1418" 
d="M1284 1611v-12t-2 -20h-204v22q0 61 -51 102.5t-130 41.5q-80 0 -134 -43.5t-71 -122.5h-205q23 151 134.5 243.5t280.5 92.5q168 0 275 -86t107 -218zM827 755q132 0 213.5 70t81.5 172t-56 152t-157 50h-248l-98 -444h264zM978 1443q200 0 326 -114.5t126 -284.5
t-96.5 -301t-260.5 -185l198 -558h-325l-172 523h-258l-112 -523h-304l307 1443h571z" />
    <glyph glyph-name="rinvertedbreve" unicode="&#x213;" horiz-adv-x="875" 
d="M871 1288q0 61 -50 102.5t-132 41.5q-183 0 -214 -181h-206q16 161 130 256t290 95t282.5 -86.5t106.5 -218.5q0 -26 -4 -46h-205q2 11 2 37zM842 1121q89 0 141 -24l-57 -268q-73 30 -168 30q-218 0 -272 -251l-131 -608h-292l235 1103h283l-31 -152h18q93 170 274 170z
" />
    <glyph glyph-name="Udblgrave" unicode="&#x214;" horiz-adv-x="1564" 
d="M362 95q-152 132 -152 338q0 67 13 126l187 884h305l-186 -877q-40 -184 48 -258t217 -74q195 0 255 106t75 173l198 930h304l-211 -997q-48 -228 -215.5 -355.5t-426.5 -127.5t-411 132zM1203 1590l-179 318h270l153 -318h-244zM765 1590l-179 318h271l153 -318h-245z
" />
    <glyph glyph-name="udblgrave" unicode="&#x215;" horiz-adv-x="1305" 
d="M934 1281l-167 353h254l137 -353h-224zM498 1281l-167 353h254l137 -353h-224zM445 401q0 -173 184 -173q152 0 202.5 89.5t61.5 141.5l137 644h292l-233 -1103h-283l36 167h-18q-50 -88 -138 -139.5t-184 -51.5q-172 0 -267.5 88t-95.5 234q0 60 15 141l139 664h293
l-131 -616q-10 -42 -10 -86z" />
    <glyph glyph-name="Uinvertedbreve" unicode="&#x216;" horiz-adv-x="1564" 
d="M1467 1611v-12t-2 -20h-204v22q0 61 -51 102.5t-130 41.5q-80 0 -134 -43.5t-71 -122.5h-205q23 151 134.5 243.5t280.5 92.5q168 0 275 -86t107 -218zM362 95q-152 132 -152 338q0 67 13 126l187 884h305l-186 -877q-40 -184 48 -258t217 -74q195 0 255 106t75 173
l198 930h304l-211 -997q-48 -228 -215.5 -355.5t-426.5 -127.5t-411 132z" />
    <glyph glyph-name="uinvertedbreve" unicode="&#x217;" horiz-adv-x="1305" 
d="M1072 1288q0 61 -50 102.5t-132 41.5q-183 0 -214 -181h-206q16 161 130 256t290 95t282.5 -86.5t106.5 -218.5q0 -26 -4 -46h-205q2 11 2 37zM445 401q0 -173 184 -173q152 0 202.5 89.5t61.5 141.5l137 644h292l-233 -1103h-283l36 167h-18q-50 -88 -138 -139.5
t-184 -51.5q-172 0 -267.5 88t-95.5 234q0 60 15 141l139 664h293l-131 -616q-10 -42 -10 -86z" />
    <glyph glyph-name="Scommaaccent" unicode="&#x218;" horiz-adv-x="1362" 
d="M359 -509l172 358h292l-206 -358h-258zM973 401q0 88 -79 125.5t-137 55.5l-150 47q-335 105 -335 409q0 84 43 168t162.5 179t359.5 95t393 -125t159 -322h-285q-14 91 -89 146.5t-185 55.5q-109 0 -180 -50t-71 -118t45.5 -113t148.5 -77l148 -46q274 -86 315 -202.5
t41 -206.5t-43.5 -178t-165.5 -184.5t-380 -96.5t-412.5 119.5t-168.5 329.5h292q16 -92 99 -148t202 -56q122 0 197.5 52.5t75.5 140.5z" />
    <glyph glyph-name="scommaaccent" unicode="&#x219;" horiz-adv-x="1150" 
d="M222 -509l172 358h292l-206 -358h-258zM569 189q84 0 135.5 31.5t51.5 75.5t-24.5 69.5t-88.5 46.5l-172 60q-260 89 -260 284q0 175 126.5 273t328.5 98t325 -90t133 -238h-267q-11 53 -62 84t-109 31q-95 0 -144.5 -32t-49.5 -75q0 -44 29.5 -69.5t92.5 -46.5l179 -63
q134 -47 194.5 -115.5t60.5 -162.5q0 -174 -133 -274t-347 -100t-347 94.5t-139 247.5h281q12 -57 67 -93t139 -36z" />
    <glyph glyph-name="Tcommaaccent" unicode="&#x21a;" horiz-adv-x="1352" 
d="M448 0l254 1185h-432l53 258h1168l-53 -258h-432l-254 -1185h-304zM270 -509l172 358h292l-206 -358h-258z" />
    <glyph glyph-name="tcommaaccent" unicode="&#x21b;" horiz-adv-x="846" 
d="M568 -14q-177 0 -267.5 60t-90.5 175q0 43 11 96l116 537h-175l47 230h175l56 267h293l-57 -267h235l-48 -230h-234l-104 -479q-8 -37 -8 -77q0 -85 152 -85q31 0 52 3l-46 -222q-46 -8 -107 -8zM130 -509l172 358h292l-206 -358h-258z" />
    <glyph glyph-name="Hcaron" unicode="&#x21e;" horiz-adv-x="1606" 
d="M746 1925h250l92 -191h18l172 191h275l-328 -335h-291zM1051 0l129 603h-648l-129 -603h-303l307 1443h304l-125 -582h648l125 582h304l-307 -1443h-305z" />
    <glyph glyph-name="hcaron" unicode="&#x21f;" horiz-adv-x="1321" 
d="M252 1997h250l92 -191h18l172 191h275l-328 -335h-291zM1269 807q0 -58 -14 -131l-142 -676h-291l132 628q10 44 10 84q0 78 -54 124.5t-121 46.5q-117 0 -189.5 -63t-92.5 -161l-140 -659h-292l323 1515h292l-125 -578h18q117 187 343 187q155 0 249 -90.5t94 -226.5z
" />
    <glyph glyph-name="Adotaccent" unicode="&#x226;" horiz-adv-x="1501" 
d="M1056 1579q-34 0 -63.5 12t-50.5 33t-32.5 50t-11.5 80.5t45 96t113 44.5t112.5 -44.5t44.5 -132.5t-61.5 -113.5t-95.5 -25.5zM612 577h381l-58 565h-19zM1007 344h-509l-186 -344h-315l820 1443h349l187 -1443h-311z" />
    <glyph glyph-name="adotaccent" unicode="&#x227;" horiz-adv-x="1202" 
d="M790 1274q-34 0 -63.5 12.5t-51 34.5t-34 52t-12.5 65t12.5 65t34 52t51 34.5t63.5 12.5t63.5 -12.5t51 -34.5t34 -52t12.5 -65t-12.5 -65t-34 -52t-51 -34.5t-63.5 -12.5zM723 136q-105 -153 -323 -153q-128 0 -222.5 85.5t-94.5 215.5q0 167 129.5 265.5t361.5 106.5
l274 9l15 68q5 25 5 40q0 57 -48.5 90.5t-133.5 33.5q-147 0 -192 -98h-275q36 152 168 240t326 88q195 0 318.5 -89t123.5 -236q0 -53 -9 -89l-151 -713h-283l29 136h-18zM425.5 430q-56.5 -39 -56.5 -99t46 -94.5t129 -34.5t155 52t90 132l21 95l-228 -8
q-100 -4 -156.5 -43z" />
    <glyph glyph-name="Ecedilla" unicode="&#x228;" horiz-adv-x="1273" 
d="M579 -294q0 60 -116 59h-57l17 116l78 119h-401l307 1443h956l-53 -258h-652l-75 -337h616l-50 -239h-615l-78 -351h653l-52 -258h-372l-78 -120q159 -26 159 -164q0 -95 -72 -153.5t-186 -58.5t-191 36l28 133q59 -27 146 -27q88 0 88 60z" />
    <glyph glyph-name="ecedilla" unicode="&#x229;" horiz-adv-x="1248" 
d="M1198 682q0 -89 -17 -197h-770l-1 -31q0 -122 66.5 -186.5t165.5 -64.5q163 0 218 114h280q-53 -210 -200 -268.5t-232 -67.5l-66 -101q159 -26 159 -164q0 -95 -72 -153.5t-186 -58.5t-191 36l28 133q58 -27 146 -27t88 60t-116 59h-57l17 116l67 102
q-178 29 -283.5 151t-105.5 316q0 303 166 490t431 187q201 0 297.5 -92.5t132 -178t35.5 -174.5zM925 716q0 75 -54.5 131t-149.5 56q-153 0 -208.5 -91t-69.5 -143h479q3 15 3 47z" />
    <glyph glyph-name="Odieresismacron" unicode="&#x22a;" horiz-adv-x="1617" 
d="M1268 1578q-33 0 -61 11t-48.5 31t-32 47.5t-11.5 60.5t11.5 60.5t32 47.5t48.5 31t61 11t61.5 -11t49 -31t32 -47.5t11.5 -60.5t-11.5 -60.5t-32 -47.5t-49 -31t-61.5 -11zM800 1578q-33 0 -61.5 11t-49 31t-32 47.5t-11.5 60.5t11.5 60.5t32 47.5t49 31t61.5 11
t61.5 -11t48.5 -31t31.5 -47.5t11.5 -60.5t-11.5 -60.5t-31.5 -47.5t-48.5 -31t-61.5 -11zM752 2163h745l-36 -168h-745zM1283 820q0 188 -89 288.5t-235 100.5q-197 0 -332.5 -177.5t-135.5 -433.5q0 -164 89 -264.5t237 -100.5q197 0 295.5 128.5t134.5 240.5t36 218z
M307 183q-126 127 -126 389q0 263 102.5 469t283 322.5t404.5 116.5q283 0 452.5 -173t169.5 -440q0 -397 -225 -650.5t-578 -253.5q-127 0 -242 46.5t-241 173.5z" />
    <glyph glyph-name="odieresismacron" unicode="&#x22b;" horiz-adv-x="1289" 
d="M642 -24q-237 0 -372 133t-135 349q0 283 174 476t449 193q221 0 355.5 -133t134.5 -350q0 -281 -126 -421.5t-240.5 -193.5t-239.5 -53zM493 283.5q55 -68.5 163 -68.5t197.5 120.5t89.5 292.5q0 124 -53 192.5t-134 68.5t-137 -33t-118.5 -122t-62.5 -236
q0 -146 55 -214.5zM503 1678l38 180h735l-38 -180h-735zM926.5 1292.5q-41.5 41.5 -41.5 87.5t10.5 73t30 46.5t46.5 30.5t74.5 11t89 -41.5t41.5 -87.5t-11 -72.5t-42 -57.5t-93.5 -31t-104 41.5zM484 1293q-42 42 -42 88t11 72.5t30.5 46t46 30.5t74.5 11t89 -41.5
t41 -87.5t-10.5 -72.5t-41.5 -57.5t-93.5 -31t-104.5 42z" />
    <glyph glyph-name="Otildemacron" unicode="&#x22c;" horiz-adv-x="1617" 
d="M1283 820q0 188 -89 288.5t-235 100.5q-197 0 -332.5 -177.5t-135.5 -433.5q0 -164 89 -264.5t237 -100.5q197 0 295.5 128.5t134.5 240.5t36 218zM307 183q-126 127 -126 389q0 263 102.5 469t283 322.5t404.5 116.5q283 0 452.5 -173t169.5 -440q0 -397 -225 -650.5
t-578 -253.5q-127 0 -242 46.5t-241 173.5zM1169 1750q78 0 97 95h181q-17 -126 -92 -197.5t-164 -71.5q-90 0 -148.5 43.5t-86 63.5t-58.5 20q-78 0 -97 -95h-181q27 191 122.5 229.5t147.5 38.5t91 -19.5t70.5 -43.5t59 -43.5t58.5 -19.5zM714 1985l37 178h745l-37 -178
h-745z" />
    <glyph glyph-name="otildemacron" unicode="&#x22d;" horiz-adv-x="1289" 
d="M642 -24q-237 0 -372 133t-135 349q0 283 174 476t449 193q221 0 355.5 -133t134.5 -350q0 -281 -126 -421.5t-240.5 -193.5t-239.5 -53zM493 283.5q55 -68.5 163 -68.5t197.5 120.5t89.5 292.5q0 124 -53 192.5t-134 68.5t-137 -33t-118.5 -122t-62.5 -236
q0 -146 55 -214.5zM497 1680l38 180h735l-38 -180h-735zM969 1420q76 0 95 124h184q-16 -136 -90.5 -216.5t-176.5 -80.5t-169.5 67.5t-91 82t-46.5 14.5q-75 0 -94 -124h-184q16 136 90.5 216.5t175.5 80.5q102 0 169.5 -67.5t91 -82t46.5 -14.5z" />
    <glyph glyph-name="Odotaccent" unicode="&#x22e;" horiz-adv-x="1617" 
d="M1283 820q0 188 -89 288.5t-235 100.5q-197 0 -332.5 -177.5t-135.5 -433.5q0 -164 89 -264.5t237 -100.5q197 0 295.5 128.5t134.5 240.5t36 218zM307 183q-126 127 -126 389q0 263 102.5 469t283 322.5t404.5 116.5q283 0 452.5 -173t169.5 -440q0 -397 -225 -650.5
t-578 -253.5q-127 0 -242 46.5t-241 173.5zM1036 1578q-34 0 -63 12t-50 33t-32.5 50t-11.5 80.5t44.5 96t112.5 44.5t113 -44.5t45 -132.5t-62 -113.5t-96 -25.5z" />
    <glyph glyph-name="odotaccent" unicode="&#x22f;" horiz-adv-x="1289" 
d="M642 -24q-237 0 -372 133t-135 349q0 283 174 476t449 193q221 0 355.5 -133t134.5 -350q0 -281 -126 -421.5t-240.5 -193.5t-239.5 -53zM493 283.5q55 -68.5 163 -68.5t197.5 120.5t89.5 292.5q0 124 -53 192.5t-134 68.5t-137 -33t-118.5 -122t-62.5 -236
q0 -146 55 -214.5zM820 1274q-34 0 -63.5 12.5t-51 34.5t-34 52t-12.5 65t12.5 65t34 52t51 34.5t63.5 12.5t63.5 -12.5t51 -34.5t34 -52t12.5 -65t-12.5 -65t-34 -52t-51 -34.5t-63.5 -12.5z" />
    <glyph glyph-name="Odotaccentmacron" unicode="&#x230;" horiz-adv-x="1617" 
d="M1283 820q0 188 -89 288.5t-235 100.5q-197 0 -332.5 -177.5t-135.5 -433.5q0 -164 89 -264.5t237 -100.5q197 0 295.5 128.5t134.5 240.5t36 218zM307 183q-126 127 -126 389q0 263 102.5 469t283 322.5t404.5 116.5q283 0 452.5 -173t169.5 -440q0 -397 -225 -650.5
t-578 -253.5q-127 0 -242 46.5t-241 173.5zM1033 1574q-34 0 -62.5 11.5t-49.5 31.5t-32.5 47.5t-11.5 59.5t11.5 59t32.5 47t49.5 31t62.5 11t62.5 -11t49.5 -31t32.5 -47t11.5 -59t-11.5 -59.5t-32.5 -47.5t-49.5 -31.5t-62.5 -11.5zM716 1995l36 168h745l-35 -168h-746z
" />
    <glyph glyph-name="odotaccentmacron" unicode="&#x231;" horiz-adv-x="1289" 
d="M503 1678l38 180h735l-38 -180h-735zM811 1251q-33 0 -61 11.5t-48 31.5t-31 47t-11 59t11 59.5t31 48t48 32t61 11.5t60.5 -11.5t47.5 -32t31 -48t11 -59.5t-11 -59t-31 -47t-47.5 -31.5t-60.5 -11.5zM642 -24q-237 0 -372 133t-135 349q0 283 174 476t449 193
q221 0 355.5 -133t134.5 -350q0 -281 -126 -421.5t-240.5 -193.5t-239.5 -53zM493 283.5q55 -68.5 163 -68.5t197.5 120.5t89.5 292.5q0 124 -53 192.5t-134 68.5t-137 -33t-118.5 -122t-62.5 -236q0 -146 55 -214.5z" />
    <glyph glyph-name="Ymacron" unicode="&#x232;" horiz-adv-x="1451" 
d="M623 1632l37 181h746l-38 -181h-745zM500 0l114 531l-310 912h316l196 -607h18l447 607h330l-697 -924l-110 -519h-304z" />
    <glyph glyph-name="ymacron" unicode="&#x233;" horiz-adv-x="1208" 
d="M437 1316l38 180h735l-38 -180h-735zM134 -169q144 0 203 122l22 44l-144 1106h297l64 -822h18l405 822h312l-630 -1143q-108 -201 -232 -282t-318 -81q-37 0 -82 2.5t-50 2.5l46 235q24 -6 89 -6z" />
    <glyph glyph-name="dotlessj" unicode="&#x237;" horiz-adv-x="599" 
d="M-58 -142q105 0 132 120l240 1125h291l-247 -1158q-33 -156 -138.5 -237t-270.5 -82q-53 0 -131 12l48 226q26 -6 76 -6z" />
    <glyph glyph-name="circumflex" unicode="&#x2c6;" horiz-adv-x="1071" 
d="M1147 1251h-250l-104 209h-18l-193 -209h-276l350 354h291z" />
    <glyph glyph-name="caron" unicode="&#x2c7;" horiz-adv-x="1071" 
d="M581 1251l-200 354h249l103 -209h18l194 209h277l-350 -354h-291z" />
    <glyph glyph-name="breve" unicode="&#x2d8;" horiz-adv-x="1072" 
d="M612 1564q0 -60 50 -101.5t132 -41.5q183 0 214 181h206q-16 -161 -130 -256t-292 -95t-282.5 87t-104.5 218q0 26 4 46h205q-2 -12 -2 -38z" />
    <glyph glyph-name="dotaccent" unicode="&#x2d9;" horiz-adv-x="1071" 
d="M766 1274q-34 0 -63.5 12.5t-51 34.5t-34 52t-12.5 65t12.5 65t34 52t51 34.5t63.5 12.5t63.5 -12.5t51 -34.5t34 -52t12.5 -65t-12.5 -65t-34 -52t-51 -34.5t-63.5 -12.5z" />
    <glyph glyph-name="ring" unicode="&#x2da;" horiz-adv-x="1071" 
d="M778 1387q46 0 75.5 29.5t29.5 74.5t-30 74t-76 29t-75.5 -29t-29.5 -75t30 -74.5t76 -28.5zM778 1251q-106 0 -176 68.5t-70 172.5t71 171t175 67q105 0 175 -67t70 -171t-69.5 -172.5t-175.5 -68.5z" />
    <glyph glyph-name="ogonek" unicode="&#x2db;" horiz-adv-x="1071" 
d="M437 -191q0 -93 130 -93q31 0 43 2l-33 -161q-36 -12 -98 -12q-121 0 -190.5 55t-69.5 145t66 176t182 135l165 -23q-94 -50 -144.5 -108.5t-50.5 -115.5z" />
    <glyph glyph-name="tilde" unicode="&#x2dc;" horiz-adv-x="1071" 
d="M920 1434q76 0 95 124h184q-16 -136 -90.5 -216.5t-176.5 -80.5t-169.5 67.5t-91 82t-46.5 14.5q-75 0 -94 -124h-184q16 136 90.5 216.5t175.5 80.5q102 0 169.5 -67.5t91 -82t46.5 -14.5z" />
    <glyph glyph-name="hungarumlaut" unicode="&#x2dd;" horiz-adv-x="1071" 
d="M565 1634h261l-317 -353h-231zM1001 1634h261l-317 -353h-231z" />
    <glyph glyph-name="gravecmb" unicode="&#x300;" 
d="M45 1281l-250 353h303l212 -353h-265z" />
    <glyph glyph-name="acutecmb" unicode="&#x301;" 
d="M357 1634h310l-361 -353h-272z" />
    <glyph glyph-name="circumflexcmb" unicode="&#x302;" 
d="M598 1251h-250l-104 209h-18l-193 -209h-276l350 354h291z" />
    <glyph glyph-name="tildecmb" unicode="&#x303;" 
d="M382 1420q76 0 95 124h184q-16 -136 -90.5 -216.5t-176.5 -80.5t-169.5 67.5t-91 82t-46.5 14.5q-75 0 -94 -124h-184q16 136 90.5 216.5t175.5 80.5q102 0 169.5 -67.5t91 -82t46.5 -14.5z" />
    <glyph glyph-name="macroncmb" unicode="&#x304;" 
d="M-164 1316l38 180h735l-38 -180h-735z" />
    <glyph glyph-name="brevecmb" unicode="&#x306;" 
d="M46 1564q0 -60 50 -101.5t132 -41.5q183 0 214 181h206q-16 -161 -130 -256t-292 -95t-282.5 87t-104.5 218q0 26 4 46h205q-2 -12 -2 -38z" />
    <glyph glyph-name="dotaccentcmb" unicode="&#x307;" 
d="M230 1274q-34 0 -63.5 12.5t-51 34.5t-34 52t-12.5 65t12.5 65t34 52t51 34.5t63.5 12.5t63.5 -12.5t51 -34.5t34 -52t12.5 -65t-12.5 -65t-34 -52t-51 -34.5t-63.5 -12.5z" />
    <glyph glyph-name="dieresiscmb" unicode="&#x308;" 
d="M456 1251q-34 0 -62.5 11.5t-49.5 31.5t-32.5 48t-11.5 77.5t44 92t94 42.5q51 0 79.5 -11t49.5 -31.5t32.5 -48t11.5 -60.5t-11.5 -61t-32.5 -48t-49 -31.5t-62 -11.5zM-12 1251q-34 0 -62.5 11.5t-49.5 31.5t-32.5 48t-11.5 77.5t44 92t111 42.5q68 0 112 -42.5t44 -92
t-11.5 -77.5t-32.5 -48t-49 -31.5t-62 -11.5z" />
    <glyph glyph-name="hookabovecmb" unicode="&#x309;" 
d="M165 1517q-54 0 -101 -14l13 154q63 20 127 20q122 0 192 -56.5t70 -148.5q0 -183 -224 -259l-82 119q118 36 118 107q0 36 -29.5 57t-83.5 21z" />
    <glyph glyph-name="ringcmb" unicode="&#x30a;" 
d="M242 1387q46 0 75.5 29.5t29.5 74.5t-30 74t-76 29t-75.5 -29t-29.5 -75t30 -74.5t76 -28.5zM242 1251q-106 0 -176 68.5t-70 172.5t70.5 171t174.5 67q105 0 175.5 -67t70.5 -171t-69.5 -172.5t-175.5 -68.5z" />
    <glyph glyph-name="hungarumlautcmb" unicode="&#x30b;" 
d="M146 1634h261l-317 -353h-231zM582 1634h261l-317 -353h-231z" />
    <glyph glyph-name="caroncmb" unicode="&#x30c;" 
d="M60 1251l-200 354h249l103 -209h18l194 209h277l-350 -354h-291z" />
    <glyph glyph-name="dblgravecmb" unicode="&#x30f;" 
d="M289 1281l-167 353h254l137 -353h-224zM-147 1281l-167 353h254l137 -353h-224z" />
    <glyph glyph-name="invertedbrevecmb" unicode="&#x311;" 
d="M427 1288q0 61 -50 102.5t-132 41.5q-183 0 -214 -181h-206q16 161 130 256t290 95t282.5 -86.5t106.5 -218.5q0 -26 -4 -46h-205q2 11 2 37z" />
    <glyph glyph-name="horncmb" unicode="&#x31b;" 
d="M40 1098q44 0 70 24.5t40 89.5l36 169h230l-48 -224q-29 -138 -110 -206t-184 -68t-143 27l43 208q22 -20 66 -20z" />
    <glyph glyph-name="dotbelowcmb" unicode="&#x323;" 
d="M-136 -419q-36 0 -64.5 10.5t-49 29t-31.5 44.5t-11 71.5t43 84.5t96 39t82 -10.5t49.5 -29t32 -44t11.5 -55.5t-11.5 -56t-32 -44.5t-49.5 -29t-65 -10.5z" />
    <glyph glyph-name="dieresisbelowcmb" unicode="&#x324;" 
d="M96 -432q-36 0 -64.5 10.5t-49 29t-32 44t-11.5 70.5t43.5 84.5t96.5 39.5t82 -10.5t49.5 -29t31.5 -44t11 -55.5t-11 -55.5t-31.5 -44t-49.5 -29t-65 -10.5zM-354 -432q-54 0 -82.5 10.5t-49 29t-31.5 44t-11 71t43 84.5t114 39t113.5 -39t42.5 -100t-42.5 -100
t-96.5 -39z" />
    <glyph glyph-name="ringbelowcmb" unicode="&#x325;" 
d="M-144 -434q46 0 75.5 29.5t29.5 74.5t-30 74t-76 29t-75.5 -28.5t-29.5 -74.5t30 -75t76 -29zM-144 -570q-106 0 -176 68.5t-70 172.5t70.5 171t175.5 67t175 -67t70 -171t-69.5 -172.5t-175.5 -68.5z" />
    <glyph glyph-name="commabelowcmb" unicode="&#x326;" 
d="M-407 -509l172 358h292l-206 -358h-258z" />
    <glyph glyph-name="cedillacmb" unicode="&#x327;" 
d="M-84 -294q0 60 -116 59h-57l17 116l96 146h184l-96 -147q159 -26 159 -164q0 -95 -72 -153.5t-186 -58.5t-191 36l28 133q58 -27 146 -27t88 60z" />
    <glyph glyph-name="ogonekcmb" unicode="&#x328;" 
d="M-151 -194q0 -93 130 -93q31 0 43 2l-33 -161q-36 -12 -98 -12q-121 0 -190.5 55t-69.5 145t66 176t182 135l165 -23q-94 -50 -144.5 -108.5t-50.5 -115.5z" />
    <glyph glyph-name="circumflexbelowcmb" unicode="&#x32d;" 
d="M244 -432h-264l-103 159h-18l-177 -159h-281l329 280h316z" />
    <glyph glyph-name="brevebelowcmb" unicode="&#x32e;" 
d="M-408 -345.5q-107 86.5 -107 217.5v15h207q6 -103 74 -126t126 -23t111.5 38.5t70.5 110.5h207q-22 -144 -134.5 -231.5t-280 -87.5t-274.5 86.5z" />
    <glyph glyph-name="tildebelowcmb" unicode="&#x330;" 
d="M15 -261q82 0 98 106h180q-17 -131 -90 -204t-178 -73q-69 0 -112.5 25t-66 43t-56.5 43t-71 25q-81 0 -97 -101h-181q17 127 90.5 199t178.5 72q68 0 111.5 -25t65.5 -42.5t57 -42.5t71 -25z" />
    <glyph glyph-name="macronbelowcmb" unicode="&#x331;" 
d="M-532 -401l37 181h746l-38 -181h-745z" />
    <glyph glyph-name="greekquestionmark" unicode="&#x37e;" horiz-adv-x="712" 
d="M456.5 711q-77.5 0 -127.5 48.5t-50 103.5q0 54 12.5 86.5t36 56.5t56 38t91 14t108.5 -48.5t50 -103.5q0 -54 -12.5 -86.5t-49.5 -70.5t-114.5 -38zM-14 -388l213 635h288l-267 -635h-234z" />
    <glyph glyph-name="tonosgreek" unicode="&#x384;" horiz-adv-x="939" 
d="M471 1267l165 378h299l-217 -378h-247z" />
    <glyph glyph-name="dieresistonosgreek" unicode="&#x385;" horiz-adv-x="1448" 
d="M1201 1304q-39 37 -39 82q0 78 43 121t111 43q95 0 116.5 -53t21.5 -83t-11.5 -57t-43 -58.5t-95.5 -31.5t-103 37zM470 1304q-39 37 -39 82q0 78 43 121t107 43t103 -37.5t39 -83.5q0 -45 -11.5 -72t-43 -58.5t-95.5 -31.5t-103 37zM783 1267l95 378h275l-151 -378h-219
z" />
    <glyph glyph-name="Alphatonosgreek" unicode="&#x386;" horiz-adv-x="1586" 
d="M225 1065l164 378h300l-217 -378h-247zM697 577h381l-58 565h-19zM1092 344h-509l-186 -344h-315l820 1443h349l187 -1443h-311z" />
    <glyph glyph-name="anoteleia" unicode="&#x387;" horiz-adv-x="723" 
d="M466.5 754q-61.5 0 -112.5 49.5t-51 124.5q0 126 70.5 155t131.5 29t112 -49.5t51 -123.5q0 -126 -70 -155.5t-131.5 -29.5z" />
    <glyph glyph-name="Epsilontonosgreek" unicode="&#x388;" horiz-adv-x="1749" 
d="M1532 0h-957l307 1443h956l-53 -258h-652l-75 -337h616l-50 -239h-615l-78 -351h653zM242 1065l164 378h300l-217 -378h-247z" />
    <glyph glyph-name="Etatonosgreek" unicode="&#x389;" horiz-adv-x="2080" 
d="M1526 0l129 603h-648l-129 -603h-303l307 1443h304l-125 -582h648l125 582h304l-307 -1443h-305zM242 1065l164 378h300l-217 -378h-247z" />
    <glyph glyph-name="Iotatonosgreek" unicode="&#x38a;" horiz-adv-x="1128" 
d="M242 1065l164 378h300l-217 -378h-247zM575 0l307 1443h304l-307 -1443h-304z" />
    <glyph glyph-name="Omicrontonosgreek" unicode="&#x38c;" horiz-adv-x="1995" 
d="M242 1065l164 378h300l-217 -378h-247zM1656 820q0 188 -89 288.5t-235 100.5q-197 0 -332.5 -177.5t-135.5 -433.5q0 -164 89 -264.5t237 -100.5q197 0 295.5 128.5t134.5 240.5t36 218zM680 183q-126 127 -126 389q0 263 102.5 469t283 322.5t404.5 116.5
q283 0 452.5 -173t169.5 -440q0 -397 -225 -650.5t-578 -253.5q-127 0 -242 46.5t-241 173.5z" />
    <glyph glyph-name="Upsilontonosgreek" unicode="&#x38e;" horiz-adv-x="1919" 
d="M968 0l114 531l-310 912h316l196 -607h18l447 607h330l-697 -924l-110 -519h-304zM242 1065l164 378h300l-217 -378h-247z" />
    <glyph glyph-name="Omegatonosgreek" unicode="&#x38f;" horiz-adv-x="2063" 
d="M242 1065l164 378h300l-217 -378h-247zM817 266q-217 141 -217 456q0 158 59 300.5t222.5 300t514.5 157.5q283 0 452 -155.5t169 -412.5q0 -201 -104.5 -378.5t-282.5 -267.5l-4 -19h297l-51 -247h-592l65 312q263 125 312 298t49 259q0 163 -91.5 254.5t-250.5 91.5
q-206 0 -334.5 -145.5t-128.5 -388.5q0 -244 216 -369l-65 -312h-576l51 247h286z" />
    <glyph glyph-name="iotadieresistonosgreek" unicode="&#x390;" horiz-adv-x="679" 
d="M768 1304q-39 37 -39 82q0 78 43 121t111 43q95 0 116.5 -53t21.5 -83t-11.5 -57t-43 -58.5t-95.5 -31.5t-103 37zM37 1304q-39 37 -39 82q0 78 43 121t107 43t103 -37.5t39 -83.5q0 -45 -11.5 -72t-43 -58.5t-95.5 -31.5t-103 37zM350 1267l95 378h275l-151 -378h-219z
M422 -4q-315 0 -315 234q0 45 11 96l165 777h292l-153 -721q-7 -30 -7 -61q0 -94 121 -94q57 0 91 4l-47 -225q-64 -10 -158 -10z" />
    <glyph glyph-name="Alphagreek" unicode="&#x391;" horiz-adv-x="1501" 
d="M612 577h381l-58 565h-19zM1007 344h-509l-186 -344h-315l820 1443h349l187 -1443h-311z" />
    <glyph glyph-name="Betagreek" unicode="&#x392;" horiz-adv-x="1420" 
d="M739 237q127 0 211 66t84 160q0 184 -234 184h-259l-89 -410h287zM1105 1065q0 154 -216 154h-225l-80 -368h240q123 0 202 60t79 154zM996 1443q185 0 299 -85.5t114 -227.5q0 -141 -91.5 -244t-234.5 -123l-2 -19q119 -22 188.5 -99t69.5 -183q0 -206 -154.5 -334
t-393.5 -128h-691l307 1443h589z" />
    <glyph glyph-name="Gammagreek" unicode="&#x393;" horiz-adv-x="1198" 
d="M100 0l307 1443h926l-54 -258h-621l-254 -1185h-304z" />
    <glyph glyph-name="Deltagreek" unicode="&#x394;" horiz-adv-x="1454" 
d="M403 275l-4 -17h616l4 17l-109 879h-14zM14 0l37 176l741 1267h350l184 -1268l-36 -175h-1276z" />
    <glyph glyph-name="Epsilongreek" unicode="&#x395;" horiz-adv-x="1274" 
d="M1057 0h-957l307 1443h956l-53 -258h-652l-75 -337h616l-50 -239h-615l-78 -351h653z" />
    <glyph glyph-name="Zetagreek" unicode="&#x396;" horiz-adv-x="1384" 
d="M103 204l915 963l2 18h-689l53 258h1076l-42 -203l-913 -964l-2 -18h724l-53 -258h-1113z" />
    <glyph glyph-name="Etagreek" unicode="&#x397;" horiz-adv-x="1606" 
d="M1051 0l129 603h-648l-129 -603h-303l307 1443h304l-125 -582h648l125 582h304l-307 -1443h-305z" />
    <glyph glyph-name="Thetagreek" unicode="&#x398;" horiz-adv-x="1687" 
d="M1350 841q0 184 -90 281.5t-263 97.5q-218 0 -361 -177t-143 -446q0 -178 90.5 -276t260.5 -98q217 0 361.5 176.5t144.5 441.5zM832 -37q-313 0 -479.5 164.5t-166.5 453.5q0 400 171.5 584t326 249.5t322.5 65.5q317 0 483.5 -163t166.5 -458q0 -399 -173 -582
t-328.5 -248.5t-322.5 -65.5zM638 591l52 252h511l-51 -252h-512z" />
    <glyph glyph-name="Iotagreek" unicode="&#x399;" horiz-adv-x="654" 
d="M100 0l307 1443h304l-307 -1443h-304z" />
    <glyph glyph-name="Kappagreek" unicode="&#x39a;" horiz-adv-x="1454" 
d="M100 0l307 1443h301l-136 -635h18l659 635h358l-670 -653l382 -790h-340l-293 606l-192 -182l-92 -424h-302z" />
    <glyph glyph-name="Lambdagreek" unicode="&#x39b;" horiz-adv-x="1475" 
d="M319 0h-315l800 1443h349l167 -1443h-311l-87 1142h-19z" />
    <glyph glyph-name="Mugreek" unicode="&#x39c;" horiz-adv-x="1880" 
d="M100 0l307 1443h347l188 -970h18l608 970h368l-307 -1443h-281l207 965h-16l-558 -882h-201l-175 882h-16l-207 -965h-282z" />
    <glyph glyph-name="Nugreek" unicode="&#x39d;" horiz-adv-x="1574" 
d="M100 0l307 1443h231l479 -929h18l202 929h293l-307 -1443h-229l-483 922h-18l-200 -922h-293z" />
    <glyph glyph-name="Xigreek" unicode="&#x39e;" horiz-adv-x="1371" 
d="M1209 265l-54 -265h-1087l54 265h1087zM284 604l51 246h913l-51 -246h-913zM1461 1443l-54 -265h-1088l55 265h1087z" />
    <glyph glyph-name="Omicrongreek" unicode="&#x39f;" horiz-adv-x="1626" 
d="M1288 820q0 188 -89 288.5t-235 100.5q-197 0 -332.5 -177.5t-135.5 -433.5q0 -164 89 -264.5t237 -100.5q197 0 295.5 128.5t134.5 240.5t36 218zM312 183q-126 127 -126 389q0 263 102.5 469t283 322.5t404.5 116.5q283 0 452.5 -173t169.5 -440q0 -397 -225 -650.5
t-578 -253.5q-127 0 -242 46.5t-241 173.5z" />
    <glyph glyph-name="Pigreek" unicode="&#x3a0;" horiz-adv-x="1586" 
d="M1031 0l256 1185h-628l-256 -1185h-303l307 1443h1236l-307 -1443h-305z" />
    <glyph glyph-name="Rhogreek" unicode="&#x3a1;" horiz-adv-x="1381" 
d="M779 693q145 0 233 82t88 217q0 100 -63 151.5t-175 51.5h-202l-110 -502h229zM934 1443q214 0 343.5 -116t129.5 -306q0 -262 -172 -417.5t-452 -155.5h-282l-97 -448h-303l306 1443h527z" />
    <glyph glyph-name="Sigmagreek" unicode="&#x3a3;" horiz-adv-x="1384" 
d="M496 258h731l-53 -258h-1113l39 189l480 546l-232 492l44 216h1068l-53 -258h-685l-3 -14l183 -406l-10 -50l-393 -443z" />
    <glyph glyph-name="Taugreek" unicode="&#x3a4;" horiz-adv-x="1352" 
d="M448 0l254 1185h-432l53 258h1168l-53 -258h-432l-254 -1185h-304z" />
    <glyph glyph-name="Upsilongreek" unicode="&#x3a5;" horiz-adv-x="1451" 
d="M500 0l114 531l-310 912h316l196 -607h18l447 607h330l-697 -924l-110 -519h-304z" />
    <glyph glyph-name="Phigreek" unicode="&#x3a6;" horiz-adv-x="1888" 
d="M1564 778q0 164 -82.5 253t-229.5 105l-183 -855q228 20 326.5 121.5t133.5 192.5t35 183zM477 610q0 -130 81.5 -217.5t230.5 -105.5l183 855q-224 -18 -359.5 -155t-135.5 -377zM180 640q0 138 58.5 274t229.5 296.5t555 178.5l32 150h281l-33 -156
q261 -30 409.5 -183.5t148.5 -397.5q0 -320 -229.5 -535t-613.5 -233l-31 -144h-280l31 150q-266 32 -412 186.5t-146 413.5z" />
    <glyph glyph-name="Chigreek" unicode="&#x3a7;" horiz-adv-x="1494" 
d="M642 744l-309 699h340l211 -494h18l399 494h338l-635 -732l322 -711h-333l-221 485h-18l-409 -485h-331z" />
    <glyph glyph-name="Psigreek" unicode="&#x3a8;" horiz-adv-x="1813" 
d="M261 740q0 62 13 127l121 576h289l-115 -548q-17 -81 -17 -126q0 -105 63 -154.5t191 -55.5l188 884h289l-191 -892q248 11 305 124t73 187l122 581h290l-128 -610q-55 -262 -222.5 -390.5t-491.5 -144.5l-64 -298h-288l65 305q-492 42 -492 435z" />
    <glyph glyph-name="Omegagreek" unicode="&#x3a9;" horiz-adv-x="1666" 
d="M420 266q-217 141 -217 456q0 158 59 300.5t222.5 300t514.5 157.5q283 0 452 -155.5t169 -412.5q0 -201 -104.5 -378.5t-282.5 -267.5l-4 -19h297l-51 -247h-592l65 312q263 125 312 298t49 259q0 163 -91.5 254.5t-250.5 91.5q-206 0 -334.5 -145.5t-128.5 -388.5
q0 -244 216 -369l-65 -312h-576l51 247h286z" />
    <glyph glyph-name="Iotadieresisgreek" unicode="&#x3aa;" horiz-adv-x="653" 
d="M854 1579q-34 0 -62 11.5t-49 31.5t-32.5 48t-11.5 77.5t44 92t94 42.5q51 0 79.5 -11t49.5 -31.5t32.5 -48t11.5 -60.5t-11.5 -61t-32.5 -48t-49.5 -31.5t-62.5 -11.5zM386 1579q-34 0 -62 11.5t-49 31.5t-32.5 48t-11.5 77.5t43.5 92t111.5 42.5t112 -42.5t44 -92
t-11.5 -77.5t-32.5 -48t-49.5 -31.5t-62.5 -11.5zM100 0l307 1443h304l-307 -1443h-304z" />
    <glyph glyph-name="Upsilondieresisgreek" unicode="&#x3ab;" horiz-adv-x="1451" 
d="M1250 1579q-34 0 -62 11.5t-49 31.5t-32.5 48t-11.5 77.5t44 92t94 42.5q51 0 79.5 -11t49.5 -31.5t32.5 -48t11.5 -60.5t-11.5 -61t-32.5 -48t-49.5 -31.5t-62.5 -11.5zM782 1579q-34 0 -62 11.5t-49 31.5t-32.5 48t-11.5 77.5t43.5 92t111.5 42.5t112 -42.5t44 -92
t-11.5 -77.5t-32.5 -48t-49.5 -31.5t-62.5 -11.5zM500 0l114 531l-310 912h316l196 -607h18l447 607h330l-697 -924l-110 -519h-304z" />
    <glyph glyph-name="alphatonosgreek" unicode="&#x3ac;" horiz-adv-x="1374" 
d="M635 1267l165 378h299l-217 -378h-247zM618 226q54 0 111 31t122.5 116t65.5 255q0 118 -54.5 183.5t-151.5 65.5q-126 0 -210 -118t-84 -290t73.5 -207.5t127.5 -35.5zM1152 280q0 -60 66 -60q32 0 72 8l-47 -221q-53 -17 -127 -17q-140 0 -199 44.5t-59 148.5v11l-18 1
q-110 -212 -377 -212q-156 0 -254.5 115.5t-98.5 290.5t40.5 305.5t153.5 278.5t355 148t312 -225l18 -1l45 208h288l-162 -760q-8 -32 -8 -63z" />
    <glyph glyph-name="epsilontonosgreek" unicode="&#x3ad;" horiz-adv-x="1203" 
d="M488 768q0 -105 177 -105h148l-44 -216h-171q-99 0 -151 -33t-52 -90q0 -118 195 -118q157 0 214 59t73 98h300q-42 -174 -214 -281t-411 -107q-333 0 -399 112.5t-66 176.5q0 114 65.5 188t178.5 105l4 18q-142 69 -142 200q0 163 139.5 257t374.5 94q362 0 429.5 -138
t75.5 -225h-291q-21 103 -96.5 117t-152.5 14t-130.5 -36t-53.5 -90zM609 1267l165 378h299l-217 -378h-247z" />
    <glyph glyph-name="etatonosgreek" unicode="&#x3ae;" horiz-adv-x="1372" 
d="M661 1267l165 378h299l-217 -378h-247zM320 815q0 68 -68 68q-50 0 -72 -8l47 221q55 17 131 17q131 0 186.5 -43.5t67.5 -139.5l3 -22h19q55 106 149.5 162.5t192.5 56.5q172 0 263 -90.5t91 -238.5q0 -59 -14 -127l-215 -1016h-291l206 977q8 32 8 74q0 81 -49.5 129
t-115.5 48q-116 0 -185 -62t-93 -171l-138 -650h-292l161 755q8 38 8 60z" />
    <glyph glyph-name="iotatonosgreek" unicode="&#x3af;" horiz-adv-x="673" 
d="M339 1267l165 378h299l-217 -378h-247zM422 -4q-315 0 -315 234q0 45 11 96l165 777h292l-153 -721q-7 -30 -7 -61q0 -94 121 -94q57 0 91 4l-47 -225q-64 -10 -158 -10z" />
    <glyph glyph-name="upsilondieresistonosgreek" unicode="&#x3b0;" horiz-adv-x="1231" 
d="M1201 801q0 -391 -169 -608t-473 -217q-204 0 -316 94t-112 265q0 70 23 183l124 585h275l-128 -608q-40 -173 16 -219.5t143 -46.5q166 0 250.5 164t84.5 424q0 164 -27 286h277q32 -115 32 -302zM1031 1304q-39 37 -39 82q0 78 43 121t111 43q95 0 116.5 -53t21.5 -83
t-11.5 -57t-43 -58.5t-95.5 -31.5t-103 37zM300 1304q-39 37 -39 82q0 78 43 121t107 43t103 -37.5t39 -83.5q0 -45 -11.5 -72t-43 -58.5t-95.5 -31.5t-103 37zM613 1267l95 378h275l-151 -378h-219z" />
    <glyph glyph-name="alphagreek" unicode="&#x3b1;" horiz-adv-x="1374" 
d="M618 226q54 0 111 31t122.5 116t65.5 255q0 118 -54.5 183.5t-151.5 65.5q-126 0 -210 -118t-84 -290t73.5 -207.5t127.5 -35.5zM1152 280q0 -60 66 -60q32 0 72 8l-47 -221q-53 -17 -127 -17q-140 0 -199 44.5t-59 148.5v11l-18 1q-110 -212 -377 -212
q-156 0 -254.5 115.5t-98.5 290.5t40.5 305.5t153.5 278.5t355 148t312 -225l18 -1l45 208h288l-162 -760q-8 -32 -8 -63z" />
    <glyph glyph-name="betagreek" unicode="&#x3b2;" horiz-adv-x="1329" 
d="M752 919q177 0 213.5 88t36.5 152t-43.5 107.5t-138.5 43.5t-155 -60t-89 -191l-108 -502q-13 -52 -13 -102q0 -105 67.5 -167t184.5 -62t192.5 72t75.5 179t-67 163.5t-189 56.5h-87l46 222h74zM762 -17q-268 0 -350 217h-18l-116 -545h-292l291 1362q59 279 191.5 405
t353.5 126q220 0 338.5 -99t118.5 -265q0 -248 -256 -351l-4 -19q254 -77 254 -334q0 -218 -143.5 -357.5t-367.5 -139.5z" />
    <glyph glyph-name="gammagreek" unicode="&#x3b3;" horiz-adv-x="1211" 
d="M1242 1008q0 -79 -37.5 -200.5t-146 -310t-429.5 -539.5l-64 -298h-292l59 271l-141 1172h298l72 -836h20q277 331 330.5 515t53.5 246t-3 75h276q4 -16 4 -95z" />
    <glyph glyph-name="deltagreek" unicode="&#x3b4;" horiz-adv-x="1235" 
d="M578 196q144 0 229.5 112t85.5 280t-78.5 202t-133.5 34q-117 0 -203.5 -112t-86.5 -287q0 -107 53.5 -168t133.5 -61zM866 1327q-73 0 -109.5 -26t-36.5 -66t27 -68.5t100 -71.5q197 -131 275.5 -247.5t78.5 -255.5q0 -266 -179 -441t-444 -175q-224 0 -356 119.5
t-132 330.5t129.5 367.5t346.5 192.5l5 20q-157 88 -157 230t117 227t313 85t288.5 -40.5t124.5 -64.5l-54 -210q-166 94 -337 94z" />
    <glyph glyph-name="epsilongreek" unicode="&#x3b5;" horiz-adv-x="1202" 
d="M488 769q0 -105 177 -105h148l-44 -216h-171q-99 0 -151 -33t-52 -90q0 -118 195 -118q157 0 214 59t73 98h300q-42 -174 -214 -281t-411 -107q-333 0 -399 113t-66 177q0 114 65.5 187.5t178.5 104.5l4 18q-142 69 -142 200q0 163 139.5 257t374.5 94q362 0 429.5 -138
t75.5 -225h-291q-21 103 -96.5 117t-152.5 14t-130.5 -36t-53.5 -90z" />
    <glyph glyph-name="zetagreek" unicode="&#x3b6;" horiz-adv-x="1011" 
d="M647 -104q0 48 -33 81.5t-130 79.5q-206 97 -294.5 200.5t-88.5 257.5q0 413 582 746l4 18h-389l52 245h796l11 -207q-553 -277 -655 -463.5t-102 -254.5t19.5 -135.5t191.5 -147.5q200 -93 260 -160.5t60 -165.5q0 -187 -191 -385l-200 78q107 121 107 213z" />
    <glyph glyph-name="etagreek" unicode="&#x3b7;" horiz-adv-x="1372" 
d="M320 815q0 68 -68 68q-50 0 -72 -8l47 221q55 17 131 17q131 0 186.5 -43.5t67.5 -139.5l3 -22h19q55 106 149.5 162.5t192.5 56.5q172 0 263 -90.5t91 -238.5q0 -59 -14 -127l-215 -1016h-291l206 977q8 32 8 74q0 81 -49.5 129t-115.5 48q-116 0 -185 -62t-93 -171
l-138 -650h-292l161 755q8 38 8 60z" />
    <glyph glyph-name="thetagreek" unicode="&#x3b8;" horiz-adv-x="1300" 
d="M1019 1040q0 284 -201 284q-244 0 -335 -441h522q14 84 14 157zM426 478q0 -278 199 -278q128 0 211 108.5t130 341.5h-523q-17 -102 -17 -172zM628 -24q-488 0 -487 534q0 128 30 294q64 356 235 550t417 194q484 0 484 -535q0 -126 -26 -271q-64 -378 -234.5 -572
t-418.5 -194z" />
    <glyph glyph-name="iotagreek" unicode="&#x3b9;" horiz-adv-x="674" 
d="M422 -4q-315 0 -315 234q0 45 11 96l165 777h292l-153 -721q-7 -30 -7 -61q0 -94 121 -94q57 0 91 4l-47 -225q-64 -10 -158 -10z" />
    <glyph glyph-name="kappagreek" unicode="&#x3ba;" horiz-adv-x="1237" 
d="M829 948q103 101 169 133t154 32t137 -17l-45 -221q-37 8 -58 8q-41 0 -72 -15.5t-77 -61.5l-187 -184l269 -622h-282l-196 462l-251 -230l-48 -232h-286l233 1103h287l-104 -481h18z" />
    <glyph glyph-name="lambdagreek" unicode="&#x3bb;" horiz-adv-x="1206" 
d="M995 -10q-136 0 -193 54.5t-73 183.5l-53 404h-18l-382 -632h-311l662 1042l-13 83q-19 119 -54 155.5t-124 36.5q-31 0 -64 -7l47 220q45 18 125 18q164 0 231.5 -83.5t101.5 -328.5l113 -800q10 -69 36.5 -95t74.5 -26q47 0 67 8l-45 -216q-54 -17 -128 -17z" />
    <glyph glyph-name="mugreek" unicode="&#x3bc;" horiz-adv-x="1375" 
d="M1108 -10q-236 0 -236 199v6h-18q-74 -143 -163 -181t-148 -38t-102 24t-57 62h-18l-88 -407h-292l307 1448h292l-125 -593q-14 -65 -14 -104q0 -177 177 -177q95 0 171 70t100 182l132 622h291l-162 -760q-7 -27 -7 -59q0 -64 84 -64q23 0 56 6l-46 -223
q-52 -13 -134 -13z" />
    <glyph glyph-name="nugreek" unicode="&#x3bd;" horiz-adv-x="1211" 
d="M1242 1008q0 -77 -36 -194t-137 -297.5t-402 -516.5h-342l-134 1103h298l72 -836h20q276 326 330 513.5t54 249.5t-3 73h276q4 -18 4 -95z" />
    <glyph glyph-name="xigreek" unicode="&#x3be;" horiz-adv-x="1033" 
d="M634 -114q0 52 -33 89t-133 82q-214 97 -302 183t-88 205q0 244 314 317l4 17q-148 66 -148 220q0 103 63 167.5t171 94.5l3 18h-191l50 245h763l12 -226l-169 -16q-403 -38 -403 -213q0 -142 280 -142h144l-48 -234h-201q-236 0 -284.5 -66.5t-48.5 -102.5
q0 -66 49.5 -111.5t161.5 -97.5q199 -94 258.5 -161t59.5 -165q0 -203 -186 -384l-200 78q102 122 102 203z" />
    <glyph glyph-name="omicrongreek" unicode="&#x3bf;" horiz-adv-x="1253" 
d="M627 214q51 0 105.5 32t120.5 120.5t66 267.5q0 180 -75 217.5t-132 37.5t-112.5 -33.5t-118 -122.5t-62.5 -268q0 -178 78.5 -214.5t129.5 -36.5zM617 -24q-229 0 -365.5 131t-136.5 353q0 281 176 474t453 193q217 0 348 -134.5t131 -344.5q0 -292 -131 -432.5
t-243.5 -190t-231.5 -49.5z" />
    <glyph glyph-name="pigreek" unicode="&#x3c0;" horiz-adv-x="1488" 
d="M1151 295q0 -75 96 -75q36 0 58 8l-46 -221q-55 -17 -164 -17q-108 0 -172 56.5t-64 158.5q0 43 14 104l117 550h-339l-184 -859h-278l184 859h-205l50 244h1330l-50 -244h-229l-109 -506q-9 -38 -9 -58z" />
    <glyph glyph-name="rhogreek" unicode="&#x3c1;" horiz-adv-x="1287" 
d="M770 1127q230 0 359.5 -126.5t129.5 -338.5q0 -284 -131.5 -445.5t-238.5 -197.5t-175 -36q-126 0 -212 61t-112 156h-18l-116 -545h-292l184 857q98 480 300 547.5t322 67.5zM660 226q54 0 110 29t121.5 114.5t65.5 270.5q0 119 -56.5 184t-140.5 65q-149 0 -234 -119
t-85 -298t82.5 -212.5t136.5 -33.5z" />
    <glyph glyph-name="sigmafinalgreek" unicode="&#x3c2;" horiz-adv-x="1170" 
d="M917 714q-23 173 -216 173q-122 0 -198 -88.5t-76 -203.5t49.5 -172.5t157.5 -107.5q196 -92 257 -157.5t61 -163.5t-45 -190.5t-145 -198.5l-201 78q107 120 107 212q0 51 -30.5 82t-130.5 78q-210 99 -297.5 207t-87.5 277q0 254 161 421t441 167q211 0 337.5 -116
t130.5 -297h-275z" />
    <glyph glyph-name="sigmagreek" unicode="&#x3c3;" horiz-adv-x="1369" 
d="M416 444q0 -234 197 -234q134 0 217.5 116.5t83.5 294.5q0 235 -186 235q-136 0 -224 -116.5t-88 -295.5zM1199 617q0 -266 -166.5 -453.5t-435.5 -187.5q-221 0 -352 127t-131 346q0 281 174 467.5t463 186.5h689l-50 -244h-268l-3 -19q80 -95 80 -223z" />
    <glyph glyph-name="taugreek" unicode="&#x3c4;" horiz-adv-x="1140" 
d="M652 321q0 -94 122 -94q57 0 102 5l-47 -225q-64 -11 -169 -11q-316 0 -316 234q0 37 11 96l115 533h-330l51 244h1016l-51 -244h-394l-102 -477q-8 -37 -8 -61z" />
    <glyph glyph-name="upsilongreek" unicode="&#x3c5;" horiz-adv-x="1231" 
d="M1201 801q0 -391 -169 -608t-473 -217q-204 0 -316 94t-112 265q0 70 23 183l124 585h275l-128 -608q-40 -173 16 -219.5t143 -46.5q166 0 250.5 164t84.5 424q0 164 -27 286h277q32 -115 32 -302z" />
    <glyph glyph-name="phigreek" unicode="&#x3c6;" horiz-adv-x="1637" 
d="M1321 633q0 105 -66 176t-190 83l-151 -690q187 6 297 119.5t110 311.5zM401 466q0 -106 66.5 -175t191.5 -82l151 691q-186 -4 -297.5 -119t-111.5 -315zM117 478q0 124 54 248.5t205.5 263.5t474.5 139l57 266h269l-59 -273q222 -18 354 -148.5t132 -327.5
q0 -296 -204 -484.5t-526 -188.5l-67 -318h-268l69 325q-225 18 -358 147t-133 351z" />
    <glyph glyph-name="chigreek" unicode="&#x3c7;" horiz-adv-x="1237" 
d="M751 -312.5q-58 42.5 -87 134.5l-94 286h-18l-330 -453h-290l554 726l-133 387q-24 69 -51 92.5t-65 23.5q-39 0 -68 -8l46 221q62 16 125 16q114 0 169.5 -42t87.5 -142l98 -306h16l351 480h292l-568 -751l117 -354q26 -77 63 -108t131 -8l-47 -220q-51 -17 -146 -17
t-153 42.5z" />
    <glyph glyph-name="psigreek" unicode="&#x3c8;" horiz-adv-x="1616" 
d="M130 333q0 71 20 161l128 609h275l-124 -582q-19 -89 -19 -136q0 -80 53 -117t173 -40l251 1167h275l-251 -1169q392 4 392 583q0 164 -28 294h277q34 -109 34 -276q0 -855 -727 -855l-67 -317h-275l68 320q-455 10 -455 358z" />
    <glyph glyph-name="omegagreek" unicode="&#x3c9;" horiz-adv-x="1674" 
d="M396 408q0 -179 140 -179t181 182l81 377h265l-76 -356q-7 -30 -7 -81q0 -52 33 -87t89 -35q108 0 172.5 113t64.5 307q0 255 -123 454h288q117 -183 117 -463.5t-146.5 -472t-363.5 -191.5q-123 0 -191 53t-93 170h-19q-102 -223 -343 -223q-171 0 -262 106t-91 304
q0 291 109.5 470t174.5 247h288q-208 -236 -248 -422t-40 -273z" />
    <glyph glyph-name="iotadieresisgreek" unicode="&#x3ca;" horiz-adv-x="679" 
d="M422 -4q-315 0 -315 234q0 45 11 96l165 777h292l-153 -721q-7 -30 -7 -61q0 -94 121 -94q57 0 91 4l-47 -225q-64 -10 -158 -10zM710 1251q-34 0 -62 11.5t-49 31.5t-32.5 48t-11.5 77.5t44 92t94 42.5q51 0 79.5 -11t49.5 -31.5t32.5 -48t11.5 -60.5t-11.5 -61
t-32.5 -48t-49.5 -31.5t-62.5 -11.5zM242 1251q-34 0 -62 11.5t-49 31.5t-32.5 48t-11.5 77.5t44 92t111 42.5q68 0 112 -42.5t44 -92t-11.5 -77.5t-32.5 -48t-49.5 -31.5t-62.5 -11.5z" />
    <glyph glyph-name="upsilondieresisgreek" unicode="&#x3cb;" horiz-adv-x="1231" 
d="M1201 801q0 -391 -169 -608t-473 -217q-204 0 -316 94t-112 265q0 70 23 183l124 585h275l-128 -608q-40 -173 16 -219.5t143 -46.5q166 0 250.5 164t84.5 424q0 164 -27 286h277q32 -115 32 -302zM1004 1251q-34 0 -62.5 11.5t-49.5 31.5t-32.5 48t-11.5 77.5t44 92
t94 42.5q51 0 79.5 -11t49.5 -31.5t32.5 -48t11.5 -60.5t-11.5 -61t-32.5 -48t-49 -31.5t-62 -11.5zM536 1251q-34 0 -62.5 11.5t-49.5 31.5t-32.5 48t-11.5 77.5t44 92t112 42.5t111.5 -42.5t43.5 -92t-11.5 -77.5t-32.5 -48t-49 -31.5t-62 -11.5z" />
    <glyph glyph-name="omicrontonosgreek" unicode="&#x3cc;" horiz-adv-x="1253" 
d="M628 1267l165 378h299l-217 -378h-247zM627 214q51 0 105.5 32t120.5 120.5t66 267.5q0 180 -75 217.5t-132 37.5t-112.5 -33.5t-118 -122.5t-62.5 -268q0 -178 78.5 -214.5t129.5 -36.5zM617 -24q-229 0 -365.5 131t-136.5 353q0 281 176 474t453 193q217 0 348 -134.5
t131 -344.5q0 -292 -131 -432.5t-243.5 -190t-231.5 -49.5z" />
    <glyph glyph-name="upsilontonosgreek" unicode="&#x3cd;" horiz-adv-x="1231" 
d="M1201 801q0 -391 -169 -608t-473 -217q-204 0 -316 94t-112 265q0 70 23 183l124 585h275l-128 -608q-40 -173 16 -219.5t143 -46.5q166 0 250.5 164t84.5 424q0 164 -27 286h277q32 -115 32 -302zM618 1267l165 378h299l-217 -378h-247z" />
    <glyph glyph-name="omegatonosgreek" unicode="&#x3ce;" horiz-adv-x="1674" 
d="M850 1266l165 378h299l-217 -378h-247zM396 408q0 -179 140 -179t181 182l81 377h265l-76 -356q-7 -30 -7 -81q0 -52 33 -87t89 -35q108 0 172.5 113t64.5 307q0 255 -123 454h288q117 -183 117 -463.5t-146.5 -472t-363.5 -191.5q-123 0 -191 53t-93 170h-19
q-102 -223 -343 -223q-171 0 -262 106t-91 304q0 291 109.5 470t174.5 247h288q-208 -236 -248 -422t-40 -273z" />
    <glyph glyph-name="Iocyrillic" unicode="&#x401;" horiz-adv-x="1294" 
d="M1067 0h-957l307 1443h956l-53 -258h-652l-75 -337h616l-50 -239h-615l-78 -351h653zM1190 1579q-34 0 -62 11.5t-49 31.5t-32.5 48t-11.5 77.5t44 92t94 42.5q51 0 79.5 -11t49.5 -31.5t32.5 -48t11.5 -60.5t-11.5 -61t-32.5 -48t-49.5 -31.5t-62.5 -11.5zM722 1579
q-34 0 -62 11.5t-49 31.5t-32.5 48t-11.5 77.5t43.5 92t111.5 42.5t112 -42.5t44 -92t-11.5 -77.5t-32.5 -48t-49.5 -31.5t-62.5 -11.5z" />
    <glyph glyph-name="Djecyrillic" unicode="&#x402;" horiz-adv-x="1802" 
d="M935 787q133 119 338 119t322 -120.5t117 -312.5q0 -227 -166.5 -386t-431.5 -159q-124 0 -172 17l50 244q44 -12 115 -12q133 0 212.5 74t79.5 184q0 145 -86 175t-140 30q-100 0 -185 -47t-131 -111l-104 -482h-304l254 1185h-422l53 258h1148l-53 -258h-422l-87 -398
h15z" />
    <glyph glyph-name="Gjecyrillic" unicode="&#x403;" horiz-adv-x="1224" 
d="M110 0l307 1443h936l-54 -258h-631l-254 -1185h-304zM1056 1891h315l-381 -318h-277z" />
    <glyph glyph-name="Ecyrillic" unicode="&#x404;" horiz-adv-x="1558" 
d="M986 1480q243 0 406.5 -142.5t167.5 -363.5v-24h-298q-6 120 -87 191t-218 71t-253 -98t-161 -263h572l-49 -241h-556q-12 -179 71.5 -280t235.5 -101q186 0 256.5 97t91.5 152h297q-60 -236 -242 -375.5t-446 -139.5q-136 0 -251 50t-231 197t-75 492
q32 349 240.5 563.5t528.5 214.5z" />
    <glyph glyph-name="Dzecyrillic" unicode="&#x405;" horiz-adv-x="1394" 
d="M988 401q0 88 -79 125.5t-137 55.5l-150 47q-335 105 -335 409q0 84 43 168t162.5 179t359.5 95t393 -125t159 -322h-285q-14 91 -89 146.5t-185 55.5q-109 0 -180 -50t-71 -118t45.5 -113t148.5 -77l148 -46q274 -86 315 -202.5t41 -206.5t-43.5 -178t-165.5 -184.5
t-380 -96.5t-412.5 119.5t-168.5 329.5h292q16 -92 99 -148t202 -56q122 0 197.5 52.5t75.5 140.5z" />
    <glyph glyph-name="Icyrillic" unicode="&#x406;" horiz-adv-x="673" 
d="M110 0l307 1443h304l-307 -1443h-304z" />
    <glyph glyph-name="Yicyrillic" unicode="&#x407;" horiz-adv-x="674" 
d="M864 1579q-34 0 -62 11.5t-49 31.5t-32.5 48t-11.5 77.5t44 92t94 42.5q51 0 79.5 -11t49.5 -31.5t32.5 -48t11.5 -60.5t-11.5 -61t-32.5 -48t-49.5 -31.5t-62.5 -11.5zM396 1579q-34 0 -62 11.5t-49 31.5t-32.5 48t-11.5 77.5t44 92t112 42.5t111.5 -42.5t43.5 -92
t-11.5 -77.5t-32.5 -48t-49.5 -31.5t-62.5 -11.5zM110 0l307 1443h304l-307 -1443h-304z" />
    <glyph glyph-name="Jecyrillic" unicode="&#x408;" horiz-adv-x="1251" 
d="M389 413v-9q1 -77 49 -122t131 -45q167 0 212 209l213 997h302l-222 -1042q-45 -213 -176 -325.5t-341 -112.5t-339 117t-123 302v12q0 11 1 19h293z" />
    <glyph glyph-name="Ljecyrillic" unicode="&#x409;" horiz-adv-x="2243" 
d="M1557 245q136 0 225 77.5t89 190.5q0 114 -68 168.5t-182 54.5h-195l-107 -491h238zM112 264q37 0 77.5 24.5t82.5 84t87 221.5l224 849h993l-99 -459h207q228 0 360 -116.5t132 -319.5q0 -237 -169 -392.5t-443 -155.5h-599l254 1185h-418l-167 -612
q-80 -303 -202.5 -444.5t-350.5 -141.5q-70 0 -106 13l56 272q44 -8 81 -8z" />
    <glyph glyph-name="Njecyrillic" unicode="&#x40a;" horiz-adv-x="2267" 
d="M1594 245q133 0 211.5 61t78.5 156q0 167 -225 167h-224l-84 -384h243zM1716 872q218 0 346.5 -102t128.5 -276q0 -215 -163.5 -354.5t-431.5 -139.5h-599l132 620h-583l-133 -620h-303l307 1443h304l-123 -571h583l123 571h304l-123 -571h231z" />
    <glyph glyph-name="Tshecyrillic" unicode="&#x40b;" horiz-adv-x="1814" 
d="M1274 906q239 0 343.5 -150.5t54.5 -384.5l-79 -371h-304l80 373q41 188 -48 227.5t-145 39.5q-100 0 -182 -44t-137 -114l-104 -482h-304l254 1185h-422l53 258h1148l-53 -258h-422l-87 -397h17q147 118 337 118z" />
    <glyph glyph-name="Kjecyrillic" unicode="&#x40c;" horiz-adv-x="1459" 
d="M871 717l456 -717h-341l-396 598h-47l-129 -598h-304l307 1443h304l-129 -605h46l619 605h358zM1120 1573h-277l343 318h315z" />
    <glyph glyph-name="Ushortcyrillic" unicode="&#x40e;" horiz-adv-x="1427" 
d="M336 247q131 0 219 101l-243 1095h317l140 -786h18l468 786h329l-674 -1048q-132 -208 -265 -308t-330 -100q-89 0 -117 14l52 255q23 -9 86 -9zM1113 1800q53 42 69 115h218q-32 -155 -148.5 -238.5t-284.5 -83.5q-169 0 -261.5 90.5t-62.5 231.5h219
q-21 -110 36.5 -133.5t109.5 -23.5t105 42z" />
    <glyph glyph-name="Dzhecyrillic" unicode="&#x40f;" horiz-adv-x="1609" 
d="M110 0l307 1443h302l-254 -1184h633l254 1184h304l-307 -1443h-478l-61 -285h-283l61 285h-478z" />
    <glyph glyph-name="Acyrillic" unicode="&#x410;" horiz-adv-x="1521" 
d="M622 577h381l-58 565h-19zM1017 344h-509l-186 -344h-315l820 1443h349l187 -1443h-311z" />
    <glyph glyph-name="Becyrillic" unicode="&#x411;" horiz-adv-x="1401" 
d="M703 245q136 0 225 68.5t89 165.5t-65 142.5t-176 45.5h-218l-93 -422h238zM830 904q227 0 359.5 -103.5t132.5 -284.5q0 -224 -169.5 -370t-442.5 -146h-599l306 1443h965l-54 -258h-659l-62 -281h223z" />
    <glyph glyph-name="Vecyrillic" unicode="&#x412;" horiz-adv-x="1441" 
d="M750 237q127 0 211 66t84 160q0 184 -234 184h-259l-89 -410h287zM1116 1065q0 154 -216 154h-225l-80 -368h240q123 0 202 60t79 154zM1007 1443q185 0 299 -85.5t114 -227.5q0 -141 -91.5 -244t-234.5 -123l-2 -19q119 -22 188.5 -99t69.5 -183q0 -206 -154.5 -334
t-393.5 -128h-691l307 1443h589z" />
    <glyph glyph-name="Gecyrillic" unicode="&#x413;" horiz-adv-x="1224" 
d="M110 0l307 1443h936l-54 -258h-631l-254 -1185h-304z" />
    <glyph glyph-name="Decyrillic" unicode="&#x414;" horiz-adv-x="1601" 
d="M178 -285h-274l114 543h101q119 74 160.5 189.5t61.5 189.5l224 806h1028l-254 -1185h180l-114 -543h-273l61 285h-954zM616 612q-33 -117 -70 -199.5t-93 -136.5l-4 -18h586l201 928h-457z" />
    <glyph glyph-name="Iecyrillic" unicode="&#x415;" horiz-adv-x="1294" 
d="M1067 0h-957l307 1443h956l-53 -258h-652l-75 -337h616l-50 -239h-615l-78 -351h653z" />
    <glyph glyph-name="Zhecyrillic" unicode="&#x416;" horiz-adv-x="2173" 
d="M348 0h-368l741 762l-369 681h318l325 -609h48l131 609h297l-131 -609h49l585 609h358l-709 -735l401 -708h-341l-341 598h-50l-128 -598h-297l128 598h-50z" />
    <glyph glyph-name="Zecyrillic" unicode="&#x417;" horiz-adv-x="1363" 
d="M959 435q0 181 -239 181h-187l50 244h202q119 0 196.5 57.5t77.5 142.5q0 86 -53 132t-157 46t-184.5 -54.5t-107.5 -148.5h-279q48 206 208 325.5t390 119.5t357 -104t127 -258t-94.5 -253t-250.5 -124l-5 -18q121 -21 190.5 -95t69.5 -182q0 -210 -169 -346.5
t-435 -136.5t-407.5 127t-133.5 337h286q-2 -94 65 -153.5t193 -59.5t208 62.5t82 158.5z" />
    <glyph glyph-name="Iicyrillic" unicode="&#x418;" horiz-adv-x="1629" 
d="M1279 959h-18l-858 -959h-293l307 1443h298l-208 -961h18l858 961h293l-307 -1443h-298z" />
    <glyph glyph-name="Iishortcyrillic" unicode="&#x419;" horiz-adv-x="1629" 
d="M1279 959h-18l-858 -959h-293l307 1443h298l-208 -961h18l858 961h293l-307 -1443h-298zM1194 1800q53 42 69 115h218q-32 -155 -148.5 -238.5t-284.5 -83.5q-169 0 -261.5 90.5t-62.5 231.5h219q-21 -110 36.5 -133.5t109.5 -23.5t105 42z" />
    <glyph glyph-name="Kacyrillic" unicode="&#x41a;" horiz-adv-x="1464" 
d="M871 717l456 -717h-341l-396 598h-47l-129 -598h-304l307 1443h304l-129 -605h46l619 605h358z" />
    <glyph glyph-name="Elcyrillic" unicode="&#x41b;" horiz-adv-x="1534" 
d="M111 264q157 0 248 330l224 849h998l-307 -1443h-304l253 1185h-422l-167 -612q-77 -297 -200.5 -441.5t-352.5 -144.5q-70 0 -106 13l56 272q43 -8 80 -8z" />
    <glyph glyph-name="Emcyrillic" unicode="&#x41c;" horiz-adv-x="1900" 
d="M110 0l307 1443h347l188 -970h18l608 970h368l-307 -1443h-281l207 965h-16l-558 -882h-201l-175 882h-16l-207 -965h-282z" />
    <glyph glyph-name="Encyrillic" unicode="&#x41d;" horiz-adv-x="1626" 
d="M1061 0l129 603h-648l-129 -603h-303l307 1443h304l-125 -582h648l125 582h304l-307 -1443h-305z" />
    <glyph glyph-name="Ocyrillic" unicode="&#x41e;" horiz-adv-x="1654" 
d="M1298 820q0 188 -89 288.5t-235 100.5q-197 0 -332.5 -177.5t-135.5 -433.5q0 -164 89 -264.5t237 -100.5q197 0 295.5 128.5t134.5 240.5t36 218zM322 183q-126 127 -126 389q0 263 102.5 469t283 322.5t404.5 116.5q283 0 452.5 -173t169.5 -440q0 -397 -225 -650.5
t-578 -253.5q-127 0 -242 46.5t-241 173.5z" />
    <glyph glyph-name="Pecyrillic" unicode="&#x41f;" horiz-adv-x="1609" 
d="M1047 0l253 1184h-633l-253 -1184h-304l307 1443h1239l-307 -1443h-302z" />
    <glyph glyph-name="Ercyrillic" unicode="&#x420;" horiz-adv-x="1401" 
d="M789 693q145 0 233 82t88 217q0 100 -63 151.5t-175 51.5h-202l-110 -502h229zM944 1443q214 0 343.5 -116t129.5 -306q0 -262 -172 -417.5t-452 -155.5h-282l-97 -448h-303l306 1443h527z" />
    <glyph glyph-name="Escyrillic" unicode="&#x421;" horiz-adv-x="1561" 
d="M204 591q0 389 160.5 573t302.5 250t291 66q276 0 443 -146.5t167 -373.5v-17h-298q-15 191 -127.5 230t-194.5 39t-164.5 -46.5t-179 -173.5t-96.5 -384q0 -177 86 -278.5t234 -101.5q189 0 256 91.5t85 147.5h301q-54 -234 -235 -370t-443 -136q-268 0 -428 170.5
t-160 459.5z" />
    <glyph glyph-name="Tecyrillic" unicode="&#x422;" horiz-adv-x="1373" 
d="M458 0l254 1185h-432l53 258h1168l-53 -258h-432l-254 -1185h-304z" />
    <glyph glyph-name="Ucyrillic" unicode="&#x423;" horiz-adv-x="1427" 
d="M336 247q131 0 219 101l-243 1095h317l140 -786h18l468 786h329l-674 -1048q-132 -208 -265 -308t-330 -100q-89 0 -117 14l52 255q23 -9 86 -9z" />
    <glyph glyph-name="Efcyrillic" unicode="&#x424;" horiz-adv-x="1866" 
d="M1530 794q0 127 -77 199.5t-217 79.5l-153 -699q197 10 322 129t125 291zM495 630q0 -106 77 -177.5t216 -78.5l153 700q-195 -10 -320.5 -130.5t-125.5 -313.5zM185 654q0 131 58 255t222.5 263.5t524.5 151.5l32 150h299l-32 -150q254 -10 402 -148t148 -367
q0 -297 -222.5 -485.5t-582.5 -200.5l-33 -154h-299l33 154q-253 10 -401.5 148t-148.5 383z" />
    <glyph glyph-name="Xacyrillic" unicode="&#x425;" horiz-adv-x="1514" 
d="M652 744l-309 699h340l211 -494h18l399 494h338l-635 -732l322 -711h-333l-221 485h-18l-409 -485h-331z" />
    <glyph glyph-name="Tsecyrillic" unicode="&#x426;" horiz-adv-x="1664" 
d="M1195 -285l61 285h-1146l308 1443h302l-254 -1184h633l254 1184h303l-254 -1185h180l-114 -543h-273z" />
    <glyph glyph-name="Checyrillic" unicode="&#x427;" horiz-adv-x="1520" 
d="M715 494q-240 0 -361 159t-67 409l81 381h302l-82 -383q-44 -212 54.5 -254.5t191.5 -42.5t181 45t139 115l111 520h302l-307 -1443h-302l131 612h-18q-162 -118 -356 -118z" />
    <glyph glyph-name="Shacyrillic" unicode="&#x428;" horiz-adv-x="2098" 
d="M417 1443h304l-254 -1185h408l254 1185h304l-254 -1185h408l254 1185h304l-307 -1443h-1728z" />
    <glyph glyph-name="Shchacyrillic" unicode="&#x429;" horiz-adv-x="2154" 
d="M1684 -285l61 285h-1634l307 1443h304l-255 -1185h408l255 1185h304l-255 -1185h408l255 1185h304l-255 -1185h180l-113 -543h-274z" />
    <glyph glyph-name="Hardsigncyrillic" unicode="&#x42a;" horiz-adv-x="1605" 
d="M919 245q136 0 225 77.5t89 190.5q0 114 -68 168.5t-182 54.5h-195l-107 -491h238zM1046 984q228 0 360 -116.5t132 -319.5q0 -237 -169 -392.5t-443 -155.5h-599l254 1186h-335l53 257h639l-99 -459h207z" />
    <glyph glyph-name="Yericyrillic" unicode="&#x42b;" horiz-adv-x="1934" 
d="M829 984q229 0 361 -116.5t132 -319.5q0 -237 -169 -392.5t-443 -155.5h-600l307 1443h304l-99 -459h207zM703 245q136 0 225 77.5t89 190.5q0 114 -68 168.5t-182 54.5h-195l-107 -491h238zM1370 0l307 1443h304l-307 -1443h-304z" />
    <glyph glyph-name="Softsigncyrillic" unicode="&#x42c;" horiz-adv-x="1388" 
d="M829 984q229 0 361 -116.5t132 -319.5q0 -237 -169 -392.5t-443 -155.5h-600l307 1443h304l-99 -459h207zM703 245q136 0 225 77.5t89 190.5q0 114 -68 168.5t-182 54.5h-195l-107 -491h238z" />
    <glyph glyph-name="Ereversedcyrillic" unicode="&#x42d;" horiz-adv-x="1557" 
d="M748 -37q-265 0 -425.5 142t-168.5 373h298q12 -114 92 -180.5t219 -66.5q140 0 255 103.5t157 275.5h-575l51 241h554q8 170 -74.5 266.5t-234.5 96.5q-191 0 -262.5 -102t-92.5 -162h-297q59 248 243 389t441 141q297 0 452.5 -197t114.5 -542q-32 -349 -184.5 -506.5
t-286.5 -214.5t-276 -57z" />
    <glyph glyph-name="IUcyrillic" unicode="&#x42e;" horiz-adv-x="2210" 
d="M1994.5 1309.5q168.5 -170.5 168.5 -455.5q0 -187 -57 -349.5t-160 -283t-244.5 -189.5t-295.5 -69q-294 0 -462.5 168t-168.5 462v10h-232l-130 -603h-303l307 1443h304l-125 -582h211q71 279 272.5 449t473.5 170q273 0 441.5 -170.5zM1410 227q82 0 165.5 48.5
t181.5 179.5t98 380q0 177 -86.5 279t-225.5 102q-193 0 -326.5 -176.5t-133.5 -427.5q0 -179 86.5 -282t240.5 -103z" />
    <glyph glyph-name="IAcyrillic" unicode="&#x42f;" horiz-adv-x="1453" 
d="M279 914q0 231 172.5 380t444.5 149h604l-307 -1443h-304l109 507h-173l-451 -507h-361l498 562q-110 49 -171 141.5t-61 210.5zM898 1198q-136 0 -225 -73.5t-89 -178.5q0 -106 68 -157t182 -51h212l100 460h-248z" />
    <glyph glyph-name="acyrillic" unicode="&#x430;" horiz-adv-x="1222" 
d="M733 136q-105 -153 -323 -153q-128 0 -222.5 85.5t-94.5 215.5q0 167 129.5 265.5t361.5 106.5l274 9l15 68q5 25 5 40q0 57 -48.5 90.5t-133.5 33.5q-147 0 -192 -98h-275q36 152 168 240t326 88q195 0 318.5 -89t123.5 -236q0 -53 -9 -89l-151 -713h-283l29 136h-18z
M435.5 430q-56.5 -39 -56.5 -99t46 -94.5t129 -34.5t155 52t90 132l21 95l-228 -8q-100 -4 -156.5 -43z" />
    <glyph glyph-name="becyrillic" unicode="&#x431;" horiz-adv-x="1310" 
d="M463 874q128 190 341 190t326.5 -123.5t113.5 -326.5q0 -278 -166.5 -461.5t-446.5 -183.5q-201 0 -377 166t-54 655q81 332 241.5 501.5t465.5 180.5l148 6q161 6 276 38l23 6l-48 -235q-103 -42 -281 -47l-143 -5q-260 -8 -334.5 -143.5t-102.5 -217.5h18zM736 838
q-130 0 -213 -108.5t-83 -246.5t56.5 -203t166.5 -65t196 105t86 243q0 137 -55 206t-154 69z" />
    <glyph glyph-name="vecyrillic" unicode="&#x432;" horiz-adv-x="1229" 
d="M875 806q0 105 -138 105h-177l-56 -254h171q143 0 171.5 59t28.5 90zM609 192q98 0 158 46.5t60 115.5q0 70 -43.5 99t-127.5 29h-188l-63 -290h204zM842 1103q159 0 245.5 -66.5t86.5 -173.5t-74.5 -181t-181.5 -90l-4 -18q99 -11 154 -67.5t55 -138.5
q0 -163 -131.5 -265.5t-350.5 -102.5h-564l234 1103h531z" />
    <glyph glyph-name="gecyrillic" unicode="&#x433;" horiz-adv-x="998" 
d="M557 874l-187 -874h-293l234 1103h756l-47 -229h-463z" />
    <glyph glyph-name="decyrillic" unicode="&#x434;" horiz-adv-x="1370" 
d="M-99 -285l109 514h85q117 60 189 321l156 553h877l-186 -874h164l-108 -514h-266l61 285h-753l-61 -285h-267zM979 875h-339l-101 -345q-56 -191 -137 -283l-3 -18h440z" />
    <glyph glyph-name="iecyrillic" unicode="&#x435;" horiz-adv-x="1268" 
d="M933 716q0 75 -54.5 131t-149.5 56q-153 0 -208.5 -91t-69.5 -143h479q3 15 3 47zM650 203q163 0 218 114h280q-39 -155 -176 -248t-348 -93q-210 0 -345 127t-135 347q0 303 166 490t431 187q201 0 333 -126.5t132 -335.5q0 -72 -17 -180h-770l-1 -31
q0 -122 66.5 -186.5t165.5 -64.5z" />
    <glyph glyph-name="zhecyrillic" unicode="&#x436;" horiz-adv-x="1767" 
d="M1384 568l270 -568h-319l-223 462h-54l-99 -462h-287l99 462h-58l-403 -462h-346l533 613l-237 490h296l203 -434h55l92 434h287l-93 -434h52l391 434h334z" />
    <glyph glyph-name="zecyrillic" unicode="&#x437;" horiz-adv-x="1190" 
d="M195 744q55 178 195.5 280.5t340.5 102.5t306.5 -79t104.5 -212q-2 -89 -61.5 -157.5t-149.5 -86.5l-4 -19q163 -45 160 -209t-144.5 -276t-356.5 -112t-344 110.5t-131 289.5h276q5 -80 59.5 -121t118.5 -41q110 0 167 40t59 100t-37 86.5t-123 26.5h-154l42 196h146
q128 0 153.5 51t25.5 77q4 104 -153 104q-158 0 -222 -151h-274z" />
    <glyph glyph-name="iicyrillic" unicode="&#x438;" horiz-adv-x="1340" 
d="M77 0l234 1103h287l-147 -675h18l590 675h288l-234 -1103h-287l148 685h-18l-590 -685h-289z" />
    <glyph glyph-name="iishortcyrillic" unicode="&#x439;" horiz-adv-x="1340" 
d="M77 0l234 1103h287l-147 -675h18l590 675h288l-234 -1103h-287l148 685h-18l-590 -685h-289zM864 1432q74 0 130 51.5t73 132.5h218q-54 -251 -202.5 -300.5t-236.5 -49.5q-174 0 -264 99t-56 251h215q-26 -125 29.5 -154.5t93.5 -29.5z" />
    <glyph glyph-name="kacyrillic" unicode="&#x43a;" horiz-adv-x="1196" 
d="M776 576l306 -576h-324l-240 457h-50l-98 -457h-293l234 1103h293l-92 -430h47l410 430h335z" />
    <glyph glyph-name="elcyrillic" unicode="&#x43b;" horiz-adv-x="1273" 
d="M87 249q70 0 120.5 74t89.5 217l153 563h830l-234 -1103h-293l187 874h-287l-101 -357q-77 -283 -183.5 -406.5t-304.5 -123.5q-58 0 -92 13l53 256q26 -7 62 -7z" />
    <glyph glyph-name="emcyrillic" unicode="&#x43c;" horiz-adv-x="1652" 
d="M77 0l234 1103h377l136 -706h18l443 706h374l-234 -1103h-276l156 731h-18l-423 -669h-203l-135 669h-19l-156 -731h-274z" />
    <glyph glyph-name="encyrillic" unicode="&#x43d;" horiz-adv-x="1322" 
d="M311 1103h293l-90 -423h432l90 423h293l-234 -1103h-293l97 451h-432l-97 -451h-293z" />
    <glyph glyph-name="ocyrillic" unicode="&#x43e;" horiz-adv-x="1320" 
d="M658 -24q-237 0 -372 133t-135 349q0 283 174 476t449 193q221 0 355.5 -133t134.5 -350q0 -281 -126 -421.5t-240.5 -193.5t-239.5 -53zM509 283.5q55 -68.5 163 -68.5t197.5 120.5t89.5 292.5q0 124 -53 192.5t-134 68.5t-137 -33t-118.5 -122t-62.5 -236
q0 -146 55 -214.5z" />
    <glyph glyph-name="pecyrillic" unicode="&#x43f;" horiz-adv-x="1312" 
d="M979 874h-422l-187 -874h-293l234 1103h1008l-234 -1103h-293z" />
    <glyph glyph-name="ercyrillic" unicode="&#x440;" horiz-adv-x="1348" 
d="M920 1121q167 0 272.5 -116t105.5 -288q0 -173 -42.5 -304t-117 -226.5t-176 -149.5t-218.5 -54q-180 0 -240 84.5t-73 132.5h-18l-118 -545h-292l309 1448h283l-33 -153h18q125 171 340 171zM694 230q56 0 113 32t123 120t66 261t-80 205t-136 32t-113.5 -33
t-125 -122.5t-67.5 -259.5q0 -169 82 -202t138 -33z" />
    <glyph glyph-name="escyrillic" unicode="&#x441;" horiz-adv-x="1230" 
d="M435 505q0 -288 215 -288q78 0 134.5 45t87.5 114h279q-87 -288 -254 -344t-277 -56q-226 0 -349 130.5t-123 367.5q0 279 164.5 465.5t433.5 186.5q204 0 327.5 -111t133.5 -290h-275q-8 71 -61.5 116.5t-127.5 45.5q-140 0 -224 -116.5t-84 -265.5z" />
    <glyph glyph-name="tecyrillic" unicode="&#x442;" horiz-adv-x="1056" 
d="M1113 874h-326l-187 -874h-293l187 874h-327l47 229h946z" />
    <glyph glyph-name="ucyrillic" unicode="&#x443;" horiz-adv-x="1228" 
d="M144 -169q144 0 203 122l22 44l-144 1106h297l64 -822h18l405 822h312l-630 -1143q-108 -201 -232 -282t-318 -81q-37 0 -82 2.5t-50 2.5l46 235q24 -6 89 -6z" />
    <glyph glyph-name="efcyrillic" unicode="&#x444;" horiz-adv-x="1726" 
d="M439 497q0 -144 66 -214t179 -74l147 685q-183 -8 -287.5 -130.5t-104.5 -266.5zM1296.5 818.5q-65.5 71.5 -180.5 75.5l-147 -685q182 8 287.5 130t105.5 265t-65.5 214.5zM140 470q0 123 49 243.5t197 261.5t491 147l71 335h289l-72 -335q223 -8 359 -134.5t136 -339.5
q0 -286 -196.5 -473t-539.5 -193l-70 -327h-289l70 327q-222 6 -358.5 133t-136.5 355z" />
    <glyph glyph-name="hacyrillic" unicode="&#x445;" horiz-adv-x="1211" 
d="M598 354l-277 -354h-319l463 552l-231 551h318l129 -358h18l270 358h325l-466 -554l235 -549h-307l-140 354h-18z" />
    <glyph glyph-name="tsecyrillic" unicode="&#x446;" horiz-adv-x="1373" 
d="M924 -285l61 285h-908l234 1103h293l-187 -874h422l187 874h293l-187 -874h166l-108 -514h-266z" />
    <glyph glyph-name="checyrillic" unicode="&#x447;" horiz-adv-x="1260" 
d="M821 467q-124 -119 -297 -119t-260 121.5t-45 324.5l65 309h293l-64 -297q-21 -100 17 -153.5t132 -53.5q130 0 228 109l84 395h293l-234 -1103h-293l99 467h-18z" />
    <glyph glyph-name="shacyrillic" unicode="&#x448;" horiz-adv-x="1809" 
d="M311 1103h294l-187 -874h313l186 874h293l-186 -874h313l186 874h293l-234 -1103h-1505z" />
    <glyph glyph-name="shchacyrillic" unicode="&#x449;" horiz-adv-x="1865" 
d="M1415 -285l61 285h-1399l234 1103h294l-187 -874h313l186 874h293l-186 -874h313l186 874h293l-186 -874h159l-108 -514h-266z" />
    <glyph glyph-name="hardsigncyrillic" unicode="&#x44a;" horiz-adv-x="1348" 
d="M757 229q98 0 160.5 59t62.5 131q0 140 -151 140h-168l-72 -330h168zM899 785q172 0 274 -89t102 -233q0 -198 -146 -330.5t-374 -132.5h-507l187 874h-283l47 229h576l-68 -318h192z" />
    <glyph glyph-name="yericyrillic" unicode="&#x44b;" horiz-adv-x="1642" 
d="M726 785q172 0 274 -89t102 -233q0 -198 -146 -330.5t-374 -132.5h-505l234 1103h293l-68 -318h190zM584 229q98 0 160.5 59t62.5 131q0 140 -151 140h-166l-72 -330h166zM1356 1103h293l-234 -1103h-293z" />
    <glyph glyph-name="softsigncyrillic" unicode="&#x44c;" horiz-adv-x="1175" 
d="M726 785q172 0 274 -89t102 -233q0 -198 -146 -330.5t-374 -132.5h-505l234 1103h293l-68 -318h190zM584 229q98 0 160.5 59t62.5 131q0 140 -151 140h-166l-72 -330h166z" />
    <glyph glyph-name="ereversedcyrillic" unicode="&#x44d;" horiz-adv-x="1256" 
d="M893 661q0 225 -228 225q-65 0 -125 -43t-93 -118h-273q80 291 254 346.5t282 55.5q217 0 344.5 -129t127.5 -349q0 -294 -165.5 -483.5t-438.5 -189.5q-210 0 -329.5 107t-127.5 293h275q6 -72 55 -116t119 -44q122 0 199 70t98 179h-405l41 196h390z" />
    <glyph glyph-name="iucyrillic" unicode="&#x44e;" horiz-adv-x="1820" 
d="M1159 215q112 0 196.5 115t84.5 296q0 182 -78 222.5t-134 40.5t-110 -32t-113 -118t-59 -267t80 -219t133 -38zM678 680q57 203 210 325t372 122t349 -134t130 -360q0 -285 -166 -474.5t-441 -189.5q-213 0 -343 122.5t-140 331.5l1 28h-183l-97 -451h-293l234 1103h293
l-90 -423h164z" />
    <glyph glyph-name="iacyrillic" unicode="&#x44f;" horiz-adv-x="1211" 
d="M197 678q0 182 138 303.5t378 121.5h507l-234 -1103h-293l77 356h-107l-320 -356h-348l379 410q-83 38 -130 108t-47 160zM712 875q-99 0 -160 -51.5t-61 -119.5q0 -137 153 -137h169l68 308h-169z" />
    <glyph glyph-name="iocyrillic" unicode="&#x451;" horiz-adv-x="1268" 
d="M1032 1251q-34 0 -62 11.5t-49 31.5t-32.5 48t-11.5 77.5t44 92t94 42.5q51 0 79.5 -11t49.5 -31.5t32.5 -48t11.5 -60.5t-11.5 -61t-32.5 -48t-49.5 -31.5t-62.5 -11.5zM564 1251q-34 0 -62 11.5t-49 31.5t-32.5 48t-11.5 77.5t43.5 92t111.5 42.5t112 -42.5t44 -92
t-11.5 -77.5t-32.5 -48t-49.5 -31.5t-62.5 -11.5zM933 716q0 75 -54.5 131t-149.5 56q-153 0 -208.5 -91t-69.5 -143h479q3 15 3 47zM650 203q163 0 218 114h280q-39 -155 -176 -248t-348 -93q-210 0 -345 127t-135 347q0 303 166 490t431 187q201 0 333 -126.5t132 -335.5
q0 -72 -17 -180h-770l-1 -31q0 -122 66.5 -186.5t165.5 -64.5z" />
    <glyph glyph-name="djecyrillic" unicode="&#x452;" horiz-adv-x="1362" 
d="M944 1127q149 0 244.5 -90t95.5 -238q0 -57 -14 -125l-152 -717q-70 -331 -425 -331h-51q-52 0 -64 3l49 230l19 -1h32q127 0 152 118l139 654q42 191 -49.5 222t-135.5 31q-93 0 -165.5 -60.5t-98.5 -172.5l-138 -650h-292l269 1260h-177l33 158h177l21 97h291l-21 -97
h218l-33 -158h-219l-69 -316h18q127 183 346 183z" />
    <glyph glyph-name="gjecyrillic" unicode="&#x453;" horiz-adv-x="1006" 
d="M562 874l-187 -874h-293l234 1103h756l-47 -229h-463zM884 1634h310l-361 -353h-272z" />
    <glyph glyph-name="ecyrillic" unicode="&#x454;" horiz-adv-x="1233" 
d="M623 -24q-226 0 -350.5 130.5t-124.5 367.5q0 278 166 465t435 187q204 0 327.5 -111t133.5 -290h-275q-8 71 -61.5 116.5t-119.5 45.5q-117 0 -192 -62.5t-98 -161.5h407l-40 -196h-395q-3 -179 80 -214.5t149 -35.5t122.5 45t87.5 114h279q-87 -288 -254 -344t-277 -56
z" />
    <glyph glyph-name="dzecyrillic" unicode="&#x455;" horiz-adv-x="1166" 
d="M580 189q84 0 135.5 31.5t51.5 75.5t-24.5 69.5t-88.5 46.5l-172 60q-260 89 -260 284q0 175 126.5 273t328.5 98t325 -90t133 -238h-267q-11 53 -61.5 84t-108.5 31q-95 0 -145 -32t-50 -75q0 -44 29.5 -69.5t92.5 -46.5l179 -63q134 -47 194.5 -115.5t60.5 -162.5
q0 -174 -133 -274t-347 -100t-347 94.5t-139 247.5h281q12 -57 67 -93t139 -36z" />
    <glyph glyph-name="icyrillic" unicode="&#x456;" horiz-adv-x="620" 
d="M409.5 1297q-47.5 40 -47.5 104t47 107t145 43t125 -56t27 -87t-12.5 -58.5t-48 -60t-112 -32.5t-124 40zM323 1103h293l-235 -1103h-293z" />
    <glyph glyph-name="yicyrillic" unicode="&#x457;" horiz-adv-x="608" 
d="M774 1251q-34 0 -62 11.5t-49 31.5t-32.5 48t-11.5 77.5t44 92t94 42.5q51 0 79.5 -11t49.5 -31.5t32.5 -48t11.5 -60.5t-11.5 -61t-32.5 -48t-49.5 -31.5t-62.5 -11.5zM306 1251q-34 0 -62 11.5t-49 31.5t-32.5 48t-11.5 77.5t43.5 92t111.5 42.5t112 -42.5t44 -92
t-11.5 -77.5t-32.5 -48t-49.5 -31.5t-62.5 -11.5zM332 1103h291l-234 -1103h-291z" />
    <glyph glyph-name="jecyrillic" unicode="&#x458;" horiz-adv-x="604" 
d="M410.5 1297q-47.5 40 -47.5 104t47 107t145 43t125 -56t27 -87t-12.5 -58.5t-48 -60t-112 -32.5t-124 40zM-47 -142q105 0 132 120l240 1125h291l-247 -1158q-33 -156 -138.5 -237t-270.5 -82q-53 0 -131 12l48 226q26 -6 76 -6z" />
    <glyph glyph-name="ljecyrillic" unicode="&#x459;" horiz-adv-x="1850" 
d="M1259 229q98 0 160.5 59t62.5 131q0 140 -151 140h-166l-72 -330h166zM87 249q131 0 208 283l155 571h830l-69 -318h190q172 0 274 -89t102 -233q0 -198 -146 -330.5t-374 -132.5h-505l187 874h-286l-101 -358q-80 -289 -184.5 -409t-303.5 -120q-58 0 -92 13l53 256
q26 -7 62 -7z" />
    <glyph glyph-name="njecyrillic" unicode="&#x45a;" horiz-adv-x="1899" 
d="M1428 714q179 0 283.5 -84.5t104.5 -219.5q0 -174 -143.5 -292t-370.5 -118h-505l104 487h-427l-104 -487h-293l234 1103h293l-84 -392h427l84 392h293l-83 -389h187zM1302 224q98 0 158.5 45.5t60.5 105.5q0 117 -146 117h-180l-59 -268h166z" />
    <glyph glyph-name="tshecyrillic" unicode="&#x45b;" horiz-adv-x="1356" 
d="M1279 807q0 -58 -14 -131l-142 -676h-291l132 628q10 44 10 84q0 78 -54 124.5t-121 46.5q-117 0 -189.5 -63t-92.5 -161l-140 -659h-292l269 1260h-172l33 158h172l21 97h292l-21 -97h217l-33 -158h-218l-70 -323h18q117 187 343 187q155 0 249 -90.5t94 -226.5z" />
    <glyph glyph-name="kjecyrillic" unicode="&#x45c;" horiz-adv-x="1199" 
d="M776 576l306 -576h-324l-240 457h-50l-98 -457h-293l234 1103h293l-92 -430h47l410 430h335zM917 1281h-272l323 353h310z" />
    <glyph glyph-name="ushortcyrillic" unicode="&#x45e;" horiz-adv-x="1228" 
d="M144 -169q144 0 203 122l22 44l-144 1106h297l64 -822h18l405 822h312l-630 -1143q-108 -201 -232 -282t-318 -81q-37 0 -82 2.5t-50 2.5l46 235q24 -6 89 -6zM812 1432q74 0 130 51.5t73 132.5h218q-54 -251 -202.5 -300.5t-236.5 -49.5q-174 0 -264 99t-56 251h215
q-26 -125 29.5 -154.5t93.5 -29.5z" />
    <glyph glyph-name="dzhecyrillic" unicode="&#x45f;" horiz-adv-x="1312" 
d="M714 0l-61 -285h-266l61 285h-371l234 1103h293l-187 -874h422l187 874h293l-234 -1103h-371z" />
    <glyph glyph-name="Geupturncyrillic" unicode="&#x490;" horiz-adv-x="1225" 
d="M415 0h-305l307 1443h653l60 285h283l-113 -543h-632z" />
    <glyph glyph-name="geupturncyrillic" unicode="&#x491;" horiz-adv-x="998" 
d="M557 874l-187 -874h-293l234 1103h490l61 285h266l-108 -514h-463z" />
    <glyph glyph-name="baht" unicode="&#xe3f;" horiz-adv-x="1415" 
d="M1276 434q0 -78 -40 -161.5t-151.5 -178t-347.5 -94.5h-86l-29 -138h-141l29 138h-433l307 1443h433l31 145h141l-31 -145q176 -4 282 -89t106 -225t-91.5 -243t-235.5 -123l-2 -19q118 -22 188.5 -100t70.5 -210zM555 851h136l79 368h-135zM561 237l87 410h-136
l-89 -410h138zM979 486q0 64 -48 108t-142 52l-87 -409q120 2 198.5 68t78.5 181zM1049 1075q0 51 -35 89t-105 50l-76 -359q98 12 157 69.5t59 150.5z" />
    <glyph glyph-name="Aringbelow" unicode="&#x1e00;" horiz-adv-x="1501" 
d="M608 -434q46 0 75.5 29.5t29.5 74.5t-30 74t-76 29t-75.5 -28.5t-29.5 -74.5t30 -75t76 -29zM362 -329q0 104 71 171t175 67q105 0 175 -67t70 -171t-69.5 -172.5t-175.5 -68.5t-176 68.5t-70 172.5zM612 577h381l-58 565h-19zM1007 344h-509l-186 -344h-315l820 1443
h349l187 -1443h-311z" />
    <glyph glyph-name="aringbelow" unicode="&#x1e01;" horiz-adv-x="1202" 
d="M496 -434q46 0 76 29.5t30 74.5t-30 74t-76 29t-75.5 -28.5t-29.5 -74.5t29.5 -75t75.5 -29zM251 -329q0 104 70.5 171t174.5 67q105 0 175.5 -67t70.5 -171t-70 -172.5t-176 -68.5t-175.5 68.5t-69.5 172.5zM723 136q-105 -153 -323 -153q-128 0 -222.5 85.5
t-94.5 215.5q0 167 129.5 265.5t361.5 106.5l274 9l15 68q5 25 5 40q0 57 -48.5 90.5t-133.5 33.5q-147 0 -192 -98h-275q36 152 168 240t326 88q195 0 318.5 -89t123.5 -236q0 -53 -9 -89l-151 -713h-283l29 136h-18zM425.5 430q-56.5 -39 -56.5 -99t46 -94.5t129 -34.5
t155 52t90 132l21 95l-228 -8q-100 -4 -156.5 -43z" />
    <glyph glyph-name="Bdotaccent" unicode="&#x1e02;" horiz-adv-x="1420" 
d="M739 237q127 0 211 66t84 160q0 184 -234 184h-259l-89 -410h287zM1105 1065q0 154 -216 154h-225l-80 -368h240q123 0 202 60t79 154zM996 1443q185 0 299 -85.5t114 -227.5q0 -141 -91.5 -244t-234.5 -123l-2 -19q119 -22 188.5 -99t69.5 -183q0 -206 -154.5 -334
t-393.5 -128h-691l307 1443h589zM918 1579q-34 0 -63 12t-50 33t-32.5 50t-11.5 80.5t44.5 96t112.5 44.5t113 -44.5t45 -132.5t-62 -113.5t-96 -25.5z" />
    <glyph glyph-name="bdotaccent" unicode="&#x1e03;" horiz-adv-x="1339" 
d="M692 230q56 0 113 32t123 120t66 261t-80 205t-136 32t-113.5 -33t-125 -122.5t-67.5 -259.5q0 -169 82 -202t138 -33zM1296 717q0 -173 -42.5 -304t-116.5 -226.5t-174.5 -149.5t-216.5 -54t-207.5 60t-119.5 157h-18l-43 -200h-283l324 1524h291l-122 -575l19 1
q116 171 332 171q166 0 271.5 -115.5t105.5 -288.5zM608 1660q-34 0 -63.5 12t-50.5 33t-32.5 50t-11.5 80.5t45 96t113 44.5t112.5 -44.5t44.5 -132.5t-61.5 -113.5t-95.5 -25.5z" />
    <glyph glyph-name="Bdotbelow" unicode="&#x1e04;" horiz-adv-x="1420" 
d="M739 237q127 0 211 66t84 160q0 184 -234 184h-259l-89 -410h287zM1105 1065q0 154 -216 154h-225l-80 -368h240q123 0 202 60t79 154zM996 1443q185 0 299 -85.5t114 -227.5q0 -141 -91.5 -244t-234.5 -123l-2 -19q119 -22 188.5 -99t69.5 -183q0 -206 -154.5 -334
t-393.5 -128h-691l307 1443h589zM514 -419q-36 0 -64.5 10.5t-49 29t-31.5 44.5t-11 71.5t43 84.5t96 39t82 -10.5t49.5 -29t32 -44t11.5 -55.5t-11.5 -56t-32 -44.5t-49.5 -29t-65 -10.5z" />
    <glyph glyph-name="bdotbelow" unicode="&#x1e05;" horiz-adv-x="1339" 
d="M692 230q56 0 113 32t123 120t66 261t-80 205t-136 32t-113.5 -33t-125 -122.5t-67.5 -259.5q0 -169 82 -202t138 -33zM1296 717q0 -173 -42.5 -304t-116.5 -226.5t-174.5 -149.5t-216.5 -54t-207.5 60t-119.5 157h-18l-43 -200h-283l324 1524h291l-122 -575l19 1
q116 171 332 171q166 0 271.5 -115.5t105.5 -288.5zM516 -416q-36 0 -65 10.5t-49.5 29t-31.5 44.5t-11 71.5t43 84.5t96 39t82 -10.5t49.5 -29t32 -44t11.5 -55.5t-11.5 -56t-32 -44.5t-49 -29t-64.5 -10.5z" />
    <glyph glyph-name="Blinebelow" unicode="&#x1e06;" horiz-adv-x="1420" 
d="M118 -401l37 181h746l-38 -181h-745zM739 237q127 0 211 66t84 160q0 184 -234 184h-259l-89 -410h287zM1105 1065q0 154 -216 154h-225l-80 -368h240q123 0 202 60t79 154zM996 1443q185 0 299 -85.5t114 -227.5q0 -141 -91.5 -244t-234.5 -123l-2 -19
q119 -22 188.5 -99t69.5 -183q0 -206 -154.5 -334t-393.5 -128h-691l307 1443h589z" />
    <glyph glyph-name="blinebelow" unicode="&#x1e07;" horiz-adv-x="1339" 
d="M692 230q56 0 113 32t123 120t66 261t-80 205t-136 32t-113.5 -33t-125 -122.5t-67.5 -259.5q0 -169 82 -202t138 -33zM1296 717q0 -173 -42.5 -304t-116.5 -226.5t-174.5 -149.5t-216.5 -54t-207.5 60t-119.5 157h-18l-43 -200h-283l324 1524h291l-122 -575l19 1
q116 171 332 171q166 0 271.5 -115.5t105.5 -288.5zM119 -398l37 181h746l-38 -181h-745z" />
    <glyph glyph-name="Ccedillaacute" unicode="&#x1e08;" horiz-adv-x="1534" 
d="M782 -294q0 60 -116 59h-57l17 116l58 88q-232 28 -368 189t-136 410q0 400 165 588.5t310 256t293 67.5q273 0 440 -145.5t167 -359.5v-16q0 -16 -2 -27h-294v14q-6 120 -89 193t-199 73q-214 0 -348 -179t-134 -444q0 -166 85 -262.5t230 -96.5q191 0 262.5 90.5
t89.5 143.5h299q-44 -210 -201.5 -341.5t-386.5 -155.5l-57 -87q159 -26 159 -164q0 -95 -72 -153.5t-186 -58.5t-191 36l28 133q59 -27 146 -27q88 0 88 60zM1124 1591h-277l343 318h315z" />
    <glyph glyph-name="ccedillaacute" unicode="&#x1e09;" horiz-adv-x="1214" 
d="M580 -294q0 60 -116 59h-57l17 116l70 106q-168 32 -264.5 153.5t-96.5 284.5q0 313 170 507.5t439 194.5q192 0 316.5 -106.5t137.5 -254.5q2 -10 2 -21v-22h-276q-6 116 -82 140.5t-130 24.5t-108.5 -33t-116 -121.5t-61.5 -269.5t82 -214t145 -33t122 40t84 116h279
q-27 -159 -152 -269.5t-312 -125.5l-64 -98q159 -26 159 -164q0 -95 -72 -153.5t-186 -58.5t-191 36l28 133q58 -27 146 -27t88 60zM897 1281h-272l323 353h310z" />
    </font>
</defs>
</svg>
